<?xml version="1.0" encoding="UTF-8" standalone="no"?>
<!-- Created with Inkscape (http://www.inkscape.org/) -->

<svg
   xmlns:dc="http://purl.org/dc/elements/1.1/"
   xmlns:cc="http://creativecommons.org/ns#"
   xmlns:rdf="http://www.w3.org/1999/02/22-rdf-syntax-ns#"
   xmlns:svg="http://www.w3.org/2000/svg"
   xmlns="http://www.w3.org/2000/svg"
   xmlns:xlink="http://www.w3.org/1999/xlink"
   xmlns:sodipodi="http://sodipodi.sourceforge.net/DTD/sodipodi-0.dtd"
   xmlns:inkscape="http://www.inkscape.org/namespaces/inkscape"
   width="246.14371"
   height="304.60242"
   id="svg3411"
   version="1.1"
   inkscape:version="0.48.4 r9939"
   sodipodi:docname="New document 16">
  <sodipodi:namedview
     id="base"
     pagecolor="#ffffff"
     bordercolor="#666666"
     borderopacity="1.0"
     inkscape:pageopacity="0.0"
     inkscape:pageshadow="2"
     inkscape:zoom="1.4142136"
     inkscape:cx="46.55378"
     inkscape:cy="79.298069"
     inkscape:document-units="px"
     inkscape:current-layer="layer1"
     showgrid="true"
     fit-margin-top="0"
     fit-margin-left="0"
     fit-margin-right="0"
     fit-margin-bottom="0"
     gridtolerance="1"
     objecttolerance="1"
     guidetolerance="1"
     inkscape:window-width="1680"
     inkscape:window-height="974"
     inkscape:window-x="1680"
     inkscape:window-y="24"
     inkscape:window-maximized="1"
     showguides="true"
     inkscape:guide-bbox="true">
    <inkscape:grid
       type="xygrid"
       id="grid3752"
       empspacing="5"
       visible="true"
       enabled="true"
       snapvisiblegridlinesonly="true"
       originx="-352.07621px"
       originy="-20.584398px" />
  </sodipodi:namedview>
  <defs
     id="defs3413">
    <linearGradient
       id="linearGradient5712">
      <stop
         style="stop-color:#009100;stop-opacity:1;"
         offset="0"
         id="stop5714" />
      <stop
         style="stop-color:#00ff00;stop-opacity:0;"
         offset="1"
         id="stop5716" />
    </linearGradient>
    <linearGradient
       id="linearGradient5670">
      <stop
         style="stop-color:#910000;stop-opacity:1;"
         offset="0"
         id="stop5672" />
      <stop
         style="stop-color:#ff0000;stop-opacity:0;"
         offset="1"
         id="stop5674" />
    </linearGradient>
    <linearGradient
       id="linearGradient5127">
      <stop
         style="stop-color:#ff000c;stop-opacity:1;"
         offset="0"
         id="stop5129" />
      <stop
         style="stop-color:#757575;stop-opacity:0;"
         offset="1"
         id="stop5131" />
    </linearGradient>
    <marker
       inkscape:stockid="TriangleOutM"
       orient="auto"
       refY="0"
       refX="0"
       id="TriangleOutM"
       style="overflow:visible">
      <path
         id="path4752"
         d="m 5.77,0 -8.65,5 0,-10 8.65,5 z"
         style="fill-rule:evenodd;stroke:#000000;stroke-width:1pt"
         transform="scale(0.4,0.4)"
         inkscape:connector-curvature="0" />
    </marker>
    <marker
       inkscape:stockid="Arrow1Mend"
       orient="auto"
       refY="0"
       refX="0"
       id="Arrow1Mend-9"
       style="overflow:visible">
      <path
         inkscape:connector-curvature="0"
         id="path4597-3"
         d="M 0,0 5,-5 -12.5,0 5,5 0,0 z"
         style="fill-rule:evenodd;stroke:#000000;stroke-width:1pt"
         transform="matrix(-0.4,0,0,-0.4,-4,0)" />
    </marker>
    <marker
       inkscape:stockid="Arrow1Mend"
       orient="auto"
       refY="0"
       refX="0"
       id="marker3158"
       style="overflow:visible">
      <path
         inkscape:connector-curvature="0"
         id="path3160"
         d="M 0,0 5,-5 -12.5,0 5,5 0,0 z"
         style="fill-rule:evenodd;stroke:#000000;stroke-width:1pt"
         transform="matrix(-0.4,0,0,-0.4,-4,0)" />
    </marker>
    <marker
       inkscape:stockid="Arrow1Mend"
       orient="auto"
       refY="0"
       refX="0"
       id="marker3162"
       style="overflow:visible">
      <path
         inkscape:connector-curvature="0"
         id="path3164"
         d="M 0,0 5,-5 -12.5,0 5,5 0,0 z"
         style="fill-rule:evenodd;stroke:#000000;stroke-width:1pt"
         transform="matrix(-0.4,0,0,-0.4,-4,0)" />
    </marker>
    <marker
       inkscape:stockid="Arrow1Mend"
       orient="auto"
       refY="0"
       refX="0"
       id="marker3166"
       style="overflow:visible">
      <path
         inkscape:connector-curvature="0"
         id="path3168"
         d="M 0,0 5,-5 -12.5,0 5,5 0,0 z"
         style="fill-rule:evenodd;stroke:#000000;stroke-width:1pt"
         transform="matrix(-0.4,0,0,-0.4,-4,0)" />
    </marker>
    <marker
       inkscape:stockid="Arrow1Mend"
       orient="auto"
       refY="0"
       refX="0"
       id="Arrow1Mend"
       style="overflow:visible">
      <path
         id="path4597"
         d="M 0,0 5,-5 -12.5,0 5,5 0,0 z"
         style="fill-rule:evenodd;stroke:#000000;stroke-width:1pt"
         transform="matrix(-0.4,0,0,-0.4,-4,0)"
         inkscape:connector-curvature="0" />
    </marker>
    <marker
       inkscape:stockid="Arrow1Mend"
       orient="auto"
       refY="0"
       refX="0"
       id="marker3172"
       style="overflow:visible">
      <path
         id="path3174"
         d="M 0,0 5,-5 -12.5,0 5,5 0,0 z"
         style="fill-rule:evenodd;stroke:#000000;stroke-width:1pt"
         transform="matrix(-0.4,0,0,-0.4,-4,0)"
         inkscape:connector-curvature="0" />
    </marker>
    <marker
       inkscape:stockid="Arrow1Mend"
       orient="auto"
       refY="0"
       refX="0"
       id="Arrow1Mend-1"
       style="overflow:visible">
      <path
         id="path4597-2"
         d="M 0,0 5,-5 -12.5,0 5,5 0,0 z"
         style="fill-rule:evenodd;stroke:#000000;stroke-width:1pt"
         transform="matrix(-0.4,0,0,-0.4,-4,0)"
         inkscape:connector-curvature="0" />
    </marker>
    <marker
       inkscape:stockid="TriangleOutM"
       orient="auto"
       refY="0"
       refX="0"
       id="TriangleOutM-9"
       style="overflow:visible">
      <path
         inkscape:connector-curvature="0"
         id="path4752-5"
         d="m 5.77,0 -8.65,5 0,-10 8.65,5 z"
         style="fill-rule:evenodd;stroke:#000000;stroke-width:1pt"
         transform="scale(0.4,0.4)" />
    </marker>
    <linearGradient
       inkscape:collect="always"
       xlink:href="#linearGradient5127"
       id="linearGradient5138"
       x1="366.49823"
       y1="260.7547"
       x2="366.49823"
       y2="325.7547"
       gradientUnits="userSpaceOnUse" />
    <linearGradient
       inkscape:collect="always"
       xlink:href="#linearGradient5127"
       id="linearGradient5138-4"
       x1="366.49823"
       y1="260.7547"
       x2="366.49823"
       y2="325.7547"
       gradientUnits="userSpaceOnUse" />
    <linearGradient
       id="linearGradient5127-1">
      <stop
         style="stop-color:#00ff4a;stop-opacity:1;"
         offset="0"
         id="stop5129-0" />
      <stop
         style="stop-color:#757575;stop-opacity:0;"
         offset="1"
         id="stop5131-6" />
    </linearGradient>
    <linearGradient
       inkscape:collect="always"
       xlink:href="#linearGradient5127-1"
       id="linearGradient5140-6"
       gradientUnits="userSpaceOnUse"
       x1="366.49823"
       y1="260.7547"
       x2="366.49823"
       y2="325.7547" />
    <linearGradient
       id="linearGradient5157">
      <stop
         style="stop-color:#00f146;stop-opacity:1;"
         offset="0"
         id="stop5159" />
      <stop
         style="stop-color:#757575;stop-opacity:0;"
         offset="1"
         id="stop5161" />
    </linearGradient>
    <linearGradient
       inkscape:collect="always"
       xlink:href="#linearGradient5127"
       id="linearGradient5220"
       gradientUnits="userSpaceOnUse"
       x1="366.49823"
       y1="260.7547"
       x2="366.49823"
       y2="325.7547" />
    <linearGradient
       inkscape:collect="always"
       xlink:href="#linearGradient5127-1"
       id="linearGradient5607"
       x1="410.76672"
       y1="300.63211"
       x2="410.76672"
       y2="320.63211"
       gradientUnits="userSpaceOnUse" />
    <linearGradient
       inkscape:collect="always"
       xlink:href="#linearGradient5127-1"
       id="linearGradient5611"
       gradientUnits="userSpaceOnUse"
       x1="410.76672"
       y1="300.63211"
       x2="410.76672"
       y2="320.63211" />
    <linearGradient
       inkscape:collect="always"
       xlink:href="#linearGradient5127"
       id="linearGradient5641"
       gradientUnits="userSpaceOnUse"
       x1="366.49823"
       y1="260.7547"
       x2="366.49823"
       y2="325.7547" />
    <linearGradient
       inkscape:collect="always"
       xlink:href="#linearGradient5127-1"
       id="linearGradient5652"
       gradientUnits="userSpaceOnUse"
       x1="410.76672"
       y1="300.63211"
       x2="410.76672"
       y2="320.63211" />
    <linearGradient
       inkscape:collect="always"
       xlink:href="#linearGradient5127-1"
       id="linearGradient5654"
       gradientUnits="userSpaceOnUse"
       x1="410.76672"
       y1="300.63211"
       x2="410.76672"
       y2="320.63211" />
    <linearGradient
       inkscape:collect="always"
       xlink:href="#linearGradient5670"
       id="linearGradient5676"
       x1="158.21388"
       y1="-138.39151"
       x2="165.0806"
       y2="-328.26736"
       gradientUnits="userSpaceOnUse" />
    <linearGradient
       inkscape:collect="always"
       xlink:href="#linearGradient5670-6"
       id="linearGradient5676-7"
       x1="158.21388"
       y1="-138.39151"
       x2="165.0806"
       y2="-328.26736"
       gradientUnits="userSpaceOnUse" />
    <linearGradient
       inkscape:collect="always"
       id="linearGradient5670-6">
      <stop
         style="stop-color:#ff0000;stop-opacity:1;"
         offset="0"
         id="stop5672-1" />
      <stop
         style="stop-color:#ff0000;stop-opacity:0;"
         offset="1"
         id="stop5674-9" />
    </linearGradient>
    <linearGradient
       inkscape:collect="always"
       xlink:href="#linearGradient5712"
       id="linearGradient5718"
       x1="159.60133"
       y1="-95.845047"
       x2="167.88528"
       y2="-324.90976"
       gradientUnits="userSpaceOnUse" />
    <marker
       inkscape:stockid="TriangleOutM-9Y"
       orient="auto"
       refY="0"
       refX="0"
       id="TriangleOutM-9Y"
       style="overflow:visible">
      <path
         inkscape:connector-curvature="0"
         id="path5973"
         d="m 5.77,0 -8.65,5 0,-10 8.65,5 z"
         style="fill:#ff0000;fill-rule:evenodd;stroke:#ff0000;stroke-width:1pt"
         transform="scale(0.4,0.4)" />
    </marker>
    <marker
       inkscape:stockid="TriangleOutM-9p"
       orient="auto"
       refY="0"
       refX="0"
       id="TriangleOutM-9p"
       style="overflow:visible">
      <path
         inkscape:connector-curvature="0"
         id="path6326"
         d="m 5.77,0 -8.65,5 0,-10 8.65,5 z"
         style="fill:#00a000;fill-rule:evenodd;stroke:#00a000;stroke-width:1pt"
         transform="scale(0.4,0.4)" />
    </marker>
    <linearGradient
       inkscape:collect="always"
       xlink:href="#linearGradient5712"
       id="linearGradient11260"
       gradientUnits="userSpaceOnUse"
       x1="159.60133"
       y1="-95.845047"
       x2="167.88528"
       y2="-324.90976" />
    <linearGradient
       inkscape:collect="always"
       xlink:href="#linearGradient5670"
       id="linearGradient11295"
       gradientUnits="userSpaceOnUse"
       x1="158.21388"
       y1="-138.39151"
       x2="165.0806"
       y2="-328.26736" />
    <linearGradient
       inkscape:collect="always"
       xlink:href="#linearGradient5670"
       id="linearGradient11366"
       gradientUnits="userSpaceOnUse"
       x1="158.21388"
       y1="-138.39151"
       x2="165.0806"
       y2="-328.26736"
       gradientTransform="matrix(-0.30519134,0.01103701,-0.01103701,-0.30519134,424.61989,189.85122)" />
  </defs>
  <metadata
     id="metadata3416">
    <rdf:RDF>
      <cc:Work
         rdf:about="">
        <dc:format>image/svg+xml</dc:format>
        <dc:type
           rdf:resource="http://purl.org/dc/dcmitype/StillImage" />
        <dc:title></dc:title>
      </cc:Work>
    </rdf:RDF>
  </metadata>
  <g
     inkscape:label="Layer 1"
     inkscape:groupmode="layer"
     id="layer1"
     transform="translate(-258.57444,-165.56788)">
    <path
       style="fill:url(#linearGradient11366);fill-opacity:1;stroke:none"
       inkscape:transform-center-x="-3.0255903"
       inkscape:transform-center-y="12.579503"
       d="m 329.21258,242.21738 48.94264,-40.96992 50.57873,40.08603 58.46515,46.28817 -108.94466,0.0573 -104.78565,-0.10801 z"
       id="path5637"
       inkscape:connector-curvature="0"
       sodipodi:nodetypes="ccccccc" />
    <rect
       style="fill:#000000;fill-opacity:1;stroke:none"
       id="rect3789-8"
       width="6.625"
       height="6.625"
       x="387.71524"
       y="285.20969"
       ry="1.9322722" />
    <g
       transform="matrix(0.69478719,0,0,0.69478719,163.52209,-0.576457)"
       id="g8294">
      <g
         style="font-style:normal;font-variant:normal;font-weight:normal;font-stretch:normal;letter-spacing:normal;word-spacing:normal;text-anchor:start;fill:none;stroke:#000000;stroke-linecap:butt;stroke-linejoin:miter;stroke-miterlimit:10.43299961;stroke-opacity:1;stroke-dasharray:none;stroke-dashoffset:0"
         word-spacing="normal"
         letter-spacing="normal"
         font-size-adjust="none"
         font-stretch="normal"
         font-weight="normal"
         font-variant="normal"
         font-style="normal"
         stroke-miterlimit="10.433"
         xml:space="preserve"
         transform="matrix(0.48520307,0,0,-0.48520307,-84.910538,641.68121)"
         id="g8296"><path
           style="fill:#000000;stroke-width:0"
           inkscape:connector-curvature="0"
           id="path8298"
           d="m 472.96,409 0.05,-0.19 0.06,-0.19 0.07,-0.18 0.08,-0.18 0.08,-0.17 0.09,-0.16 0.09,-0.16 0.1,-0.16 0.11,-0.15 0.11,-0.15 0.11,-0.14 0.13,-0.13 0.12,-0.13 0.14,-0.12 0.14,-0.12 0.14,-0.11 0.15,-0.11 0.15,-0.1 0.15,-0.09 0.16,-0.09 0.17,-0.08 0.17,-0.07 0.17,-0.07 0.18,-0.06 0.17,-0.06 0.19,-0.04 0.18,-0.05 0.19,-0.03 0.19,-0.02 0.2,-0.02 0.2,-0.01 0.19,-0.01 c 1.74,0 2.9,1.14 3.69,2.74 0.85,1.79 1.49,4.84 1.49,4.93 0,0.5 -0.44,0.5 -0.6,0.5 -0.5,0 -0.54,-0.2 -0.7,-0.9 -0.69,-2.78 -1.64,-6.17 -3.73,-6.17 -1.05,0 -1.54,0.65 -1.54,2.29 0,1.1 0.6,3.44 0.99,5.17 l 1.4,5.4 c 0.15,0.75 0.65,2.64 0.85,3.39 0.25,1.14 0.75,3.03 0.75,3.32 0,0.91 -0.7,1.35 -1.45,1.35 -0.25,0 -1.55,-0.05 -1.94,-1.74 -0.96,-3.64 -3.14,-12.36 -3.74,-15 -0.06,-0.2 -2.04,-4.18 -5.68,-4.18 -2.6,0 -3.1,2.25 -3.1,4.09 0,2.78 1.41,6.72 2.71,10.16 0.59,1.5 0.84,2.18 0.84,3.14 0,2.23 -1.59,4.07 -4.09,4.07 -4.74,0 -6.58,-7.21 -6.58,-7.67 0,-0.5 0.5,-0.5 0.61,-0.5 0.5,0 0.54,0.11 0.79,0.91 1.24,4.33 3.14,6.17 5.03,6.17 0.44,0 1.25,-0.05 1.25,-1.64 0,-1.2 -0.56,-2.64 -0.85,-3.39 -1.85,-4.94 -2.9,-8.02 -2.9,-10.45 0,-4.74 3.44,-5.99 6.15,-5.99 3.28,0 5.07,2.24 5.92,3.35 z" /><path
           style="fill:#000000;stroke-width:0"
           inkscape:connector-curvature="0"
           id="path8300"
           d="m 496.45,450.34 -0.6,-0.45 -0.58,-0.46 -0.55,-0.47 -0.53,-0.49 -0.5,-0.5 -0.47,-0.51 -0.45,-0.53 -0.42,-0.53 -0.4,-0.54 -0.38,-0.55 -0.35,-0.56 -0.33,-0.56 -0.31,-0.57 -0.28,-0.57 -0.27,-0.58 -0.25,-0.58 -0.23,-0.58 -0.21,-0.58 -0.19,-0.59 -0.17,-0.58 -0.15,-0.58 -0.14,-0.58 -0.13,-0.57 -0.11,-0.57 -0.09,-0.57 -0.08,-0.56 -0.06,-0.55 -0.05,-0.55 -0.04,-0.53 -0.03,-0.53 -0.02,-0.52 0,-0.5 c 0,-4.92 1.47,-12.55 8.37,-17.42 0.28,0 0.69,0 0.69,0.4 0,0.22 -0.09,0.28 -0.34,0.53 -4.64,4.19 -6.35,10.11 -6.35,16.46 0,9.4 3.6,14 6.46,16.58 0.14,0.14 0.23,0.25 0.23,0.42 0,0.42 -0.41,0.42 -0.69,0.42 z" /><path
           style="fill:#000000;stroke-width:0"
           inkscape:connector-curvature="0"
           id="path8302"
           d="m 511.35,446.36 0,0.04 0,0.04 0,0.04 0,0.04 0,0.04 0,0.04 -0.01,0.04 0,0.03 0,0.04 0,0.03 0,0.03 0,0.03 -0.01,0.03 0,0.03 0,0.03 -0.01,0.02 0,0.03 -0.01,0.02 0,0.02 -0.01,0.03 -0.01,0.04 -0.01,0.04 -0.02,0.03 -0.02,0.03 -0.02,0.03 -0.03,0.03 -0.02,0.02 -0.03,0.02 -0.04,0.01 -0.04,0.02 -0.04,0.01 -0.04,0.01 -0.05,0.01 -0.02,0.01 -0.03,0 -0.03,0 -0.03,0.01 -0.03,0 -0.03,0 -0.03,0 -0.03,0 -0.04,0.01 -0.03,0 -0.04,0 -0.04,0 -0.03,0 -0.05,0 -0.04,0 -0.04,0 -0.04,0 -0.05,0 c -2.23,-2.2 -5.39,-2.23 -6.83,-2.23 v -1.25 c 0.85,0 3.14,0 5.05,0.96 v -17.76 c 0,-1.16 0,-1.61 -3.48,-1.61 h -1.32 v -1.25 c 0.63,0.03 4.91,0.14 6.21,0.14 1.07,0 5.47,-0.11 6.23,-0.14 v 1.25 h -1.33 c -3.48,0 -3.48,0.45 -3.48,1.61 z" /><path
           style="fill:#000000;stroke-width:0"
           inkscape:connector-curvature="0"
           id="path8304"
           d="m 522.61,450.34 -0.02,0 -0.03,0 -0.02,0 -0.03,0 -0.02,0 -0.03,0 -0.03,0 -0.03,-0.01 -0.03,0 -0.02,0 -0.03,-0.01 -0.03,0 -0.03,-0.01 -0.02,-0.01 -0.03,0 -0.03,-0.01 -0.02,-0.01 -0.03,-0.02 -0.02,-0.01 -0.02,-0.01 -0.02,-0.02 -0.02,-0.02 -0.02,-0.02 -0.01,-0.01 -0.01,-0.01 -0.01,-0.01 0,-0.01 -0.01,-0.01 -0.01,-0.02 0,-0.01 -0.01,-0.01 -0.01,-0.02 0,-0.01 0,-0.02 -0.01,-0.01 0,-0.02 0,-0.02 -0.01,-0.02 0,-0.01 0,-0.02 0,-0.02 c 0,-0.17 0.11,-0.28 0.31,-0.53 3,-2.75 6.35,-7.46 6.35,-16.44 0,-7.28 -2.27,-12.8 -6.03,-16.2 -0.58,-0.6 -0.63,-0.63 -0.63,-0.82 0,-0.17 0.11,-0.4 0.46,-0.4 0.42,0 3.73,2.29 6.03,6.65 1.53,2.89 2.54,6.66 2.54,10.74 0,4.9 -1.47,12.53 -8.36,17.42 z" /></g>    </g>
    <g
       transform="matrix(0.66574726,0,0,0.66574726,384.72817,12.027358)"
       id="g8518">
      <g
         style="font-style:normal;font-variant:normal;font-weight:normal;font-stretch:normal;letter-spacing:normal;word-spacing:normal;text-anchor:start;fill:none;stroke:#000000;stroke-linecap:butt;stroke-linejoin:miter;stroke-miterlimit:10.43299961;stroke-opacity:1;stroke-dasharray:none;stroke-dashoffset:0"
         id="g8520"
         transform="matrix(0.48520307,0,0,-0.48520307,-84.910538,641.68121)"
         xml:space="preserve"
         stroke-miterlimit="10.433"
         font-style="normal"
         font-variant="normal"
         font-weight="normal"
         font-stretch="normal"
         font-size-adjust="none"
         letter-spacing="normal"
         word-spacing="normal"><path
           style="fill:#000000;stroke-width:0"
           inkscape:connector-curvature="0"
           d="m 472.96,409 0.05,-0.19 0.06,-0.19 0.07,-0.18 0.08,-0.18 0.08,-0.17 0.09,-0.16 0.09,-0.16 0.1,-0.16 0.11,-0.15 0.11,-0.15 0.11,-0.14 0.13,-0.13 0.12,-0.13 0.14,-0.12 0.14,-0.12 0.14,-0.11 0.15,-0.11 0.15,-0.1 0.15,-0.09 0.16,-0.09 0.17,-0.08 0.17,-0.07 0.17,-0.07 0.18,-0.06 0.17,-0.06 0.19,-0.04 0.18,-0.05 0.19,-0.03 0.19,-0.02 0.2,-0.02 0.2,-0.01 0.19,-0.01 c 1.74,0 2.9,1.14 3.69,2.74 0.85,1.79 1.49,4.84 1.49,4.93 0,0.5 -0.44,0.5 -0.6,0.5 -0.5,0 -0.54,-0.2 -0.7,-0.9 -0.69,-2.78 -1.64,-6.17 -3.73,-6.17 -1.05,0 -1.54,0.65 -1.54,2.29 0,1.1 0.6,3.44 0.99,5.17 l 1.4,5.4 c 0.15,0.75 0.65,2.64 0.85,3.39 0.25,1.14 0.75,3.03 0.75,3.32 0,0.91 -0.7,1.35 -1.45,1.35 -0.25,0 -1.55,-0.05 -1.94,-1.74 -0.96,-3.64 -3.14,-12.36 -3.74,-15 -0.06,-0.2 -2.04,-4.18 -5.68,-4.18 -2.6,0 -3.1,2.25 -3.1,4.09 0,2.78 1.41,6.72 2.71,10.16 0.59,1.5 0.84,2.18 0.84,3.14 0,2.23 -1.59,4.07 -4.09,4.07 -4.74,0 -6.58,-7.21 -6.58,-7.67 0,-0.5 0.5,-0.5 0.61,-0.5 0.5,0 0.54,0.11 0.79,0.91 1.24,4.33 3.14,6.17 5.03,6.17 0.44,0 1.25,-0.05 1.25,-1.64 0,-1.2 -0.56,-2.64 -0.85,-3.39 -1.85,-4.94 -2.9,-8.02 -2.9,-10.45 0,-4.74 3.44,-5.99 6.15,-5.99 3.28,0 5.07,2.24 5.92,3.35 z"
           id="path8522" /><path
           style="fill:#000000;stroke-width:0"
           inkscape:connector-curvature="0"
           d="m 496.45,450.34 -0.6,-0.45 -0.58,-0.46 -0.55,-0.47 -0.53,-0.49 -0.5,-0.5 -0.47,-0.51 -0.45,-0.53 -0.42,-0.53 -0.4,-0.54 -0.38,-0.55 -0.35,-0.56 -0.33,-0.56 -0.31,-0.57 -0.28,-0.57 -0.27,-0.58 -0.25,-0.58 -0.23,-0.58 -0.21,-0.58 -0.19,-0.59 -0.17,-0.58 -0.15,-0.58 -0.14,-0.58 -0.13,-0.57 -0.11,-0.57 -0.09,-0.57 -0.08,-0.56 -0.06,-0.55 -0.05,-0.55 -0.04,-0.53 -0.03,-0.53 -0.02,-0.52 0,-0.5 c 0,-4.92 1.47,-12.55 8.37,-17.42 0.28,0 0.69,0 0.69,0.4 0,0.22 -0.09,0.28 -0.34,0.53 -4.64,4.19 -6.35,10.11 -6.35,16.46 0,9.4 3.6,14 6.46,16.58 0.14,0.14 0.23,0.25 0.23,0.42 0,0.42 -0.41,0.42 -0.69,0.42 z"
           id="path8524" /><path
           style="fill:#000000;stroke-width:0"
           inkscape:connector-curvature="0"
           d="m 528.74,444.2 0.07,0.25 0.07,0.24 0.04,0.11 0.05,0.12 0.05,0.11 0.05,0.12 0.05,0.11 0.07,0.1 0.06,0.11 0.07,0.1 0.08,0.1 0.08,0.09 0.09,0.09 0.1,0.09 0.1,0.09 0.11,0.08 0.12,0.07 0.13,0.08 0.13,0.06 0.15,0.07 0.15,0.06 0.16,0.05 0.18,0.05 0.18,0.05 0.2,0.03 0.2,0.04 0.22,0.03 0.11,0.01 0.12,0.01 0.12,0.01 0.12,0.01 0.13,0 0.13,0.01 c 0.17,0 0.7,0.03 0.7,0.76 0,0.2 -0.17,0.49 -0.53,0.49 -1.14,0 -2.44,-0.14 -3.63,-0.14 -0.82,0 -2.84,0.14 -3.69,0.14 -0.17,0 -0.7,0 -0.7,-0.77 0,-0.45 0.45,-0.48 0.78,-0.48 1.63,-0.04 2.22,-0.57 2.22,-1.44 0,-0.27 -0.03,-0.45 -0.14,-0.83 l -3.79,-15.19 -8.85,18.11 c -0.28,0.6 -0.34,0.6 -1.19,0.6 h -4.76 c -0.67,0 -1.13,0 -1.13,-0.77 0,-0.48 0.42,-0.48 1.16,-0.48 0.73,0 1.5,-0.04 2.22,-0.18 l -4.66,-18.64 c -0.31,-1.32 -0.9,-2.37 -3.62,-2.48 -0.25,0 -0.74,-0.03 -0.74,-0.74 0,-0.37 0.28,-0.51 0.52,-0.51 1.15,0 2.44,0.14 3.62,0.14 0.85,0 2.86,-0.14 3.71,-0.14 0.34,0 0.68,0.17 0.68,0.73 0,0.49 -0.42,0.52 -0.79,0.52 -2.21,0.08 -2.21,0.98 -2.21,1.47 0,0.14 0,0.31 0.14,0.87 l 4.47,17.83 10.18,-20.83 c 0.28,-0.56 0.42,-0.59 0.76,-0.59 0.56,0 0.56,0.11 0.74,0.73 z"
           id="path8526" /><path
           style="fill:#000000;stroke-width:0"
           inkscape:connector-curvature="0"
           d="m 538.1,450.34 -0.03,0 -0.02,0 -0.03,0 -0.02,0 -0.03,0 -0.03,0 -0.02,0 -0.03,-0.01 -0.03,0 -0.03,0 -0.03,-0.01 -0.02,0 -0.03,-0.01 -0.03,-0.01 -0.03,0 -0.02,-0.01 -0.03,-0.01 -0.02,-0.02 -0.02,-0.01 -0.03,-0.01 -0.02,-0.02 -0.02,-0.02 -0.02,-0.02 -0.01,-0.01 0,-0.01 -0.01,-0.01 -0.01,-0.01 -0.01,-0.01 0,-0.02 -0.01,-0.01 -0.01,-0.01 0,-0.02 -0.01,-0.01 0,-0.02 0,-0.01 -0.01,-0.02 0,-0.02 0,-0.02 0,-0.01 0,-0.02 0,-0.02 c 0,-0.17 0.1,-0.28 0.31,-0.53 3,-2.75 6.34,-7.46 6.34,-16.44 0,-7.28 -2.26,-12.8 -6.03,-16.2 -0.58,-0.6 -0.62,-0.63 -0.62,-0.82 0,-0.17 0.1,-0.4 0.45,-0.4 0.42,0 3.73,2.29 6.03,6.65 1.53,2.89 2.55,6.66 2.55,10.74 0,4.9 -1.47,12.53 -8.36,17.42 z"
           id="path8528" /></g>    </g>
    <g
       transform="matrix(0.69051897,0,0,0.69051897,287.17237,1.276022)"
       id="g9496">
      <g
         style="font-style:normal;font-variant:normal;font-weight:normal;font-stretch:normal;letter-spacing:normal;word-spacing:normal;text-anchor:start;fill:none;stroke:#000000;stroke-linecap:butt;stroke-linejoin:miter;stroke-miterlimit:10.43299961;stroke-opacity:1;stroke-dasharray:none;stroke-dashoffset:0"
         id="g9498"
         transform="matrix(0.48520307,0,0,-0.48520307,-84.910538,641.68121)"
         xml:space="preserve"
         stroke-miterlimit="10.433"
         font-style="normal"
         font-variant="normal"
         font-weight="normal"
         font-stretch="normal"
         font-size-adjust="none"
         letter-spacing="normal"
         word-spacing="normal"><path
           style="fill:#000000;stroke-width:0"
           inkscape:connector-curvature="0"
           d="m 472.96,409 0.05,-0.19 0.06,-0.19 0.07,-0.18 0.08,-0.18 0.08,-0.17 0.09,-0.16 0.09,-0.16 0.1,-0.16 0.11,-0.15 0.11,-0.15 0.11,-0.14 0.13,-0.13 0.12,-0.13 0.14,-0.12 0.14,-0.12 0.14,-0.11 0.15,-0.11 0.15,-0.1 0.15,-0.09 0.16,-0.09 0.17,-0.08 0.17,-0.07 0.17,-0.07 0.18,-0.06 0.17,-0.06 0.19,-0.04 0.18,-0.05 0.19,-0.03 0.19,-0.02 0.2,-0.02 0.2,-0.01 0.19,-0.01 c 1.74,0 2.9,1.14 3.69,2.74 0.85,1.79 1.49,4.84 1.49,4.93 0,0.5 -0.44,0.5 -0.6,0.5 -0.5,0 -0.54,-0.2 -0.7,-0.9 -0.69,-2.78 -1.64,-6.17 -3.73,-6.17 -1.05,0 -1.54,0.65 -1.54,2.29 0,1.1 0.6,3.44 0.99,5.17 l 1.4,5.4 c 0.15,0.75 0.65,2.64 0.85,3.39 0.25,1.14 0.75,3.03 0.75,3.32 0,0.91 -0.7,1.35 -1.45,1.35 -0.25,0 -1.55,-0.05 -1.94,-1.74 -0.96,-3.64 -3.14,-12.36 -3.74,-15 -0.06,-0.2 -2.04,-4.18 -5.68,-4.18 -2.6,0 -3.1,2.25 -3.1,4.09 0,2.78 1.41,6.72 2.71,10.16 0.59,1.5 0.84,2.18 0.84,3.14 0,2.23 -1.59,4.07 -4.09,4.07 -4.74,0 -6.58,-7.21 -6.58,-7.67 0,-0.5 0.5,-0.5 0.61,-0.5 0.5,0 0.54,0.11 0.79,0.91 1.24,4.33 3.14,6.17 5.03,6.17 0.44,0 1.25,-0.05 1.25,-1.64 0,-1.2 -0.56,-2.64 -0.85,-3.39 -1.85,-4.94 -2.9,-8.02 -2.9,-10.45 0,-4.74 3.44,-5.99 6.15,-5.99 3.28,0 5.07,2.24 5.92,3.35 z"
           id="path9500" /><path
           style="fill:#000000;stroke-width:0"
           inkscape:connector-curvature="0"
           d="m 496.45,450.34 -0.6,-0.45 -0.58,-0.46 -0.55,-0.47 -0.53,-0.49 -0.5,-0.5 -0.47,-0.51 -0.45,-0.53 -0.42,-0.53 -0.4,-0.54 -0.38,-0.55 -0.35,-0.56 -0.33,-0.56 -0.31,-0.57 -0.28,-0.57 -0.27,-0.58 -0.25,-0.58 -0.23,-0.58 -0.21,-0.58 -0.19,-0.59 -0.17,-0.58 -0.15,-0.58 -0.14,-0.58 -0.13,-0.57 -0.11,-0.57 -0.09,-0.57 -0.08,-0.56 -0.06,-0.55 -0.05,-0.55 -0.04,-0.53 -0.03,-0.53 -0.02,-0.52 0,-0.5 c 0,-4.92 1.47,-12.55 8.37,-17.42 0.28,0 0.69,0 0.69,0.4 0,0.22 -0.09,0.28 -0.34,0.53 -4.64,4.19 -6.35,10.11 -6.35,16.46 0,9.4 3.6,14 6.46,16.58 0.14,0.14 0.23,0.25 0.23,0.42 0,0.42 -0.41,0.42 -0.69,0.42 z"
           id="path9502" /><path
           style="fill:#000000;stroke-width:0"
           inkscape:connector-curvature="0"
           d="m 510.97,445.98 0,0.05 0,0.06 -0.01,0.05 -0.01,0.05 -0.01,0.06 -0.01,0.06 -0.02,0.05 -0.02,0.06 -0.02,0.05 -0.02,0.06 -0.03,0.06 -0.03,0.05 -0.04,0.05 -0.03,0.06 -0.04,0.05 -0.04,0.05 -0.05,0.05 -0.04,0.05 -0.05,0.04 -0.06,0.04 -0.05,0.04 -0.06,0.04 -0.06,0.04 -0.07,0.03 -0.07,0.03 -0.07,0.02 -0.07,0.03 -0.08,0.01 -0.08,0.02 -0.09,0.01 -0.08,0.01 -0.09,0 c -0.94,0 -1.96,-0.91 -1.96,-1.92 0,-0.6 0.46,-1.33 1.41,-1.33 1,0 1.95,0.98 1.95,1.92 z"
           id="path9504" /><path
           style="fill:#000000;stroke-width:0"
           inkscape:connector-curvature="0"
           d="m 503.86,428.28 -0.05,-0.17 -0.05,-0.17 -0.03,-0.08 -0.03,-0.09 -0.02,-0.09 -0.03,-0.08 -0.02,-0.09 -0.02,-0.1 -0.01,-0.09 -0.02,-0.1 -0.01,-0.09 -0.01,-0.05 0,-0.06 0,-0.05 -0.01,-0.05 0,-0.06 0,-0.05 c 0,-1.64 1.39,-2.95 3.3,-2.95 3.48,0 5.03,4.79 5.03,5.32 0,0.46 -0.45,0.46 -0.56,0.46 -0.49,0 -0.53,-0.21 -0.68,-0.6 -0.79,-2.78 -2.32,-4.22 -3.68,-4.22 -0.71,0 -0.88,0.46 -0.88,1.22 0,0.8 0.25,1.47 0.56,2.24 0.35,0.93 0.74,1.87 1.11,2.78 0.32,0.84 1.58,4.01 1.72,4.44 0.1,0.34 0.21,0.76 0.21,1.11 0,1.64 -1.39,2.95 -3.32,2.95 -3.45,0 -5.04,-4.74 -5.04,-5.33 0,-0.45 0.48,-0.45 0.59,-0.45 0.48,0 0.52,0.17 0.63,0.56 0.9,3 2.43,4.25 3.71,4.25 0.57,0 0.88,-0.28 0.88,-1.22 0,-0.8 -0.2,-1.33 -1.08,-3.48 z"
           id="path9506" /><path
           style="fill:#000000;stroke-width:0"
           inkscape:connector-curvature="0"
           d="m 516.85,450.34 -0.02,0 -0.02,0 -0.03,0 -0.03,0 -0.02,0 -0.03,0 -0.03,0 -0.03,-0.01 -0.02,0 -0.03,0 -0.03,-0.01 -0.03,0 -0.02,-0.01 -0.03,-0.01 -0.03,0 -0.02,-0.01 -0.03,-0.01 -0.02,-0.02 -0.03,-0.01 -0.02,-0.01 -0.02,-0.02 -0.02,-0.02 -0.02,-0.02 -0.01,-0.01 -0.01,-0.01 0,-0.01 -0.01,-0.01 -0.01,-0.01 -0.01,-0.02 0,-0.01 -0.01,-0.01 0,-0.02 -0.01,-0.01 0,-0.02 -0.01,-0.01 0,-0.02 0,-0.02 0,-0.02 0,-0.01 -0.01,-0.02 0,-0.02 c 0,-0.17 0.11,-0.28 0.32,-0.53 3,-2.75 6.34,-7.46 6.34,-16.44 0,-7.28 -2.27,-12.8 -6.03,-16.2 -0.58,-0.6 -0.63,-0.63 -0.63,-0.82 0,-0.17 0.11,-0.4 0.46,-0.4 0.42,0 3.73,2.29 6.03,6.65 1.53,2.89 2.55,6.66 2.55,10.74 0,4.9 -1.47,12.53 -8.37,17.42 z"
           id="path9508" /></g>    </g>
    <rect
       style="fill:#000000;fill-opacity:1;stroke:none"
       id="rect3789-8-7"
       width="6.625"
       height="6.625"
       x="269.11349"
       y="285.20969"
       ry="1.9322722" />
    <rect
       style="fill:#000000;fill-opacity:1;stroke:none"
       id="rect3789-8-8"
       width="6.625"
       height="6.625"
       x="484.42752"
       y="285.20969"
       ry="1.9322722" />
    <path
       style="fill:none;stroke:#000000;stroke-width:1px;stroke-linecap:butt;stroke-linejoin:miter;stroke-opacity:1;marker-end:url(#TriangleOutM-9)"
       d="M 378.38863,201.05446 277.21879,284.86382"
       id="path9928"
       inkscape:connector-curvature="0"
       sodipodi:nodetypes="cc" />
    <path
       style="fill:none;stroke:#000000;stroke-width:1;stroke-linecap:butt;stroke-linejoin:miter;stroke-miterlimit:4;stroke-opacity:1;stroke-dasharray:none;marker-end:url(#TriangleOutM-9)"
       d="m 377.90943,200.83728 104.93436,83.27654"
       id="path10132"
       inkscape:connector-curvature="0"
       sodipodi:nodetypes="cc" />
    <path
       style="fill:none;stroke:#000000;stroke-width:1px;stroke-linecap:butt;stroke-linejoin:miter;stroke-opacity:1;marker-end:url(#TriangleOutM-9)"
       d="m 378.26345,201.51401 12.60292,81.17451"
       id="path10338"
       inkscape:connector-curvature="0"
       sodipodi:nodetypes="cc" />
    <path
       style="fill:none;stroke:#000000;stroke-width:1;stroke-linecap:butt;stroke-linejoin:miter;stroke-miterlimit:4;stroke-opacity:0.47058824;stroke-dasharray:1, 3;stroke-dashoffset:0"
       d="m 289.28556,302.48882 85.86645,0"
       id="path10542"
       inkscape:connector-curvature="0" />
    <path
       style="fill:none;stroke:#000000;stroke-width:1;stroke-linecap:butt;stroke-linejoin:miter;stroke-miterlimit:4;stroke-opacity:0.47058824;stroke-dasharray:1, 3;stroke-dashoffset:0"
       d="m 409.13019,302.52803 59.34949,0"
       id="path10542-6"
       inkscape:connector-curvature="0" />
    <g
       id="g11229"
       transform="translate(14.142136,-30.405591)">
      <path
         inkscape:transform-center-y="12.579503"
         inkscape:transform-center-x="-3.0255903"
         transform="matrix(-0.30519134,0.01103701,-0.01103701,-0.30519134,422.78537,340.19794)"
         d="M 240,-170.35785 153.39745,-31.793781 76.698728,-176.07582 1.034831e-7,-320.35786 163.30127,-314.63988 l 163.30128,5.71797 z"
         inkscape:randomized="0"
         inkscape:rounded="0"
         inkscape:flatsided="false"
         sodipodi:arg2="1.6057969"
         sodipodi:arg1="0.55859932"
         sodipodi:r2="188.67963"
         sodipodi:r1="94.339813"
         sodipodi:cy="-220.35785"
         sodipodi:cx="160"
         sodipodi:sides="3"
         id="path5637-9"
         style="fill:url(#linearGradient11260);fill-opacity:1;stroke:none"
         sodipodi:type="star" />
      <g
         id="g8754"
         transform="matrix(0.6721311,0,0,0.6721311,217.29076,161.28162)">
        <g
           id="g8756"
           transform="matrix(0.48520307,0,0,-0.48520307,-84.910538,641.68121)"
           xml:space="preserve"
           stroke-miterlimit="10.433"
           font-style="normal"
           font-variant="normal"
           font-weight="normal"
           font-stretch="normal"
           font-size-adjust="none"
           letter-spacing="normal"
           word-spacing="normal"
           style="font-style:normal;font-variant:normal;font-weight:normal;font-stretch:normal;letter-spacing:normal;word-spacing:normal;text-anchor:start;fill:none;stroke:#000000;stroke-linecap:butt;stroke-linejoin:miter;stroke-miterlimit:10.43299961;stroke-opacity:1;stroke-dasharray:none;stroke-dashoffset:0"><path
             d="m 479.74,425.18 0.01,0.04 0.01,0.03 0.01,0.06 0.02,0.05 0.01,0.06 0.01,0.05 0.02,0.04 0.01,0.05 0.01,0.04 0.01,0.04 0,0.04 0.01,0.04 0.01,0.04 0.01,0.03 0,0.03 0.01,0.03 0,0.03 0.01,0.03 0,0.03 0.01,0.05 0,0.06 0,0.05 0,0.05 0.01,0.05 0,0.03 0,0.03 0,0.03 0,0.03 c 0,0.91 -0.69,1.35 -1.44,1.35 -0.5,0 -1.3,-0.3 -1.75,-1.05 -0.1,-0.25 -0.5,-1.78 -0.69,-2.69 -0.36,-1.29 -0.7,-2.64 -1,-3.98 l -2.25,-8.97 c -0.19,-0.75 -2.33,-4.23 -5.62,-4.23 -2.54,0 -3.1,2.18 -3.1,4.03 0,2.29 0.86,5.39 2.55,9.76 0.8,2.05 1,2.6 1,3.6 0,2.23 -1.59,4.07 -4.09,4.07 -4.74,0 -6.58,-7.21 -6.58,-7.67 0,-0.5 0.5,-0.5 0.61,-0.5 0.5,0 0.54,0.11 0.79,0.91 1.35,4.69 3.33,6.17 5.03,6.17 0.4,0 1.25,0 1.25,-1.59 0,-1.25 -0.5,-2.53 -0.85,-3.49 -1.99,-5.28 -2.9,-8.12 -2.9,-10.47 0,-4.42 3.15,-5.92 6.08,-5.92 1.96,0 3.64,0.85 5.03,2.24 -0.64,-2.58 -1.23,-5.03 -3.23,-7.68 -1.3,-1.68 -3.19,-3.14 -5.48,-3.14 -0.69,0 -2.94,0.16 -3.79,2.1 0.8,0 1.46,0 2.14,0.61 0.5,0.43 1,1.09 1,2.03 0,1.55 -1.34,1.75 -1.84,1.75 -1.14,0 -2.8,-0.8 -2.8,-3.24 0,-2.5 2.21,-4.34 5.29,-4.34 5.14,0 10.26,4.55 11.67,10.17 z"
             id="path8758"
             inkscape:connector-curvature="0"
             style="fill:#000000;stroke-width:0" /><path
             d="m 494.18,450.34 -0.61,-0.45 -0.58,-0.46 -0.55,-0.47 -0.53,-0.49 -0.49,-0.5 -0.48,-0.51 -0.44,-0.53 -0.43,-0.53 -0.4,-0.54 -0.37,-0.55 -0.35,-0.56 -0.34,-0.56 -0.3,-0.57 -0.29,-0.57 -0.27,-0.58 -0.25,-0.58 -0.22,-0.58 -0.21,-0.58 -0.19,-0.59 -0.18,-0.58 -0.15,-0.58 -0.14,-0.58 -0.12,-0.57 -0.11,-0.57 -0.1,-0.57 -0.07,-0.56 -0.07,-0.55 -0.05,-0.55 -0.04,-0.53 -0.03,-0.53 -0.01,-0.52 -0.01,-0.5 c 0,-4.92 1.47,-12.55 8.38,-17.42 0.28,0 0.68,0 0.68,0.4 0,0.22 -0.09,0.28 -0.34,0.53 -4.64,4.19 -6.34,10.11 -6.34,16.46 0,9.4 3.59,14 6.45,16.58 0.14,0.14 0.23,0.25 0.23,0.42 0,0.42 -0.4,0.42 -0.68,0.42 z"
             id="path8760"
             inkscape:connector-curvature="0"
             style="fill:#000000;stroke-width:0" /><path
             d="m 509.07,446.36 0,0.04 0,0.04 0,0.04 0,0.04 0,0.04 0,0.04 0,0.04 0,0.03 -0.01,0.04 0,0.03 0,0.03 0,0.03 0,0.03 -0.01,0.03 0,0.03 -0.01,0.02 0,0.03 0,0.02 -0.01,0.02 0,0.03 -0.02,0.04 -0.01,0.04 -0.02,0.03 -0.02,0.03 -0.02,0.03 -0.02,0.03 -0.03,0.02 -0.03,0.02 -0.04,0.01 -0.03,0.02 -0.04,0.01 -0.05,0.01 -0.02,0.01 -0.03,0 -0.02,0.01 -0.03,0 -0.03,0 -0.02,0.01 -0.03,0 -0.03,0 -0.04,0 -0.03,0 -0.03,0.01 -0.04,0 -0.04,0 -0.03,0 -0.04,0 -0.04,0 -0.04,0 -0.05,0 -0.04,0 -0.05,0 c -2.23,-2.2 -5.39,-2.23 -6.82,-2.23 v -1.25 c 0.84,0 3.14,0 5.04,0.96 v -17.76 c 0,-1.16 0,-1.61 -3.48,-1.61 h -1.31 v -1.25 c 0.62,0.03 4.9,0.14 6.2,0.14 1.08,0 5.47,-0.11 6.23,-0.14 v 1.25 h -1.33 c -3.48,0 -3.48,0.45 -3.48,1.61 z"
             id="path8762"
             inkscape:connector-curvature="0"
             style="fill:#000000;stroke-width:0" /><path
             d="m 520.34,450.34 -0.03,0 -0.02,0 -0.03,0 -0.02,0 -0.03,0 -0.03,0 -0.03,0 -0.02,-0.01 -0.03,0 -0.03,0 -0.03,-0.01 -0.03,0 -0.02,-0.01 -0.03,-0.01 -0.03,0 -0.02,-0.01 -0.03,-0.01 -0.02,-0.02 -0.03,-0.01 -0.02,-0.01 -0.02,-0.02 -0.02,-0.02 -0.02,-0.02 -0.01,-0.01 -0.01,-0.01 0,-0.01 -0.01,-0.01 -0.01,-0.01 -0.01,-0.02 0,-0.01 -0.01,-0.01 0,-0.02 -0.01,-0.01 0,-0.02 -0.01,-0.01 0,-0.02 0,-0.02 0,-0.02 0,-0.01 -0.01,-0.02 0,-0.02 c 0,-0.17 0.11,-0.28 0.32,-0.53 3,-2.75 6.34,-7.46 6.34,-16.44 0,-7.28 -2.27,-12.8 -6.03,-16.2 -0.58,-0.6 -0.63,-0.63 -0.63,-0.82 0,-0.17 0.11,-0.4 0.46,-0.4 0.42,0 3.73,2.29 6.03,6.65 1.53,2.89 2.55,6.66 2.55,10.74 0,4.9 -1.47,12.53 -8.36,17.42 z"
             id="path8764"
             inkscape:connector-curvature="0"
             style="fill:#000000;stroke-width:0" /></g>      </g>
      <g
         id="g9002"
         transform="matrix(0.65726987,0,0,0.65726987,317.23453,167.58973)">
        <g
           word-spacing="normal"
           letter-spacing="normal"
           font-size-adjust="none"
           font-stretch="normal"
           font-weight="normal"
           font-variant="normal"
           font-style="normal"
           stroke-miterlimit="10.433"
           xml:space="preserve"
           transform="matrix(0.48520307,0,0,-0.48520307,-84.910538,641.68121)"
           id="g9004"
           style="font-style:normal;font-variant:normal;font-weight:normal;font-stretch:normal;letter-spacing:normal;word-spacing:normal;text-anchor:start;fill:none;stroke:#000000;stroke-linecap:butt;stroke-linejoin:miter;stroke-miterlimit:10.43299961;stroke-opacity:1;stroke-dasharray:none;stroke-dashoffset:0"><path
             id="path9006"
             d="m 479.74,425.18 0.01,0.04 0.01,0.03 0.01,0.06 0.02,0.05 0.01,0.06 0.01,0.05 0.02,0.04 0.01,0.05 0.01,0.04 0.01,0.04 0,0.04 0.01,0.04 0.01,0.04 0.01,0.03 0,0.03 0.01,0.03 0,0.03 0.01,0.03 0,0.03 0.01,0.05 0,0.06 0,0.05 0,0.05 0.01,0.05 0,0.03 0,0.03 0,0.03 0,0.03 c 0,0.91 -0.69,1.35 -1.44,1.35 -0.5,0 -1.3,-0.3 -1.75,-1.05 -0.1,-0.25 -0.5,-1.78 -0.69,-2.69 -0.36,-1.29 -0.7,-2.64 -1,-3.98 l -2.25,-8.97 c -0.19,-0.75 -2.33,-4.23 -5.62,-4.23 -2.54,0 -3.1,2.18 -3.1,4.03 0,2.29 0.86,5.39 2.55,9.76 0.8,2.05 1,2.6 1,3.6 0,2.23 -1.59,4.07 -4.09,4.07 -4.74,0 -6.58,-7.21 -6.58,-7.67 0,-0.5 0.5,-0.5 0.61,-0.5 0.5,0 0.54,0.11 0.79,0.91 1.35,4.69 3.33,6.17 5.03,6.17 0.4,0 1.25,0 1.25,-1.59 0,-1.25 -0.5,-2.53 -0.85,-3.49 -1.99,-5.28 -2.9,-8.12 -2.9,-10.47 0,-4.42 3.15,-5.92 6.08,-5.92 1.96,0 3.64,0.85 5.03,2.24 -0.64,-2.58 -1.23,-5.03 -3.23,-7.68 -1.3,-1.68 -3.19,-3.14 -5.48,-3.14 -0.69,0 -2.94,0.16 -3.79,2.1 0.8,0 1.46,0 2.14,0.61 0.5,0.43 1,1.09 1,2.03 0,1.55 -1.34,1.75 -1.84,1.75 -1.14,0 -2.8,-0.8 -2.8,-3.24 0,-2.5 2.21,-4.34 5.29,-4.34 5.14,0 10.26,4.55 11.67,10.17 z"
             inkscape:connector-curvature="0"
             style="fill:#000000;stroke-width:0" /><path
             id="path9008"
             d="m 494.18,450.34 -0.61,-0.45 -0.58,-0.46 -0.55,-0.47 -0.53,-0.49 -0.49,-0.5 -0.48,-0.51 -0.44,-0.53 -0.43,-0.53 -0.4,-0.54 -0.37,-0.55 -0.35,-0.56 -0.34,-0.56 -0.3,-0.57 -0.29,-0.57 -0.27,-0.58 -0.25,-0.58 -0.22,-0.58 -0.21,-0.58 -0.19,-0.59 -0.18,-0.58 -0.15,-0.58 -0.14,-0.58 -0.12,-0.57 -0.11,-0.57 -0.1,-0.57 -0.07,-0.56 -0.07,-0.55 -0.05,-0.55 -0.04,-0.53 -0.03,-0.53 -0.01,-0.52 -0.01,-0.5 c 0,-4.92 1.47,-12.55 8.38,-17.42 0.28,0 0.68,0 0.68,0.4 0,0.22 -0.09,0.28 -0.34,0.53 -4.64,4.19 -6.34,10.11 -6.34,16.46 0,9.4 3.59,14 6.45,16.58 0.14,0.14 0.23,0.25 0.23,0.42 0,0.42 -0.4,0.42 -0.68,0.42 z"
             inkscape:connector-curvature="0"
             style="fill:#000000;stroke-width:0" /><path
             id="path9010"
             d="m 532.98,445.17 0.03,0.12 0.02,0.11 0.03,0.11 0.03,0.1 0.03,0.09 0.02,0.1 0.03,0.08 0.04,0.08 0.03,0.08 0.04,0.07 0.04,0.07 0.05,0.06 0.05,0.05 0.05,0.06 0.07,0.05 0.06,0.04 0.08,0.05 0.08,0.03 0.09,0.04 0.1,0.03 0.1,0.03 0.06,0.01 0.06,0.01 0.06,0.01 0.06,0.01 0.07,0.01 0.06,0.01 0.08,0.01 0.07,0.01 0.08,0.01 0.08,0 0.08,0.01 0.09,0 0.08,0.01 0.1,0 0.09,0 0.1,0.01 0.1,0 0.11,0 0.1,0 0.12,0.01 0.11,0 0.12,0 c 0.73,0 1.19,0 1.19,0.73 0,0.52 -0.42,0.52 -1.05,0.52 h -4.73 c -1.02,0 -1.05,-0.04 -1.5,-0.69 l -13.46,-19.88 -3.43,19.63 c -0.19,0.9 -0.19,0.94 -1.22,0.94 h -4.99 c -0.7,0 -1.15,0 -1.15,-0.77 0,-0.48 0.42,-0.48 1.18,-0.48 0.57,0 0.69,0 1.33,-0.08 0.69,-0.06 0.77,-0.14 0.77,-0.49 0,-0.03 0,-0.23 -0.14,-0.76 l -4.39,-17.49 c -0.32,-1.18 -0.85,-2.37 -3.63,-2.48 -0.28,0 -0.73,-0.03 -0.73,-0.77 0,-0.03 0.03,-0.48 0.51,-0.48 1.05,0 2.52,0.14 3.63,0.14 0.84,0 2.86,-0.14 3.7,-0.14 0.17,0 0.69,0 0.69,0.76 0,0.46 -0.46,0.49 -0.77,0.49 -2.22,0.08 -2.22,0.98 -2.22,1.47 0,0.14 0,0.31 0.14,0.87 l 4.63,18.53 h 0.03 l 3.73,-21.18 c 0.11,-0.63 0.18,-0.94 0.71,-0.94 0.48,0 0.76,0.39 1,0.76 l 14.64,21.71 0.03,-0.03 -4.91,-19.72 c -0.28,-1.19 -0.36,-1.47 -3.07,-1.47 -0.63,0 -1.05,0 -1.05,-0.77 0,-0.03 0,-0.48 0.56,-0.48 0.67,0 1.47,0.11 2.16,0.11 0.7,0 1.5,0.03 2.2,0.03 0.97,0 3.45,-0.14 4.42,-0.14 0.22,0 0.74,0 0.74,0.76 0,0.49 -0.43,0.49 -1.11,0.49 -0.05,0 -0.71,0 -1.33,0.08 -0.8,0.06 -0.8,0.17 -0.8,0.51 0,0.22 0.1,0.57 0.14,0.77 z"
             inkscape:connector-curvature="0"
             style="fill:#000000;stroke-width:0" /><path
             id="path9012"
             d="m 542.3,450.34 -0.03,0 -0.02,0 -0.03,0 -0.02,0 -0.03,0 -0.03,0 -0.03,0 -0.02,-0.01 -0.03,0 -0.03,0 -0.03,-0.01 -0.03,0 -0.02,-0.01 -0.03,-0.01 -0.03,0 -0.02,-0.01 -0.03,-0.01 -0.02,-0.02 -0.03,-0.01 -0.02,-0.01 -0.02,-0.02 -0.02,-0.02 -0.02,-0.02 -0.01,-0.01 -0.01,-0.01 0,-0.01 -0.01,-0.01 -0.01,-0.01 0,-0.02 -0.01,-0.01 -0.01,-0.01 0,-0.02 -0.01,-0.01 0,-0.02 0,-0.01 -0.01,-0.02 0,-0.02 0,-0.02 0,-0.01 0,-0.02 -0.01,-0.02 c 0,-0.17 0.11,-0.28 0.32,-0.53 3,-2.75 6.34,-7.46 6.34,-16.44 0,-7.28 -2.26,-12.8 -6.03,-16.2 -0.58,-0.6 -0.63,-0.63 -0.63,-0.82 0,-0.17 0.11,-0.4 0.46,-0.4 0.42,0 3.73,2.29 6.03,6.65 1.53,2.89 2.55,6.66 2.55,10.74 0,4.9 -1.47,12.53 -8.36,17.42 z"
             inkscape:connector-curvature="0"
             style="fill:#000000;stroke-width:0" /></g>      </g>
      <path
         transform="translate(-22.935645,265.62771)"
         d="m 351.375,175.76715 c 0,1.51878 -1.23122,2.75 -2.75,2.75 -1.51878,0 -2.75,-1.23122 -2.75,-2.75 0,-1.51878 1.23122,-2.75 2.75,-2.75 1.51878,0 2.75,1.23122 2.75,2.75 z"
         sodipodi:ry="2.75"
         sodipodi:rx="2.75"
         sodipodi:cy="175.76715"
         sodipodi:cx="348.625"
         id="path10564"
         style="fill:#000000;fill-opacity:1;stroke:#000000;stroke-width:1;stroke-linejoin:miter;stroke-miterlimit:4;stroke-opacity:1;stroke-dasharray:none;stroke-dashoffset:0"
         sodipodi:type="arc" />
      <path
         transform="translate(78.873226,265.62771)"
         d="m 351.375,175.76715 c 0,1.51878 -1.23122,2.75 -2.75,2.75 -1.51878,0 -2.75,-1.23122 -2.75,-2.75 0,-1.51878 1.23122,-2.75 2.75,-2.75 1.51878,0 2.75,1.23122 2.75,2.75 z"
         sodipodi:ry="2.75"
         sodipodi:rx="2.75"
         sodipodi:cy="175.76715"
         sodipodi:cx="348.625"
         id="path10564-2"
         style="fill:#000000;fill-opacity:1;stroke:#000000;stroke-width:1;stroke-linejoin:miter;stroke-miterlimit:4;stroke-opacity:1;stroke-dasharray:none;stroke-dashoffset:0"
         sodipodi:type="arc" />
      <g
         transform="translate(8,0)"
         id="g10599">
        <g
           id="g9758"
           transform="matrix(0.67207439,0,0,0.67207439,246.86479,161.30637)">
          <g
             word-spacing="normal"
             letter-spacing="normal"
             font-size-adjust="none"
             font-stretch="normal"
             font-weight="normal"
             font-variant="normal"
             font-style="normal"
             stroke-miterlimit="10.433"
             xml:space="preserve"
             transform="matrix(0.48520307,0,0,-0.48520307,-84.910538,641.68121)"
             id="g9760"
             style="font-style:normal;font-variant:normal;font-weight:normal;font-stretch:normal;letter-spacing:normal;word-spacing:normal;text-anchor:start;fill:none;stroke:#000000;stroke-linecap:butt;stroke-linejoin:miter;stroke-miterlimit:10.43299961;stroke-opacity:1;stroke-dasharray:none;stroke-dashoffset:0"><path
               id="path9762"
               d="m 479.74,425.18 0.01,0.04 0.01,0.03 0.01,0.06 0.02,0.05 0.01,0.06 0.01,0.05 0.02,0.04 0.01,0.05 0.01,0.04 0.01,0.04 0,0.04 0.01,0.04 0.01,0.04 0.01,0.03 0,0.03 0.01,0.03 0,0.03 0.01,0.03 0,0.03 0.01,0.05 0,0.06 0,0.05 0,0.05 0.01,0.05 0,0.03 0,0.03 0,0.03 0,0.03 c 0,0.91 -0.69,1.35 -1.44,1.35 -0.5,0 -1.3,-0.3 -1.75,-1.05 -0.1,-0.25 -0.5,-1.78 -0.69,-2.69 -0.36,-1.29 -0.7,-2.64 -1,-3.98 l -2.25,-8.97 c -0.19,-0.75 -2.33,-4.23 -5.62,-4.23 -2.54,0 -3.1,2.18 -3.1,4.03 0,2.29 0.86,5.39 2.55,9.76 0.8,2.05 1,2.6 1,3.6 0,2.23 -1.59,4.07 -4.09,4.07 -4.74,0 -6.58,-7.21 -6.58,-7.67 0,-0.5 0.5,-0.5 0.61,-0.5 0.5,0 0.54,0.11 0.79,0.91 1.35,4.69 3.33,6.17 5.03,6.17 0.4,0 1.25,0 1.25,-1.59 0,-1.25 -0.5,-2.53 -0.85,-3.49 -1.99,-5.28 -2.9,-8.12 -2.9,-10.47 0,-4.42 3.15,-5.92 6.08,-5.92 1.96,0 3.64,0.85 5.03,2.24 -0.64,-2.58 -1.23,-5.03 -3.23,-7.68 -1.3,-1.68 -3.19,-3.14 -5.48,-3.14 -0.69,0 -2.94,0.16 -3.79,2.1 0.8,0 1.46,0 2.14,0.61 0.5,0.43 1,1.09 1,2.03 0,1.55 -1.34,1.75 -1.84,1.75 -1.14,0 -2.8,-0.8 -2.8,-3.24 0,-2.5 2.21,-4.34 5.29,-4.34 5.14,0 10.26,4.55 11.67,10.17 z"
               inkscape:connector-curvature="0"
               style="fill:#000000;stroke-width:0" /><path
               id="path9764"
               d="m 494.18,450.34 -0.61,-0.45 -0.58,-0.46 -0.55,-0.47 -0.53,-0.49 -0.49,-0.5 -0.48,-0.51 -0.44,-0.53 -0.43,-0.53 -0.4,-0.54 -0.37,-0.55 -0.35,-0.56 -0.34,-0.56 -0.3,-0.57 -0.29,-0.57 -0.27,-0.58 -0.25,-0.58 -0.22,-0.58 -0.21,-0.58 -0.19,-0.59 -0.18,-0.58 -0.15,-0.58 -0.14,-0.58 -0.12,-0.57 -0.11,-0.57 -0.1,-0.57 -0.07,-0.56 -0.07,-0.55 -0.05,-0.55 -0.04,-0.53 -0.03,-0.53 -0.01,-0.52 -0.01,-0.5 c 0,-4.92 1.47,-12.55 8.38,-17.42 0.28,0 0.68,0 0.68,0.4 0,0.22 -0.09,0.28 -0.34,0.53 -4.64,4.19 -6.34,10.11 -6.34,16.46 0,9.4 3.59,14 6.45,16.58 0.14,0.14 0.23,0.25 0.23,0.42 0,0.42 -0.4,0.42 -0.68,0.42 z"
               inkscape:connector-curvature="0"
               style="fill:#000000;stroke-width:0" /><path
               id="path9766"
               d="m 512.7,445.98 -0.01,0.06 0,0.05 -0.01,0.06 -0.01,0.06 -0.01,0.06 -0.01,0.05 -0.02,0.06 -0.02,0.06 -0.02,0.06 -0.03,0.05 -0.03,0.06 -0.03,0.05 -0.03,0.06 -0.04,0.05 -0.04,0.05 -0.04,0.05 -0.04,0.04 -0.05,0.05 -0.05,0.04 -0.05,0.05 -0.06,0.03 -0.06,0.04 -0.06,0.03 -0.06,0.03 -0.07,0.03 -0.07,0.03 -0.07,0.02 -0.08,0.02 -0.07,0.01 -0.08,0.01 -0.09,0.01 -0.09,0 c -1.01,0 -1.95,-0.99 -1.95,-1.92 0,-0.57 0.42,-1.33 1.39,-1.33 0.94,0 1.96,0.9 1.96,1.92 z"
               inkscape:connector-curvature="0"
               style="fill:#000000;stroke-width:0" /><path
               id="path9768"
               d="m 505.3,422.5 -0.05,-0.23 -0.07,-0.22 -0.07,-0.22 -0.08,-0.21 -0.09,-0.22 -0.09,-0.21 -0.1,-0.2 -0.11,-0.2 -0.11,-0.2 -0.12,-0.19 -0.12,-0.18 -0.13,-0.18 -0.13,-0.17 -0.13,-0.17 -0.15,-0.16 -0.14,-0.16 -0.15,-0.14 -0.16,-0.14 -0.16,-0.14 -0.16,-0.12 -0.16,-0.12 -0.17,-0.1 -0.17,-0.1 -0.18,-0.09 -0.18,-0.08 -0.18,-0.07 -0.18,-0.06 -0.18,-0.05 -0.19,-0.04 -0.19,-0.03 -0.19,-0.02 -0.19,-0.01 c -0.45,0 -0.87,0.07 -1.27,0.21 0.91,0.42 1.19,1.25 1.19,1.78 0,0.83 -0.65,1.28 -1.36,1.28 -1.08,0 -1.98,-0.94 -1.98,-2.05 0,-1.33 1.36,-2.2 3.45,-2.2 2.1,0 6.16,1.25 7.25,5.5 l 3.13,12.48 c 0.11,0.38 0.17,0.69 0.17,1.22 0,1.91 -1.63,3.27 -3.72,3.27 -3.88,0 -6.09,-4.85 -6.09,-5.33 0,-0.45 0.48,-0.45 0.59,-0.45 0.41,0 0.45,0.11 0.69,0.62 0.87,2.03 2.68,4.19 4.7,4.19 0.88,0 1.19,-0.59 1.19,-1.7 0,-0.39 -0.06,-0.88 -0.11,-1.05 z"
               inkscape:connector-curvature="0"
               style="fill:#000000;stroke-width:0" /><path
               id="path9770"
               d="m 519.02,450.34 -0.03,0 -0.02,0 -0.03,0 -0.02,0 -0.03,0 -0.03,0 -0.03,0 -0.02,-0.01 -0.03,0 -0.03,0 -0.03,-0.01 -0.03,0 -0.02,-0.01 -0.03,-0.01 -0.03,0 -0.02,-0.01 -0.03,-0.01 -0.02,-0.02 -0.03,-0.01 -0.02,-0.01 -0.02,-0.02 -0.02,-0.02 -0.02,-0.02 -0.01,-0.01 -0.01,-0.01 0,-0.01 -0.01,-0.01 -0.01,-0.01 -0.01,-0.02 0,-0.01 -0.01,-0.01 0,-0.02 -0.01,-0.01 0,-0.02 -0.01,-0.01 0,-0.02 0,-0.02 0,-0.02 0,-0.01 -0.01,-0.02 0,-0.02 c 0,-0.17 0.11,-0.28 0.32,-0.53 3,-2.75 6.34,-7.46 6.34,-16.44 0,-7.28 -2.27,-12.8 -6.03,-16.2 -0.58,-0.6 -0.63,-0.63 -0.63,-0.82 0,-0.17 0.11,-0.4 0.46,-0.4 0.42,0 3.73,2.29 6.03,6.65 1.53,2.89 2.55,6.66 2.55,10.74 0,4.9 -1.47,12.53 -8.36,17.42 z"
               inkscape:connector-curvature="0"
               style="fill:#000000;stroke-width:0" /></g>        </g>
        <path
           sodipodi:type="arc"
           style="fill:#000000;fill-opacity:1;stroke:#000000;stroke-width:1;stroke-linejoin:miter;stroke-miterlimit:4;stroke-opacity:1;stroke-dasharray:none;stroke-dashoffset:0"
           id="path10564-0"
           sodipodi:cx="348.625"
           sodipodi:cy="175.76715"
           sodipodi:rx="2.75"
           sodipodi:ry="2.75"
           d="m 351.375,175.76715 c 0,1.51878 -1.23122,2.75 -2.75,2.75 -1.51878,0 -2.75,-1.23122 -2.75,-2.75 0,-1.51878 1.23122,-2.75 2.75,-2.75 1.51878,0 2.75,1.23122 2.75,2.75 z"
           transform="translate(6.4357261,265.62771)" />
      </g>
      <path
         sodipodi:nodetypes="cc"
         transform="translate(-93.501773,151.11254)"
         inkscape:connector-curvature="0"
         id="path10609"
         d="m 469.90625,200.78451 -48.46849,84.01707"
         style="fill:none;stroke:#000000;stroke-width:1px;stroke-linecap:butt;stroke-linejoin:miter;stroke-opacity:1;marker-end:url(#TriangleOutM-9)" />
      <path
         sodipodi:nodetypes="cc"
         transform="translate(-93.501773,151.11254)"
         inkscape:connector-curvature="0"
         id="path10817"
         d="m 469.74791,200.90906 48.68993,83.99446"
         style="fill:none;stroke:#000000;stroke-width:1px;stroke-linecap:butt;stroke-linejoin:miter;stroke-opacity:1;marker-end:url(#TriangleOutM-9)" />
      <path
         sodipodi:nodetypes="cc"
         transform="translate(-93.501773,151.11254)"
         inkscape:connector-curvature="0"
         id="path11021"
         d="m 469.8125,201.2359 -12.59153,83.02995"
         style="fill:none;stroke:#000000;stroke-width:1px;stroke-linecap:butt;stroke-linejoin:miter;stroke-opacity:1;marker-end:url(#TriangleOutM-9)" />
      <path
         transform="translate(-93.501773,151.11254)"
         inkscape:connector-curvature="0"
         id="path11225"
         d="m 425.25,306.89215 14.75,0"
         style="fill:none;stroke:#000000;stroke-width:1;stroke-linecap:butt;stroke-linejoin:miter;stroke-miterlimit:4;stroke-opacity:0.58823529;stroke-dasharray:1, 3;stroke-dashoffset:0" />
      <path
         inkscape:connector-curvature="0"
         id="path11227"
         d="m 371.54522,458.00469 35.28101,0"
         style="fill:none;stroke:#000000;stroke-width:1;stroke-linecap:butt;stroke-linejoin:miter;stroke-miterlimit:4;stroke-opacity:0.58823529;stroke-dasharray:1, 3;stroke-dashoffset:0" />
    </g>
    <g
       id="g11368"
       transform="translate(52.75,-25.25)">
      <g
         transform="translate(183.4412,-230.54533)"
         id="g7665">
        <g
           style="font-style:normal;font-variant:normal;font-weight:normal;font-stretch:normal;letter-spacing:normal;word-spacing:normal;text-anchor:start;fill:none;stroke:#000000;stroke-linecap:butt;stroke-linejoin:miter;stroke-miterlimit:10.43299961;stroke-opacity:1;stroke-dasharray:none;stroke-dashoffset:0"
           word-spacing="normal"
           letter-spacing="normal"
           font-size-adjust="none"
           font-stretch="normal"
           font-weight="normal"
           font-variant="normal"
           font-style="normal"
           stroke-miterlimit="10.433"
           xml:space="preserve"
           transform="matrix(0.48520307,0,0,-0.48520307,-84.910538,641.68121)"
           id="g7667"><path
             style="fill:#000000;stroke-width:0"
             inkscape:connector-curvature="0"
             id="path7669"
             d="m 467.43,440.23 0,0 0,0.01 0,0 0,0.01 -0.01,0.02 0,0.01 0,0.02 0,0.02 0,0.02 -0.01,0.02 0,0.02 -0.01,0.02 -0.01,0.02 -0.01,0.03 -0.01,0.02 -0.01,0.03 -0.01,0.02 -0.02,0.03 -0.02,0.02 -0.02,0.02 -0.02,0.03 -0.01,0.01 -0.02,0.01 -0.01,0.01 -0.01,0.01 -0.02,0.01 -0.01,0.01 -0.02,0.01 -0.01,0.01 -0.02,0.01 -0.02,0.01 -0.02,0 -0.02,0.01 -0.02,0.01 -0.02,0 -0.02,0.01 -0.02,0.01 -0.03,0 -0.02,0 -0.03,0.01 -0.02,0 -0.03,0 -0.03,0.01 -0.03,0 -0.02,0 c -1.16,0 -4.79,-0.41 -6.08,-0.5 -0.41,-0.05 -0.96,-0.1 -0.96,-1 0,-0.6 0.46,-0.6 1.21,-0.6 2.39,0 2.48,-0.34 2.48,-0.84 0,-0.36 -0.45,-2.05 -0.7,-3.09 l -4.08,-16.24 c -0.59,-2.5 -0.8,-3.3 -0.8,-5.03 0,-4.73 2.64,-7.83 6.33,-7.83 v 1.1 c -1.7,0 -3.34,1.34 -3.34,5.03 0,0.95 0,1.89 0.79,5.03 l 1.1,4.59 c 0.3,1.1 0.3,1.19 0.75,1.74 2.44,3.23 4.69,3.98 5.98,3.98 1.8,0 3.14,-1.48 3.14,-4.69 0,-2.93 -1.65,-8.65 -2.54,-10.56 -1.64,-3.33 -3.94,-5.12 -5.88,-5.12 v -1.1 c 5.88,0 12,7.42 12,14.6 0,4.53 -2.64,7.96 -6.62,7.96 -2.28,0 -4.33,-1.43 -5.83,-2.98 z" /></g>      </g>
      <path
         transform="matrix(0.46686394,0,0,0.46686394,104.07255,183.78169)"
         d="m 504.5,47.142151 c 0,17.120827 -13.87917,31 -31,31 -17.12083,0 -31,-13.879173 -31,-31 0,-17.120827 13.87917,-31 31,-31 17.12083,0 31,13.879173 31,31 z"
         sodipodi:ry="31"
         sodipodi:rx="31"
         sodipodi:cy="47.142151"
         sodipodi:cx="473.5"
         id="path11297"
         style="fill:none;stroke:#000000;stroke-width:2.14195156;stroke-linejoin:miter;stroke-miterlimit:4;stroke-opacity:1;stroke-dasharray:none;stroke-dashoffset:0"
         sodipodi:type="arc" />
    </g>
    <g
       id="g11374"
       transform="translate(5,1.25)">
      <g
         transform="translate(227.60349,18.315062)"
         id="g7877">
        <g
           style="font-style:normal;font-variant:normal;font-weight:normal;font-stretch:normal;letter-spacing:normal;word-spacing:normal;text-anchor:start;fill:none;stroke:#000000;stroke-linecap:butt;stroke-linejoin:miter;stroke-miterlimit:10.43299961;stroke-opacity:1;stroke-dasharray:none;stroke-dashoffset:0"
           id="g7879"
           transform="matrix(0.48520307,0,0,-0.48520307,-84.910538,641.68121)"
           xml:space="preserve"
           stroke-miterlimit="10.433"
           font-style="normal"
           font-variant="normal"
           font-weight="normal"
           font-stretch="normal"
           font-size-adjust="none"
           letter-spacing="normal"
           word-spacing="normal"><path
             style="fill:#000000;stroke-width:0"
             inkscape:connector-curvature="0"
             d="m 467.43,440.23 0,0 0,0.01 0,0 0,0.01 -0.01,0.02 0,0.01 0,0.02 0,0.02 0,0.02 -0.01,0.02 0,0.02 -0.01,0.02 -0.01,0.02 -0.01,0.03 -0.01,0.02 -0.01,0.03 -0.01,0.02 -0.02,0.03 -0.02,0.02 -0.02,0.02 -0.02,0.03 -0.01,0.01 -0.02,0.01 -0.01,0.01 -0.01,0.01 -0.02,0.01 -0.01,0.01 -0.02,0.01 -0.01,0.01 -0.02,0.01 -0.02,0.01 -0.02,0 -0.02,0.01 -0.02,0.01 -0.02,0 -0.02,0.01 -0.02,0.01 -0.03,0 -0.02,0 -0.03,0.01 -0.02,0 -0.03,0 -0.03,0.01 -0.03,0 -0.02,0 c -1.16,0 -4.79,-0.41 -6.08,-0.5 -0.41,-0.05 -0.96,-0.1 -0.96,-1 0,-0.6 0.46,-0.6 1.21,-0.6 2.39,0 2.48,-0.34 2.48,-0.84 0,-0.36 -0.45,-2.05 -0.7,-3.09 l -4.08,-16.24 c -0.59,-2.5 -0.8,-3.3 -0.8,-5.03 0,-4.73 2.64,-7.83 6.33,-7.83 v 1.1 c -1.7,0 -3.34,1.34 -3.34,5.03 0,0.95 0,1.89 0.79,5.03 l 1.1,4.59 c 0.3,1.1 0.3,1.19 0.75,1.74 2.44,3.23 4.69,3.98 5.98,3.98 1.8,0 3.14,-1.48 3.14,-4.69 0,-2.93 -1.65,-8.65 -2.54,-10.56 -1.64,-3.33 -3.94,-5.12 -5.88,-5.12 v -1.1 c 5.88,0 12,7.42 12,14.6 0,4.53 -2.64,7.96 -6.62,7.96 -2.28,0 -4.33,-1.43 -5.83,-2.98 z"
             id="path7881" /><path
             style="fill:#000000;stroke-width:0"
             inkscape:connector-curvature="0"
             d="m 486.99,440.65 0.02,0.06 0.03,0.05 0.02,0.05 0.02,0.05 0.02,0.04 0.02,0.05 0.02,0.04 0.02,0.04 0.01,0.05 0.02,0.04 0.01,0.03 0.01,0.04 0.01,0.04 0.01,0.03 0.01,0.04 0.01,0.03 0.01,0.03 0,0.03 0.01,0.03 0.01,0.03 0,0.03 0.01,0.03 0,0.03 0,0.02 0.01,0.06 0,0.05 0,0.04 0,0.05 c 0,1.08 -0.98,1.92 -2.06,1.92 -1.33,0 -1.74,-1.09 -1.91,-1.64 l -4.61,-15.09 c -0.03,-0.06 -0.17,-0.52 -0.17,-0.56 0,-0.41 1.08,-0.77 1.36,-0.77 0.25,0 0.28,0.08 0.52,0.59 z"
             id="path7883" /></g>      </g>
      <path
         transform="matrix(0.46686394,0,0,0.46686394,150.93014,431.93854)"
         d="m 504.5,47.142151 c 0,17.120827 -13.87917,31 -31,31 -17.12083,0 -31,-13.879173 -31,-31 0,-17.120827 13.87917,-31 31,-31 17.12083,0 31,13.879173 31,31 z"
         sodipodi:ry="31"
         sodipodi:rx="31"
         sodipodi:cy="47.142151"
         sodipodi:cx="473.5"
         id="path11297-3"
         style="fill:none;stroke:#000000;stroke-width:2.14195156;stroke-linejoin:miter;stroke-miterlimit:4;stroke-opacity:1;stroke-dasharray:none;stroke-dashoffset:0"
         sodipodi:type="arc" />
    </g>
  </g>
</svg>
