<?xml version="1.0" encoding="UTF-8" standalone="no"?>
<!-- Created with Inkscape (http://www.inkscape.org/) -->

<svg
   xmlns:dc="http://purl.org/dc/elements/1.1/"
   xmlns:cc="http://creativecommons.org/ns#"
   xmlns:rdf="http://www.w3.org/1999/02/22-rdf-syntax-ns#"
   xmlns:svg="http://www.w3.org/2000/svg"
   xmlns="http://www.w3.org/2000/svg"
   xmlns:sodipodi="http://sodipodi.sourceforge.net/DTD/sodipodi-0.dtd"
   xmlns:inkscape="http://www.inkscape.org/namespaces/inkscape"
   width="1087.7333"
   height="575.37128"
   id="svg2"
   version="1.1"
   inkscape:version="0.48.4 r9939"
   sodipodi:docname="search_example1.svg">
  <sodipodi:namedview
     id="base"
     pagecolor="#ffffff"
     bordercolor="#666666"
     borderopacity="1.0"
     inkscape:pageopacity="0.0"
     inkscape:pageshadow="2"
     inkscape:zoom="0.5"
     inkscape:cx="630.32341"
     inkscape:cy="398.53846"
     inkscape:document-units="px"
     inkscape:current-layer="layer1"
     showgrid="false"
     fit-margin-top="0"
     fit-margin-left="0"
     fit-margin-right="0"
     fit-margin-bottom="0"
     inkscape:window-width="1680"
     inkscape:window-height="974"
     inkscape:window-x="1680"
     inkscape:window-y="24"
     inkscape:window-maximized="1" />
  <defs
     id="defs4">
    <inkscape:path-effect
       is_visible="true"
       id="path-effect78285"
       effect="spiro" />
    <inkscape:path-effect
       is_visible="true"
       id="path-effect78277"
       effect="spiro" />
    <inkscape:path-effect
       is_visible="true"
       id="path-effect78273"
       effect="spiro" />
    <defs
       id="defs1">
      <clipPath
         clipPathUnits="userSpaceOnUse"
         id="clipPath1">
        <path
           inkscape:connector-curvature="0"
           d="M 0,0 768,0 768,576 0,576 0,0 z"
           id="path2992" />
      </clipPath>
    </defs>
    <inkscape:path-effect
       is_visible="true"
       id="path-effect78273-3"
       effect="spiro" />
    <inkscape:path-effect
       is_visible="true"
       id="path-effect78277-2"
       effect="spiro" />
    <inkscape:path-effect
       is_visible="true"
       id="path-effect78285-2"
       effect="spiro" />
  </defs>
  <metadata
     id="metadata7">
    <rdf:RDF>
      <cc:Work
         rdf:about="">
        <dc:format>image/svg+xml</dc:format>
        <dc:type
           rdf:resource="http://purl.org/dc/dcmitype/StillImage" />
        <dc:title />
      </cc:Work>
    </rdf:RDF>
  </metadata>
  <g
     transform="translate(-173.15096,-228.01267)"
     id="layer1"
     inkscape:groupmode="layer"
     inkscape:label="Layer 1">
    <g
       id="g34335"
       transform="translate(-666.39701,-85.081081)">
      <line
         y2="320.76892"
         style="font-size:12px;font-style:normal;font-weight:normal;fill:none;stroke:#262626;stroke-width:1.61518252;stroke-linecap:square;stroke-linejoin:miter;stroke-miterlimit:10;stroke-opacity:0.14900004;stroke-dasharray:none;stroke-dashoffset:0;font-family:Dialog"
         x1="954.12177"
         x2="954.12177"
         y1="801.28571"
         id="line3006" />
      <line
         y2="320.76892"
         style="font-size:12px;font-style:normal;font-weight:normal;fill:none;stroke:#262626;stroke-width:1.61518252;stroke-linecap:square;stroke-linejoin:miter;stroke-miterlimit:10;stroke-opacity:0.14900004;stroke-dasharray:none;stroke-dashoffset:0;font-family:Dialog"
         x1="1114.2941"
         x2="1114.2941"
         y1="801.28571"
         id="line3008" />
      <line
         y2="320.76892"
         style="font-size:12px;font-style:normal;font-weight:normal;fill:none;stroke:#262626;stroke-width:1.61518252;stroke-linecap:square;stroke-linejoin:miter;stroke-miterlimit:10;stroke-opacity:0.14900004;stroke-dasharray:none;stroke-dashoffset:0;font-family:Dialog"
         x1="1274.4663"
         x2="1274.4663"
         y1="801.28571"
         id="line3010" />
      <line
         y2="320.76892"
         style="font-size:12px;font-style:normal;font-weight:normal;fill:none;stroke:#262626;stroke-width:1.61518252;stroke-linecap:square;stroke-linejoin:miter;stroke-miterlimit:10;stroke-opacity:0.14900004;stroke-dasharray:none;stroke-dashoffset:0;font-family:Dialog"
         x1="1434.6385"
         x2="1434.6385"
         y1="801.28571"
         id="line3012" />
      <line
         y2="320.76892"
         style="font-size:12px;font-style:normal;font-weight:normal;fill:none;stroke:#262626;stroke-width:1.61518252;stroke-linecap:square;stroke-linejoin:miter;stroke-miterlimit:10;stroke-opacity:0.14900004;stroke-dasharray:none;stroke-dashoffset:0;font-family:Dialog"
         x1="1594.8109"
         x2="1594.8109"
         y1="801.28571"
         id="line3014" />
      <line
         y2="320.76892"
         style="font-size:12px;font-style:normal;font-weight:normal;fill:none;stroke:#262626;stroke-width:1.61518252;stroke-linecap:square;stroke-linejoin:miter;stroke-miterlimit:10;stroke-opacity:0.14900004;stroke-dasharray:none;stroke-dashoffset:0;font-family:Dialog"
         x1="1754.983"
         x2="1754.983"
         y1="801.28571"
         id="line3016" />
      <line
         y2="801.28571"
         style="font-size:12px;font-style:normal;font-weight:normal;fill:none;stroke:#262626;stroke-width:1.61518252;stroke-linecap:square;stroke-linejoin:miter;stroke-miterlimit:10;stroke-opacity:0.14900004;stroke-dasharray:none;stroke-dashoffset:0;font-family:Dialog"
         x1="1915.1554"
         x2="954.12177"
         y1="801.28571"
         id="line3018" />
      <line
         y2="721.19958"
         style="font-size:12px;font-style:normal;font-weight:normal;fill:none;stroke:#262626;stroke-width:1.61518252;stroke-linecap:square;stroke-linejoin:miter;stroke-miterlimit:10;stroke-opacity:0.14900004;stroke-dasharray:none;stroke-dashoffset:0;font-family:Dialog"
         x1="1915.1554"
         x2="954.12177"
         y1="721.19958"
         id="line3020" />
      <line
         y2="641.1134"
         style="font-size:12px;font-style:normal;font-weight:normal;fill:none;stroke:#262626;stroke-width:1.61518252;stroke-linecap:square;stroke-linejoin:miter;stroke-miterlimit:10;stroke-opacity:0.14900004;stroke-dasharray:none;stroke-dashoffset:0;font-family:Dialog"
         x1="1915.1554"
         x2="954.12177"
         y1="641.1134"
         id="line3022" />
      <line
         y2="561.02734"
         style="font-size:12px;font-style:normal;font-weight:normal;fill:none;stroke:#262626;stroke-width:1.61518252;stroke-linecap:square;stroke-linejoin:miter;stroke-miterlimit:10;stroke-opacity:0.14900004;stroke-dasharray:none;stroke-dashoffset:0;font-family:Dialog"
         x1="1915.1554"
         x2="954.12177"
         y1="561.02734"
         id="line3024" />
      <line
         y2="480.94122"
         style="font-size:12px;font-style:normal;font-weight:normal;fill:none;stroke:#262626;stroke-width:1.61518252;stroke-linecap:square;stroke-linejoin:miter;stroke-miterlimit:10;stroke-opacity:0.14900004;stroke-dasharray:none;stroke-dashoffset:0;font-family:Dialog"
         x1="1915.1554"
         x2="954.12177"
         y1="480.94122"
         id="line3026" />
      <line
         y2="400.85498"
         style="font-size:12px;font-style:normal;font-weight:normal;fill:none;stroke:#262626;stroke-width:1.61518252;stroke-linecap:square;stroke-linejoin:miter;stroke-miterlimit:10;stroke-opacity:0.14900004;stroke-dasharray:none;stroke-dashoffset:0;font-family:Dialog"
         x1="1915.1554"
         x2="954.12177"
         y1="400.85498"
         id="line3028" />
      <path
         inkscape:connector-curvature="0"
         style="font-size:27px;font-style:normal;font-weight:normal;fill:#262626;fill-opacity:1;stroke:none;font-family:mwa_cmr10"
         d="m 872.25542,606.93418 q 0,0.50474 -0.47955,0.50474 l -0.35324,0 q -0.1767,0 -0.30285,-0.12615 l -16.50522,-12.18962 0,3.91181 q 0,1.86748 0.22725,3.06627 0.2271,1.19879 0.88318,1.98118 0.65625,0.78239 1.79189,1.13563 1.13563,0.35341 3.12941,0.35341 l 0,1.23658 -7.19256,-0.47955 0,-14.61239 q 0,-0.17654 0.13874,-0.31545 0.13891,-0.13874 0.3408,-0.13874 l 0.25229,0 q 0.15151,0 0.30285,0.0757 l 16.50523,12.18946 0,-4.1641 q 0,-1.89283 -0.22726,-3.15462 -0.22709,-1.26194 -1.13563,-2.17048 -0.83279,-0.83279 -2.23348,-1.13563 -1.40068,-0.30285 -3.47006,-0.47955 l 0,-1.26178 8.32821,0.75704 0,15.01619 z"
         id="path3032" />
      <path
         inkscape:connector-curvature="0"
         style="font-size:27px;font-style:normal;font-weight:normal;fill:#262626;fill-opacity:1;stroke:none;font-family:mwa_cmr10"
         d="m 883.1579,570.0019 -43.60993,0 0,-5.95599 1.74133,0 0,4.21466 40.12727,0 0,-4.21466 1.74133,0 0,5.95599 z"
         id="path3034" />
      <path
         inkscape:connector-curvature="0"
         style="font-size:27px;font-style:normal;font-weight:normal;fill:#262626;fill-opacity:1;stroke:none;font-family:mwa_cmr10"
         d="m 871.49838,559.82932 q -0.25245,0 -0.3786,-0.0504 l -12.99721,-3.25556 q -1.21139,-0.3282 -2.14512,-0.3282 -1.86764,0 -1.86764,1.28713 0,1.3629 1.62778,2.01898 1.62795,0.65625 4.12631,1.28714 0.12631,0 0.2019,0.12615 0.0757,0.12614 0.0757,0.22709 l 0,0.50475 q 0,0.1515 -0.1641,0.26505 -0.16394,0.11355 -0.29009,0.11355 -1.89283,-0.47955 -3.21777,-0.92114 -1.32493,-0.44159 -2.41017,-1.36273 -1.08524,-0.9213 -1.08524,-2.30923 0,-1.64054 1.03468,-2.88972 1.03485,-1.24918 2.65003,-1.24918 -1.71613,-1.31234 -2.70042,-3.05383 -0.98429,-1.74133 -0.98429,-3.70975 0,-2.06953 1.06004,-3.57117 1.05988,-1.50163 3.00311,-1.50163 -1.89267,-1.33754 -2.97791,-3.12942 -1.08524,-1.79172 -1.08524,-3.93701 0,-2.24607 1.22398,-3.6214 1.22399,-1.37549 3.49542,-1.37549 1.79188,0 4.3282,0.79499 2.53632,0.795 5.66574,1.98103 1.48904,0.63105 2.59948,0.63105 1.31233,0 1.31233,-1.03485 0,-1.69077 -1.82984,-2.81381 -1.82968,-1.1232 -3.92425,-1.60258 -0.25245,-0.12631 -0.25245,-0.3534 l 0,-0.52995 q 0,-0.1515 0.11355,-0.27765 0.11355,-0.12614 0.26505,-0.12614 0.0504,0 0.12615,0.0504 2.47332,0.6057 4.5553,2.08213 2.08213,1.47644 2.08213,3.69732 0,1.51423 -1.04745,2.59931 -1.04728,1.08524 -2.56152,1.08524 -0.75703,0 -1.71613,-0.35324 -3.25556,-1.23674 -5.84244,-2.05693 -2.58671,-0.82019 -4.5301,-0.82019 -1.21139,0 -2.06937,0.49214 -0.85815,0.49215 -0.85815,1.65298 0,2.37238 1.46384,4.11371 1.46368,1.74133 3.86126,3.02847 0.42899,0.0758 0.65625,0.12614 l 11.20533,2.82657 q 0.60569,0.12631 1.02208,0.65625 0.4164,0.52994 0.4164,1.16083 0,0.50475 -0.34081,0.90854 -0.34064,0.4038 -0.89578,0.4038 -0.25245,0 -0.3786,-0.0504 l -11.10438,-2.80137 q -1.79188,-0.42899 -2.97807,-0.42899 -1.21139,0 -2.06937,0.49215 -0.85815,0.49214 -0.85815,1.70353 0,1.58982 0.70664,2.92752 0.70665,1.33753 1.86764,2.33442 1.16083,0.99689 2.75082,1.82968 l 11.86158,2.97791 q 0.60569,0.1515 1.02208,0.66885 0.4164,0.51734 0.4164,1.14823 0,0.5301 -0.34081,0.9213 -0.34064,0.39104 -0.89578,0.39104 z"
         id="path3036" />
      <path
         inkscape:connector-curvature="0"
         style="font-size:27px;font-style:normal;font-weight:normal;fill:#262626;fill-opacity:1;stroke:none;font-family:mwa_cmr10"
         d="m 883.1579,524.40949 -1.74133,0 0,-4.23985 -40.12727,0 0,4.23985 -1.74133,0 0,-5.98118 43.60993,0 0,5.98118 z"
         id="path3038" />
      <line
         y2="320.76892"
         style="font-size:12px;font-style:normal;font-weight:normal;fill:none;stroke:#262626;stroke-width:1.61518252;stroke-linecap:square;stroke-linejoin:miter;stroke-miterlimit:10;stroke-opacity:1;stroke-dasharray:none;stroke-dashoffset:0;font-family:Dialog"
         x1="954.12177"
         x2="954.12177"
         y1="801.28571"
         id="line3042" />
      <line
         y2="320.76892"
         style="font-size:12px;font-style:normal;font-weight:normal;fill:none;stroke:#262626;stroke-width:1.61518252;stroke-linecap:square;stroke-linejoin:miter;stroke-miterlimit:10;stroke-opacity:1;stroke-dasharray:none;stroke-dashoffset:0;font-family:Dialog"
         x1="1915.1554"
         x2="1915.1554"
         y1="801.28571"
         id="line3044" />
      <line
         y2="801.28571"
         style="font-size:12px;font-style:normal;font-weight:normal;fill:none;stroke:#262626;stroke-width:1.61518252;stroke-linecap:square;stroke-linejoin:miter;stroke-miterlimit:10;stroke-opacity:1;stroke-dasharray:none;stroke-dashoffset:0;font-family:Dialog"
         x1="954.12177"
         x2="963.73212"
         y1="801.28571"
         id="line3046" />
      <line
         y2="801.28571"
         style="font-size:12px;font-style:normal;font-weight:normal;fill:none;stroke:#262626;stroke-width:1.61518252;stroke-linecap:square;stroke-linejoin:miter;stroke-miterlimit:10;stroke-opacity:1;stroke-dasharray:none;stroke-dashoffset:0;font-family:Dialog"
         x1="1915.1554"
         x2="1905.545"
         y1="801.28571"
         id="line3048" />
      <line
         y2="721.19958"
         style="font-size:12px;font-style:normal;font-weight:normal;fill:none;stroke:#262626;stroke-width:1.61518252;stroke-linecap:square;stroke-linejoin:miter;stroke-miterlimit:10;stroke-opacity:1;stroke-dasharray:none;stroke-dashoffset:0;font-family:Dialog"
         x1="954.12177"
         x2="963.73212"
         y1="721.19958"
         id="line3050" />
      <line
         y2="721.19958"
         style="font-size:12px;font-style:normal;font-weight:normal;fill:none;stroke:#262626;stroke-width:1.61518252;stroke-linecap:square;stroke-linejoin:miter;stroke-miterlimit:10;stroke-opacity:1;stroke-dasharray:none;stroke-dashoffset:0;font-family:Dialog"
         x1="1915.1554"
         x2="1905.545"
         y1="721.19958"
         id="line3052" />
      <line
         y2="641.1134"
         style="font-size:12px;font-style:normal;font-weight:normal;fill:none;stroke:#262626;stroke-width:1.61518252;stroke-linecap:square;stroke-linejoin:miter;stroke-miterlimit:10;stroke-opacity:1;stroke-dasharray:none;stroke-dashoffset:0;font-family:Dialog"
         x1="954.12177"
         x2="963.73212"
         y1="641.1134"
         id="line3054" />
      <line
         y2="641.1134"
         style="font-size:12px;font-style:normal;font-weight:normal;fill:none;stroke:#262626;stroke-width:1.61518252;stroke-linecap:square;stroke-linejoin:miter;stroke-miterlimit:10;stroke-opacity:1;stroke-dasharray:none;stroke-dashoffset:0;font-family:Dialog"
         x1="1915.1554"
         x2="1905.545"
         y1="641.1134"
         id="line3056" />
      <line
         y2="561.02734"
         style="font-size:12px;font-style:normal;font-weight:normal;fill:none;stroke:#262626;stroke-width:1.61518252;stroke-linecap:square;stroke-linejoin:miter;stroke-miterlimit:10;stroke-opacity:1;stroke-dasharray:none;stroke-dashoffset:0;font-family:Dialog"
         x1="954.12177"
         x2="963.73212"
         y1="561.02734"
         id="line3058" />
      <line
         y2="561.02734"
         style="font-size:12px;font-style:normal;font-weight:normal;fill:none;stroke:#262626;stroke-width:1.61518252;stroke-linecap:square;stroke-linejoin:miter;stroke-miterlimit:10;stroke-opacity:1;stroke-dasharray:none;stroke-dashoffset:0;font-family:Dialog"
         x1="1915.1554"
         x2="1905.545"
         y1="561.02734"
         id="line3060" />
      <line
         y2="480.94122"
         style="font-size:12px;font-style:normal;font-weight:normal;fill:none;stroke:#262626;stroke-width:1.61518252;stroke-linecap:square;stroke-linejoin:miter;stroke-miterlimit:10;stroke-opacity:1;stroke-dasharray:none;stroke-dashoffset:0;font-family:Dialog"
         x1="954.12177"
         x2="963.73212"
         y1="480.94122"
         id="line3062" />
      <line
         y2="480.94122"
         style="font-size:12px;font-style:normal;font-weight:normal;fill:none;stroke:#262626;stroke-width:1.61518252;stroke-linecap:square;stroke-linejoin:miter;stroke-miterlimit:10;stroke-opacity:1;stroke-dasharray:none;stroke-dashoffset:0;font-family:Dialog"
         x1="1915.1554"
         x2="1905.545"
         y1="480.94122"
         id="line3064" />
      <line
         y2="400.85498"
         style="font-size:12px;font-style:normal;font-weight:normal;fill:none;stroke:#262626;stroke-width:1.61518252;stroke-linecap:square;stroke-linejoin:miter;stroke-miterlimit:10;stroke-opacity:1;stroke-dasharray:none;stroke-dashoffset:0;font-family:Dialog"
         x1="954.12177"
         x2="963.73212"
         y1="400.85498"
         id="line3066" />
      <line
         y2="400.85498"
         style="font-size:12px;font-style:normal;font-weight:normal;fill:none;stroke:#262626;stroke-width:1.61518252;stroke-linecap:square;stroke-linejoin:miter;stroke-miterlimit:10;stroke-opacity:1;stroke-dasharray:none;stroke-dashoffset:0;font-family:Dialog"
         x1="1915.1554"
         x2="1905.545"
         y1="400.85498"
         id="line3068" />
      <path
         inkscape:connector-curvature="0"
         style="font-size:16px;font-style:normal;font-weight:normal;fill:#262626;fill-opacity:1;stroke:none;font-family:SansSerif"
         d="m 895.48384,722.8274 6.81397,0 0,2.06953 -6.81397,0 0,-2.06953 z m 16.29057,-9.03485 q -1.96842,0 -2.96531,1.93063 -0.99689,1.93063 -0.99689,5.81708 0,3.88661 0.99689,5.81724 0.99689,1.93063 2.96531,1.93063 1.96859,0 2.96548,-1.93063 0.99689,-1.93063 0.99689,-5.81724 0,-3.88645 -0.99689,-5.81708 -0.99689,-1.93063 -2.96548,-1.93063 z m 0,-2.01898 q 3.15478,0 4.83295,2.49837 1.67834,2.49852 1.67834,7.26832 0,4.76995 -1.67834,7.28108 -1.67817,2.51096 -4.83295,2.51096 -3.17981,0 -4.84555,-2.51096 -1.66557,-2.51113 -1.66557,-7.28108 0,-4.7698 1.66557,-7.26832 1.66574,-2.49837 4.84555,-2.49837 z m 10.99083,15.97513 2.65003,0 0,3.20516 -2.65003,0 0,-3.20516 z m 10.41034,1.05988 8.8835,0 0,2.14528 -11.96236,0 0,-2.14528 q 1.46368,-1.51423 3.9622,-4.03796 2.49853,-2.52372 3.15462,-3.25556 1.21138,-1.38809 1.70353,-2.33442 0.49215,-0.94634 0.49215,-1.88024 0,-1.48887 -1.05989,-2.43537 -1.06004,-0.94633 -2.75098,-0.94633 -1.18602,0 -2.52372,0.41639 -1.33753,0.41639 -2.85176,1.24918 l 0,-2.57411 q 1.53943,-0.6057 2.87712,-0.92114 1.33753,-0.31545 2.44797,-0.31545 2.92752,0 4.66885,1.46368 1.74133,1.46384 1.74133,3.91181 0,1.16083 -0.429,2.19568 -0.42899,1.03469 -1.58998,2.44797 -0.30285,0.3786 -1.99362,2.11993 -1.69094,1.74133 -4.76996,4.89594 z"
         id="path3076" />
      <path
         inkscape:connector-curvature="0"
         style="font-size:16px;font-style:normal;font-weight:normal;fill:#262626;fill-opacity:1;stroke:none;font-family:SansSerif"
         d="m 895.48384,642.74116 6.81397,0 0,2.06953 -6.81397,0 0,-2.06953 z m 16.29057,-9.03485 q -1.96842,0 -2.96531,1.93063 -0.99689,1.93063 -0.99689,5.81708 0,3.88661 0.99689,5.81724 0.99689,1.93063 2.96531,1.93063 1.96859,0 2.96548,-1.93063 0.99689,-1.93063 0.99689,-5.81724 0,-3.88645 -0.99689,-5.81708 -0.99689,-1.93063 -2.96548,-1.93063 z m 0,-2.01898 q 3.15478,0 4.83295,2.49837 1.67834,2.49852 1.67834,7.26832 0,4.76995 -1.67834,7.28108 -1.67817,2.51096 -4.83295,2.51096 -3.17981,0 -4.84555,-2.51096 -1.66557,-2.51113 -1.66557,-7.28108 0,-4.7698 1.66557,-7.26832 1.66574,-2.49837 4.84555,-2.49837 z m 10.99083,15.97513 2.65003,0 0,3.20516 -2.65003,0 0,-3.20516 z m 8.64382,1.05988 4.1641,0 0,-14.38514 -4.51751,0.90854 0,-2.32182 4.49231,-0.90854 2.54892,0 0,16.70696 4.1641,0 0,2.14528 -10.85192,0 0,-2.14528 z"
         id="path3080" />
      <path
         inkscape:connector-curvature="0"
         style="font-size:16px;font-style:normal;font-weight:normal;fill:#262626;fill-opacity:1;stroke:none;font-family:SansSerif"
         d="m 936.4313,553.62023 q -1.96858,0 -2.96547,1.93063 -0.99689,1.93063 -0.99689,5.81708 0,3.88661 0.99689,5.81724 0.99689,1.93063 2.96547,1.93063 1.96843,0 2.96532,-1.93063 0.99689,-1.93063 0.99689,-5.81724 0,-3.88645 -0.99689,-5.81708 -0.99689,-1.93063 -2.96532,-1.93063 z m 0,-2.01898 q 3.15462,0 4.83279,2.49837 1.67834,2.49852 1.67834,7.26832 0,4.76996 -1.67834,7.28108 -1.67817,2.51096 -4.83279,2.51096 -3.17997,0 -4.84554,-2.51096 -1.66574,-2.51112 -1.66574,-7.28108 0,-4.7698 1.66574,-7.26832 1.66557,-2.49837 4.84554,-2.49837 z"
         id="path3084" />
      <path
         inkscape:connector-curvature="0"
         style="font-size:16px;font-style:normal;font-weight:normal;fill:#262626;fill-opacity:1;stroke:none;font-family:SansSerif"
         d="m 911.77441,473.53415 q -1.96842,0 -2.96531,1.93063 -0.99689,1.93063 -0.99689,5.81708 0,3.88661 0.99689,5.81724 0.99689,1.93063 2.96531,1.93063 1.96859,0 2.96548,-1.93063 0.99689,-1.93063 0.99689,-5.81724 0,-3.88645 -0.99689,-5.81708 -0.99689,-1.93063 -2.96548,-1.93063 z m 0,-2.01897 q 3.15478,0 4.83295,2.49836 1.67834,2.49853 1.67834,7.26832 0,4.76996 -1.67834,7.28108 -1.67817,2.51096 -4.83295,2.51096 -3.17981,0 -4.84555,-2.51096 -1.66557,-2.51112 -1.66557,-7.28108 0,-4.76979 1.66557,-7.26832 1.66574,-2.49836 4.84555,-2.49836 z m 10.99083,15.97512 2.65003,0 0,3.20517 -2.65003,0 0,-3.20517 z m 8.64382,1.05988 4.1641,0 0,-14.38514 -4.51751,0.90854 0,-2.32182 4.49231,-0.90854 2.54892,0 0,16.70696 4.1641,0 0,2.14529 -10.85192,0 0,-2.14529 z"
         id="path3088" />
      <path
         inkscape:connector-curvature="0"
         style="font-size:16px;font-style:normal;font-weight:normal;fill:#262626;fill-opacity:1;stroke:none;font-family:SansSerif"
         d="m 911.77441,393.44792 q -1.96842,0 -2.96531,1.93063 -0.99689,1.93063 -0.99689,5.81708 0,3.88661 0.99689,5.81724 0.99689,1.93063 2.96531,1.93063 1.96859,0 2.96548,-1.93063 0.99689,-1.93063 0.99689,-5.81724 0,-3.88645 -0.99689,-5.81708 -0.99689,-1.93063 -2.96548,-1.93063 z m 0,-2.01898 q 3.15478,0 4.83295,2.49837 1.67834,2.49852 1.67834,7.26832 0,4.76995 -1.67834,7.28108 -1.67817,2.51096 -4.83295,2.51096 -3.17981,0 -4.84555,-2.51096 -1.66557,-2.51113 -1.66557,-7.28108 0,-4.7698 1.66557,-7.26832 1.66574,-2.49837 4.84555,-2.49837 z m 10.99083,15.97513 2.65003,0 0,3.20516 -2.65003,0 0,-3.20516 z m 10.41034,1.05988 8.8835,0 0,2.14528 -11.96236,0 0,-2.14528 q 1.46368,-1.51423 3.9622,-4.03796 2.49853,-2.52372 3.15462,-3.25556 1.21138,-1.38809 1.70353,-2.33442 0.49215,-0.94634 0.49215,-1.88024 0,-1.48887 -1.05989,-2.43537 -1.06004,-0.94633 -2.75098,-0.94633 -1.18602,0 -2.52372,0.41639 -1.33753,0.41639 -2.85176,1.24918 l 0,-2.57411 q 1.53943,-0.6057 2.87712,-0.92114 1.33753,-0.31545 2.44797,-0.31545 2.92752,0 4.66885,1.46368 1.74133,1.46384 1.74133,3.91181 0,1.16083 -0.429,2.19568 -0.42899,1.03469 -1.58998,2.44797 -0.30285,0.3786 -1.99362,2.11993 -1.69094,1.74133 -4.76996,4.89594 z"
         id="path3092" />
      <path
         inkscape:connector-curvature="0"
         style="font-size:27px;font-style:normal;font-weight:normal;fill:#262626;fill-opacity:1;stroke:none;font-family:mwa_cmr10"
         d="m 1388.224,884.7299 q 0.8328,0.65625 1.8423,0.65625 2.7256,0 4.4923,-4.16427 l 1.4889,-3.65935 -6.5363,-16.02568 q -0.4038,-0.80759 -1.2368,-1.02209 -0.8327,-0.2145 -2.2208,-0.2145 l 0,-1.53943 9.1611,0 0,1.53943 q -2.4228,0 -2.4228,1.03469 0,0.1767 0.051,0.25245 l 4.8455,11.93717 4.366,-10.75098 q 0.1262,-0.3282 0.1262,-0.732 0,-0.52994 -0.2777,-0.92114 -0.2774,-0.39119 -0.7444,-0.60569 -0.4669,-0.2145 -1.0221,-0.2145 l 0,-1.53943 7.2431,0 0,1.53943 q -1.3628,0 -2.3723,0.6183 -1.0095,0.61829 -1.5647,1.82967 l -7.5207,18.47365 q -0.6057,1.41329 -1.4007,2.58688 -0.795,1.17359 -1.9433,1.93063 -1.1482,0.7572 -2.5111,0.7572 -1.6152,0 -2.8139,-1.04745 -1.1988,-1.04728 -1.1988,-2.61207 0,-0.80759 0.5553,-1.36273 0.5551,-0.5553 1.3627,-0.5553 0.5553,0 0.9843,0.25245 0.429,0.25229 0.6814,0.66869 0.2523,0.41655 0.2523,0.99689 0,0.70664 -0.4668,1.26194 -0.4669,0.55514 -1.1988,0.63089 z"
         id="path3096" />
      <path
         inkscape:connector-curvature="0"
         style="font-size:27px;font-style:normal;font-weight:normal;fill:#262626;fill-opacity:1;stroke:none;font-family:mwa_cmr10"
         d="m 1427.4586,888.46501 0,-43.60993 5.956,0 0,1.74133 -4.2145,0 0,40.12727 4.2145,0 0,1.74133 -5.956,0 z"
         id="path3098" />
      <path
         inkscape:connector-curvature="0"
         style="font-size:27px;font-style:normal;font-weight:normal;fill:#262626;fill-opacity:1;stroke:none;font-family:mwa_cmr10"
         d="m 1437.6312,876.80549 q 0,-0.25245 0.05,-0.3786 l 3.2557,-12.99721 q 0.328,-1.21139 0.328,-2.14512 0,-1.86764 -1.2871,-1.86764 -1.3627,0 -2.019,1.62778 -0.6561,1.62794 -1.2871,4.12631 0,0.1263 -0.1262,0.2019 -0.1261,0.0757 -0.227,0.0757 l -0.5048,0 q -0.1515,0 -0.265,-0.1641 -0.1136,-0.16395 -0.1136,-0.29009 0.4796,-1.89283 0.9211,-3.21777 0.4418,-1.32493 1.3629,-2.41017 0.9212,-1.08524 2.3093,-1.08524 1.6403,0 2.8895,1.03468 1.2494,1.03485 1.2494,2.65003 1.3123,-1.71613 3.0536,-2.70042 1.7414,-0.98429 3.7099,-0.98429 2.0694,0 3.5711,1.06004 1.5016,1.05988 1.5016,3.00311 1.3375,-1.89267 3.1294,-2.97791 1.7919,-1.08524 3.937,-1.08524 2.2461,0 3.6216,1.22398 1.3753,1.22399 1.3753,3.49542 0,1.79188 -0.795,4.3282 -0.7948,2.53632 -1.981,5.66574 -0.6309,1.48904 -0.6309,2.59947 0,1.31234 1.0347,1.31234 1.6909,0 2.814,-1.82984 1.123,-1.82968 1.6025,-3.92425 0.1262,-0.25245 0.3533,-0.25245 l 0.5299,0 q 0.1515,0 0.2777,0.11355 0.1261,0.11354 0.1261,0.26505 0,0.0504 -0.05,0.12614 -0.6057,2.47333 -2.0821,4.5553 -1.4763,2.08213 -3.6972,2.08213 -1.5142,0 -2.5994,-1.04744 -1.0853,-1.04729 -1.0853,-2.56152 0,-0.75704 0.3534,-1.71613 1.2366,-3.25556 2.0568,-5.84244 0.8202,-2.58671 0.8202,-4.5301 0,-1.21139 -0.4922,-2.06937 -0.4921,-0.85815 -1.6529,-0.85815 -2.3724,0 -4.1137,1.46384 -1.7414,1.46368 -3.0285,3.86126 -0.076,0.42899 -0.1262,0.65624 l -2.8265,11.20533 q -0.1262,0.6057 -0.6563,1.02209 -0.5299,0.41639 -1.1608,0.41639 -0.5048,0 -0.9085,-0.3408 -0.4038,-0.34064 -0.4038,-0.89578 0,-0.25245 0.05,-0.3786 l 2.8014,-11.10438 q 0.429,-1.79188 0.429,-2.97807 0,-1.21139 -0.4921,-2.06937 -0.492,-0.85815 -1.7034,-0.85815 -1.59,0 -2.9275,0.70664 -1.3377,0.70664 -2.3346,1.86764 -0.9967,1.16083 -1.8297,2.75082 l -2.9779,11.86157 q -0.1515,0.6057 -0.6688,1.02209 -0.5174,0.41639 -1.1483,0.41639 -0.5299,0 -0.9211,-0.3408 -0.3912,-0.34064 -0.3912,-0.89578 z"
         id="path3100" />
      <path
         inkscape:connector-curvature="0"
         style="font-size:27px;font-style:normal;font-weight:normal;fill:#262626;fill-opacity:1;stroke:none;font-family:mwa_cmr10"
         d="m 1473.051,888.46501 0,-1.74133 4.2399,0 0,-40.12727 -4.2399,0 0,-1.74133 5.9812,0 0,43.60993 -5.9812,0 z"
         id="path3102" />
      <line
         y2="801.28571"
         style="font-size:12px;font-style:normal;font-weight:normal;fill:none;stroke:#262626;stroke-width:1.61518252;stroke-linecap:square;stroke-linejoin:miter;stroke-miterlimit:10;stroke-opacity:1;stroke-dasharray:none;stroke-dashoffset:0;font-family:Dialog"
         x1="954.12177"
         x2="1915.1554"
         y1="801.28571"
         id="line3106" />
      <line
         y2="320.76892"
         style="font-size:12px;font-style:normal;font-weight:normal;fill:none;stroke:#262626;stroke-width:1.61518252;stroke-linecap:square;stroke-linejoin:miter;stroke-miterlimit:10;stroke-opacity:1;stroke-dasharray:none;stroke-dashoffset:0;font-family:Dialog"
         x1="954.12177"
         x2="1915.1554"
         y1="320.76892"
         id="line3108" />
      <line
         y2="791.67535"
         style="font-size:12px;font-style:normal;font-weight:normal;fill:none;stroke:#262626;stroke-width:1.61518252;stroke-linecap:square;stroke-linejoin:miter;stroke-miterlimit:10;stroke-opacity:1;stroke-dasharray:none;stroke-dashoffset:0;font-family:Dialog"
         x1="954.12177"
         x2="954.12177"
         y1="801.28571"
         id="line3110" />
      <line
         y2="330.37924"
         style="font-size:12px;font-style:normal;font-weight:normal;fill:none;stroke:#262626;stroke-width:1.61518252;stroke-linecap:square;stroke-linejoin:miter;stroke-miterlimit:10;stroke-opacity:1;stroke-dasharray:none;stroke-dashoffset:0;font-family:Dialog"
         x1="954.12177"
         x2="954.12177"
         y1="320.76892"
         id="line3112" />
      <line
         y2="791.67535"
         style="font-size:12px;font-style:normal;font-weight:normal;fill:none;stroke:#262626;stroke-width:1.61518252;stroke-linecap:square;stroke-linejoin:miter;stroke-miterlimit:10;stroke-opacity:1;stroke-dasharray:none;stroke-dashoffset:0;font-family:Dialog"
         x1="1114.2941"
         x2="1114.2941"
         y1="801.28571"
         id="line3114" />
      <line
         y2="330.37924"
         style="font-size:12px;font-style:normal;font-weight:normal;fill:none;stroke:#262626;stroke-width:1.61518252;stroke-linecap:square;stroke-linejoin:miter;stroke-miterlimit:10;stroke-opacity:1;stroke-dasharray:none;stroke-dashoffset:0;font-family:Dialog"
         x1="1114.2941"
         x2="1114.2941"
         y1="320.76892"
         id="line3116" />
      <line
         y2="791.67535"
         style="font-size:12px;font-style:normal;font-weight:normal;fill:none;stroke:#262626;stroke-width:1.61518252;stroke-linecap:square;stroke-linejoin:miter;stroke-miterlimit:10;stroke-opacity:1;stroke-dasharray:none;stroke-dashoffset:0;font-family:Dialog"
         x1="1274.4663"
         x2="1274.4663"
         y1="801.28571"
         id="line3118" />
      <line
         y2="330.37924"
         style="font-size:12px;font-style:normal;font-weight:normal;fill:none;stroke:#262626;stroke-width:1.61518252;stroke-linecap:square;stroke-linejoin:miter;stroke-miterlimit:10;stroke-opacity:1;stroke-dasharray:none;stroke-dashoffset:0;font-family:Dialog"
         x1="1274.4663"
         x2="1274.4663"
         y1="320.76892"
         id="line3120" />
      <line
         y2="791.67535"
         style="font-size:12px;font-style:normal;font-weight:normal;fill:none;stroke:#262626;stroke-width:1.61518252;stroke-linecap:square;stroke-linejoin:miter;stroke-miterlimit:10;stroke-opacity:1;stroke-dasharray:none;stroke-dashoffset:0;font-family:Dialog"
         x1="1434.6385"
         x2="1434.6385"
         y1="801.28571"
         id="line3122" />
      <line
         y2="330.37924"
         style="font-size:12px;font-style:normal;font-weight:normal;fill:none;stroke:#262626;stroke-width:1.61518252;stroke-linecap:square;stroke-linejoin:miter;stroke-miterlimit:10;stroke-opacity:1;stroke-dasharray:none;stroke-dashoffset:0;font-family:Dialog"
         x1="1434.6385"
         x2="1434.6385"
         y1="320.76892"
         id="line3124" />
      <line
         y2="791.67535"
         style="font-size:12px;font-style:normal;font-weight:normal;fill:none;stroke:#262626;stroke-width:1.61518252;stroke-linecap:square;stroke-linejoin:miter;stroke-miterlimit:10;stroke-opacity:1;stroke-dasharray:none;stroke-dashoffset:0;font-family:Dialog"
         x1="1594.8109"
         x2="1594.8109"
         y1="801.28571"
         id="line3126" />
      <line
         y2="330.37924"
         style="font-size:12px;font-style:normal;font-weight:normal;fill:none;stroke:#262626;stroke-width:1.61518252;stroke-linecap:square;stroke-linejoin:miter;stroke-miterlimit:10;stroke-opacity:1;stroke-dasharray:none;stroke-dashoffset:0;font-family:Dialog"
         x1="1594.8109"
         x2="1594.8109"
         y1="320.76892"
         id="line3128" />
      <line
         y2="791.67535"
         style="font-size:12px;font-style:normal;font-weight:normal;fill:none;stroke:#262626;stroke-width:1.61518252;stroke-linecap:square;stroke-linejoin:miter;stroke-miterlimit:10;stroke-opacity:1;stroke-dasharray:none;stroke-dashoffset:0;font-family:Dialog"
         x1="1754.983"
         x2="1754.983"
         y1="801.28571"
         id="line3130" />
      <line
         y2="330.37924"
         style="font-size:12px;font-style:normal;font-weight:normal;fill:none;stroke:#262626;stroke-width:1.61518252;stroke-linecap:square;stroke-linejoin:miter;stroke-miterlimit:10;stroke-opacity:1;stroke-dasharray:none;stroke-dashoffset:0;font-family:Dialog"
         x1="1754.983"
         x2="1754.983"
         y1="320.76892"
         id="line3132" />
      <path
         inkscape:connector-curvature="0"
         style="font-size:16px;font-style:normal;font-weight:normal;fill:#262626;fill-opacity:1;stroke:none;font-family:SansSerif"
         d="m 930.17166,826.62306 6.81397,0 0,2.06954 -6.81397,0 0,-2.06954 z m 16.29057,-9.03484 q -1.96842,0 -2.96531,1.93062 -0.99689,1.93063 -0.99689,5.81708 0,3.88662 0.99689,5.81724 0.99689,1.93063 2.96531,1.93063 1.96859,0 2.96548,-1.93063 0.99673,-1.93062 0.99673,-5.81724 0,-3.88645 -0.99673,-5.81708 -0.99689,-1.93062 -2.96548,-1.93062 z m 0,-2.01898 q 3.15462,0 4.83295,2.49836 1.67834,2.49853 1.67834,7.26832 0,4.76996 -1.67834,7.28092 -1.67833,2.51113 -4.83295,2.51113 -3.17981,0 -4.84554,-2.51113 -1.66558,-2.51096 -1.66558,-7.28092 0,-4.76979 1.66558,-7.26832 1.66573,-2.49836 4.84554,-2.49836 z m 10.99084,15.97512 2.64986,0 0,3.20517 -2.64986,0 0,-3.20517 z m 13.96874,-7.24312 q -1.71613,0 -2.71302,1.17359 -0.99673,1.17343 -0.99673,3.21777 0,2.04417 0.99673,3.21776 0.99689,1.17343 2.71302,1.17343 1.71613,0 2.72562,-1.17343 1.00949,-1.17359 1.00949,-3.21776 0,-2.04434 -1.00949,-3.21777 -1.00949,-1.17359 -2.72562,-1.17359 z m 5.0728,-7.97497 0,2.32183 q -0.95909,-0.45419 -1.94338,-0.69405 -0.98413,-0.23969 -1.94323,-0.23969 -2.52372,0 -3.84866,1.70353 -1.32493,1.70354 -1.52683,5.1358 0.75704,-1.08524 1.88007,-1.67834 1.1232,-0.59309 2.46073,-0.59309 2.85177,0 4.49215,1.72873 1.64054,1.72873 1.64054,4.68161 0,2.90216 -1.71613,4.66884 -1.71613,1.76653 -4.56806,1.76653 -3.25556,0 -4.98429,-2.51113 -1.72873,-2.51096 -1.72873,-7.28092 0,-4.46695 2.11993,-7.11681 2.11992,-2.64987 5.67833,-2.64987 0.9591,0 1.94323,0.1893 0.98429,0.18913 2.04433,0.56773 z"
         id="path3136" />
      <path
         inkscape:connector-curvature="0"
         style="font-size:16px;font-style:normal;font-weight:normal;fill:#262626;fill-opacity:1;stroke:none;font-family:SansSerif"
         d="m 1090.344,826.62306 6.814,0 0,2.06954 -6.814,0 0,-2.06954 z m 16.2906,-9.03484 q -1.9685,0 -2.9654,1.93062 -0.9968,1.93063 -0.9968,5.81708 0,3.88662 0.9968,5.81724 0.9969,1.93063 2.9654,1.93063 1.9685,0 2.9654,-1.93063 0.9968,-1.93062 0.9968,-5.81724 0,-3.88645 -0.9968,-5.81708 -0.9969,-1.93062 -2.9654,-1.93062 z m 0,-2.01898 q 3.1546,0 4.8329,2.49836 1.6784,2.49853 1.6784,7.26832 0,4.76996 -1.6784,7.28092 -1.6783,2.51113 -4.8329,2.51113 -3.1799,0 -4.8456,-2.51113 -1.6656,-2.51096 -1.6656,-7.28092 0,-4.76979 1.6656,-7.26832 1.6657,-2.49836 4.8456,-2.49836 z m 10.9908,15.97512 2.6499,0 0,3.20517 -2.6499,0 0,-3.20517 z m 15.2055,-13.4262 -6.4355,10.06969 6.4355,0 0,-10.06969 z m -0.6562,-2.22088 3.2051,0 0,12.29057 2.6751,0 0,2.11993 -2.6751,0 0,4.44175 -2.5489,0 0,-4.44175 -8.5051,0 0,-2.47333 7.8489,-11.93717 z"
         id="path3140" />
      <path
         inkscape:connector-curvature="0"
         style="font-size:16px;font-style:normal;font-weight:normal;fill:#262626;fill-opacity:1;stroke:none;font-family:SansSerif"
         d="m 1250.5162,826.62306 6.8139,0 0,2.06954 -6.8139,0 0,-2.06954 z m 16.2905,-9.03484 q -1.9684,0 -2.9653,1.93062 -0.9969,1.93063 -0.9969,5.81708 0,3.88662 0.9969,5.81724 0.9969,1.93063 2.9653,1.93063 1.9686,0 2.9655,-1.93063 0.9967,-1.93062 0.9967,-5.81724 0,-3.88645 -0.9967,-5.81708 -0.9969,-1.93062 -2.9655,-1.93062 z m 0,-2.01898 q 3.1547,0 4.833,2.49836 1.6783,2.49853 1.6783,7.26832 0,4.76996 -1.6783,7.28092 -1.6783,2.51113 -4.833,2.51113 -3.1798,0 -4.8455,-2.51113 -1.6656,-2.51096 -1.6656,-7.28092 0,-4.76979 1.6656,-7.26832 1.6657,-2.49836 4.8455,-2.49836 z m 10.9909,15.97512 2.6498,0 0,3.20517 -2.6498,0 0,-3.20517 z m 10.4103,1.05988 8.8835,0 0,2.14529 -11.9624,0 0,-2.14529 q 1.4637,-1.51423 3.9623,-4.03795 2.4985,-2.52372 3.1546,-3.25556 1.2114,-1.38809 1.7035,-2.33443 0.4921,-0.94633 0.4921,-1.88023 0,-1.48888 -1.06,-2.43537 -1.0599,-0.94634 -2.7508,-0.94634 -1.1862,0 -2.5237,0.4164 -1.3376,0.41639 -2.8518,1.24918 l 0,-2.57412 q 1.5394,-0.60569 2.877,-0.92114 1.3377,-0.31544 2.4481,-0.31544 2.9275,0 4.6688,1.46368 1.7414,1.46384 1.7414,3.91181 0,1.16083 -0.429,2.19568 -0.429,1.03468 -1.59,2.44797 -0.3029,0.37859 -1.9938,2.11992 -1.6908,1.74133 -4.7698,4.89594 z"
         id="path3144" />
      <path
         inkscape:connector-curvature="0"
         style="font-size:16px;font-style:normal;font-weight:normal;fill:#262626;fill-opacity:1;stroke:none;font-family:SansSerif"
         d="m 1434.6449,817.58822 q -1.9684,0 -2.9653,1.93062 -0.9969,1.93063 -0.9969,5.81708 0,3.88662 0.9969,5.81724 0.9969,1.93063 2.9653,1.93063 1.9686,0 2.9653,-1.93063 0.9969,-1.93062 0.9969,-5.81724 0,-3.88645 -0.9969,-5.81708 -0.9967,-1.93062 -2.9653,-1.93062 z m 0,-2.01898 q 3.1546,0 4.8329,2.49836 1.6784,2.49853 1.6784,7.26832 0,4.76996 -1.6784,7.28092 -1.6783,2.51113 -4.8329,2.51113 -3.1798,0 -4.8456,-2.51113 -1.6655,-2.51096 -1.6655,-7.28092 0,-4.76979 1.6655,-7.26832 1.6658,-2.49836 4.8456,-2.49836 z"
         id="path3148" />
      <path
         inkscape:connector-curvature="0"
         style="font-size:16px;font-style:normal;font-weight:normal;fill:#262626;fill-opacity:1;stroke:none;font-family:SansSerif"
         d="m 1582.4888,817.58822 q -1.9686,0 -2.9653,1.93062 -0.9969,1.93063 -0.9969,5.81708 0,3.88662 0.9969,5.81724 0.9967,1.93063 2.9653,1.93063 1.9685,0 2.9653,-1.93063 0.9969,-1.93062 0.9969,-5.81724 0,-3.88645 -0.9969,-5.81708 -0.9968,-1.93062 -2.9653,-1.93062 z m 0,-2.01898 q 3.1546,0 4.833,2.49836 1.6782,2.49853 1.6782,7.26832 0,4.76996 -1.6782,7.28092 -1.6784,2.51113 -4.833,2.51113 -3.1799,0 -4.8455,-2.51113 -1.6658,-2.51096 -1.6658,-7.28092 0,-4.76979 1.6658,-7.26832 1.6656,-2.49836 4.8455,-2.49836 z m 10.9909,15.97512 2.6498,0 0,3.20517 -2.6498,0 0,-3.20517 z m 10.4103,1.05988 8.8835,0 0,2.14529 -11.9625,0 0,-2.14529 q 1.4638,-1.51423 3.9623,-4.03795 2.4984,-2.52372 3.1547,-3.25556 1.2113,-1.38809 1.7035,-2.33443 0.4921,-0.94633 0.4921,-1.88023 0,-1.48888 -1.06,-2.43537 -1.0599,-0.94634 -2.7508,-0.94634 -1.1862,0 -2.5238,0.4164 -1.3375,0.41639 -2.8517,1.24918 l 0,-2.57412 q 1.5394,-0.60569 2.8769,-0.92114 1.3376,-0.31544 2.448,-0.31544 2.9275,0 4.669,1.46368 1.7414,1.46384 1.7414,3.91181 0,1.16083 -0.429,2.19568 -0.4292,1.03468 -1.59,2.44797 -0.3029,0.37859 -1.9938,2.11992 -1.6909,1.74133 -4.7698,4.89594 z"
         id="path3152" />
      <path
         inkscape:connector-curvature="0"
         style="font-size:16px;font-style:normal;font-weight:normal;fill:#262626;fill-opacity:1;stroke:none;font-family:SansSerif"
         d="m 1742.661,817.58822 q -1.9686,0 -2.9653,1.93062 -0.9969,1.93063 -0.9969,5.81708 0,3.88662 0.9969,5.81724 0.9967,1.93063 2.9653,1.93063 1.9684,0 2.9653,-1.93063 0.9969,-1.93062 0.9969,-5.81724 0,-3.88645 -0.9969,-5.81708 -0.9969,-1.93062 -2.9653,-1.93062 z m 0,-2.01898 q 3.1546,0 4.8329,2.49836 1.6782,2.49853 1.6782,7.26832 0,4.76996 -1.6782,7.28092 -1.6783,2.51113 -4.8329,2.51113 -3.18,0 -4.8456,-2.51113 -1.6657,-2.51096 -1.6657,-7.28092 0,-4.76979 1.6657,-7.26832 1.6656,-2.49836 4.8456,-2.49836 z m 10.9908,15.97512 2.6499,0 0,3.20517 -2.6499,0 0,-3.20517 z m 15.2053,-13.4262 -6.4353,10.06969 6.4353,0 0,-10.06969 z m -0.656,-2.22088 3.2051,0 0,12.29057 2.6751,0 0,2.11993 -2.6751,0 0,4.44175 -2.5491,0 0,-4.44175 -8.5049,0 0,-2.47333 7.8489,-11.93717 z"
         id="path3156" />
      <line
         y2="721.19958"
         style="font-size:12px;font-style:normal;font-weight:normal;fill:none;stroke:#000000;stroke-width:1.61518252;stroke-linecap:square;stroke-linejoin:miter;stroke-miterlimit:10;stroke-opacity:1;stroke-dasharray:none;stroke-dashoffset:0;font-family:Dialog"
         x1="1754.983"
         x2="1754.983"
         y1="721.19958"
         id="line3160" />
      <line
         y2="400.85498"
         style="font-size:12px;font-style:normal;font-weight:normal;fill:none;stroke:#000000;stroke-width:1.61518252;stroke-linecap:square;stroke-linejoin:miter;stroke-miterlimit:10;stroke-opacity:1;stroke-dasharray:none;stroke-dashoffset:0;font-family:Dialog"
         x1="1754.983"
         x2="1754.983"
         y1="400.85498"
         id="line3162" />
      <line
         y2="721.19958"
         style="font-size:12px;font-style:normal;font-weight:normal;fill:none;stroke:#000000;stroke-width:1.61518252;stroke-linecap:square;stroke-linejoin:miter;stroke-miterlimit:10;stroke-opacity:1;stroke-dasharray:none;stroke-dashoffset:0;font-family:Dialog"
         x1="1754.983"
         x2="1754.983"
         y1="400.85498"
         id="line3164" />
      <line
         y2="721.19958"
         style="font-size:12px;font-style:normal;font-weight:normal;fill:none;stroke:#000000;stroke-width:1.61518252;stroke-linecap:square;stroke-linejoin:miter;stroke-miterlimit:10;stroke-opacity:1;stroke-dasharray:none;stroke-dashoffset:0;font-family:Dialog"
         x1="1754.983"
         x2="1754.983"
         y1="400.85498"
         id="line3166" />
      <line
         y2="400.85498"
         style="font-size:12px;font-style:normal;font-weight:normal;fill:none;stroke:#000000;stroke-width:1.61518252;stroke-linecap:square;stroke-linejoin:miter;stroke-miterlimit:10;stroke-opacity:1;stroke-dasharray:none;stroke-dashoffset:0;font-family:Dialog"
         x1="1114.2941"
         x2="1754.983"
         y1="400.85498"
         id="line3168" />
      <line
         y2="400.85498"
         style="font-size:12px;font-style:normal;font-weight:normal;fill:none;stroke:#000000;stroke-width:1.61518252;stroke-linecap:square;stroke-linejoin:miter;stroke-miterlimit:10;stroke-opacity:1;stroke-dasharray:none;stroke-dashoffset:0;font-family:Dialog"
         x1="1114.2941"
         x2="1114.2941"
         y1="400.85498"
         id="line3170" />
      <line
         y2="400.85498"
         style="font-size:12px;font-style:normal;font-weight:normal;fill:none;stroke:#000000;stroke-width:1.61518252;stroke-linecap:square;stroke-linejoin:miter;stroke-miterlimit:10;stroke-opacity:1;stroke-dasharray:none;stroke-dashoffset:0;font-family:Dialog"
         x1="1114.2941"
         x2="1754.983"
         y1="400.85498"
         id="line3172" />
      <line
         y2="721.19958"
         style="font-size:12px;font-style:normal;font-weight:normal;fill:none;stroke:#000000;stroke-width:1.61518252;stroke-linecap:square;stroke-linejoin:miter;stroke-miterlimit:10;stroke-opacity:1;stroke-dasharray:none;stroke-dashoffset:0;font-family:Dialog"
         x1="1114.2941"
         x2="1114.2941"
         y1="721.19958"
         id="line3174" />
      <line
         y2="721.19958"
         style="font-size:12px;font-style:normal;font-weight:normal;fill:none;stroke:#000000;stroke-width:1.61518252;stroke-linecap:square;stroke-linejoin:miter;stroke-miterlimit:10;stroke-opacity:1;stroke-dasharray:none;stroke-dashoffset:0;font-family:Dialog"
         x1="1754.983"
         x2="1114.2941"
         y1="721.19958"
         id="line3176" />
      <line
         y2="721.19958"
         style="font-size:12px;font-style:normal;font-weight:normal;fill:none;stroke:#000000;stroke-width:1.61518252;stroke-linecap:square;stroke-linejoin:miter;stroke-miterlimit:10;stroke-opacity:1;stroke-dasharray:none;stroke-dashoffset:0;font-family:Dialog"
         x1="1754.983"
         x2="1114.2941"
         y1="721.19958"
         id="line3178" />
      <line
         y2="526.99072"
         style="font-size:12px;font-style:normal;font-weight:normal;fill:none;stroke:#000000;stroke-width:1.61518252;stroke-linecap:square;stroke-linejoin:miter;stroke-miterlimit:10;stroke-opacity:1;stroke-dasharray:none;stroke-dashoffset:0;font-family:Dialog"
         x1="1468.6752"
         x2="1468.6752"
         y1="526.99072"
         id="line5492" />
      <line
         y2="595.0639"
         style="font-size:12px;font-style:normal;font-weight:normal;fill:none;stroke:#000000;stroke-width:1.61518252;stroke-linecap:square;stroke-linejoin:miter;stroke-miterlimit:10;stroke-opacity:1;stroke-dasharray:none;stroke-dashoffset:0;font-family:Dialog"
         x1="1468.6752"
         x2="1468.6752"
         y1="526.99072"
         id="line5496" />
      <line
         y2="595.0639"
         style="font-size:12px;font-style:normal;font-weight:normal;fill:none;stroke:#000000;stroke-width:1.61518252;stroke-linecap:square;stroke-linejoin:miter;stroke-miterlimit:10;stroke-opacity:1;stroke-dasharray:none;stroke-dashoffset:0;font-family:Dialog"
         x1="1468.6752"
         x2="1468.6752"
         y1="526.99072"
         id="line5498" />
      <line
         y2="526.99072"
         style="font-size:12px;font-style:normal;font-weight:normal;fill:none;stroke:#000000;stroke-width:1.61518252;stroke-linecap:square;stroke-linejoin:miter;stroke-miterlimit:10;stroke-opacity:1;stroke-dasharray:none;stroke-dashoffset:0;font-family:Dialog"
         x1="1400.6021"
         x2="1468.6752"
         y1="526.99072"
         id="line5530" />
      <line
         y2="595.0639"
         style="font-size:12px;font-style:normal;font-weight:normal;fill:none;stroke:#000000;stroke-width:1.61518252;stroke-linecap:square;stroke-linejoin:miter;stroke-miterlimit:10;stroke-opacity:1;stroke-dasharray:none;stroke-dashoffset:0;font-family:Dialog"
         x1="1468.6752"
         x2="1400.6021"
         y1="595.0639"
         id="line5532" />
      <line
         y2="526.99072"
         style="font-size:12px;font-style:normal;font-weight:normal;fill:none;stroke:#000000;stroke-width:1.61518252;stroke-linecap:square;stroke-linejoin:miter;stroke-miterlimit:10;stroke-opacity:1;stroke-dasharray:none;stroke-dashoffset:0;font-family:Dialog"
         x1="1400.6021"
         x2="1400.6021"
         y1="526.99072"
         id="line5534" />
      <line
         y2="526.99072"
         style="font-size:12px;font-style:normal;font-weight:normal;fill:none;stroke:#000000;stroke-width:1.61518252;stroke-linecap:square;stroke-linejoin:miter;stroke-miterlimit:10;stroke-opacity:1;stroke-dasharray:none;stroke-dashoffset:0;font-family:Dialog"
         x1="1400.6021"
         x2="1468.6752"
         y1="526.99072"
         id="line5536" />
      <line
         y2="595.0639"
         style="font-size:12px;font-style:normal;font-weight:normal;fill:none;stroke:#000000;stroke-width:1.61518252;stroke-linecap:square;stroke-linejoin:miter;stroke-miterlimit:10;stroke-opacity:1;stroke-dasharray:none;stroke-dashoffset:0;font-family:Dialog"
         x1="1400.6021"
         x2="1400.6021"
         y1="595.0639"
         id="line5538" />
      <line
         y2="595.0639"
         style="font-size:12px;font-style:normal;font-weight:normal;fill:none;stroke:#000000;stroke-width:1.61518252;stroke-linecap:square;stroke-linejoin:miter;stroke-miterlimit:10;stroke-opacity:1;stroke-dasharray:none;stroke-dashoffset:0;font-family:Dialog"
         x1="1468.6752"
         x2="1400.6021"
         y1="595.0639"
         id="line5540" />
      <line
         y2="526.99072"
         style="font-size:12px;font-style:normal;font-weight:normal;fill:none;stroke:#000000;stroke-width:1.61518252;stroke-linecap:square;stroke-linejoin:miter;stroke-miterlimit:10;stroke-opacity:1;stroke-dasharray:none;stroke-dashoffset:0;font-family:Dialog"
         x1="1400.6021"
         x2="1400.6021"
         y1="595.0639"
         id="line18982" />
      <line
         y2="526.99072"
         style="font-size:12px;font-style:normal;font-weight:normal;fill:none;stroke:#000000;stroke-width:1.61518252;stroke-linecap:square;stroke-linejoin:miter;stroke-miterlimit:10;stroke-opacity:1;stroke-dasharray:none;stroke-dashoffset:0;font-family:Dialog"
         x1="1400.6021"
         x2="1400.6021"
         y1="595.0639"
         id="line18984" />
      <line
         x1="1114.2941"
         x2="1114.2941"
         y1="721.19958"
         style="font-size:12px;font-style:normal;font-weight:normal;fill:none;stroke:#000000;stroke-width:1.61518252;stroke-linecap:square;stroke-linejoin:miter;stroke-miterlimit:10;stroke-opacity:1;stroke-dasharray:none;stroke-dashoffset:0;font-family:Dialog"
         y2="400.85498"
         id="line21398" />
      <line
         x1="1114.2941"
         x2="1114.2941"
         y1="721.19958"
         style="font-size:12px;font-style:normal;font-weight:normal;fill:none;stroke:#000000;stroke-width:1.61518252;stroke-linecap:square;stroke-linejoin:miter;stroke-miterlimit:10;stroke-opacity:1;stroke-dasharray:none;stroke-dashoffset:0;font-family:Dialog"
         y2="400.85498"
         id="line21400" />
      <path
         inkscape:connector-curvature="0"
         style="font-size:12px;font-style:normal;font-weight:normal;fill:#ffffff;fill-opacity:1;stroke:none;font-family:Dialog"
         d="m 1755.2523,397.89387 0,-83.98949 171.2093,0 0,83.98949 z"
         id="path21614" />
      <line
         y2="330.38846"
         style="font-size:12px;font-style:normal;font-weight:normal;fill:none;stroke:#0072bd;stroke-width:2.15352273;stroke-linecap:square;stroke-linejoin:miter;stroke-miterlimit:10;stroke-opacity:1;stroke-dasharray:none;stroke-dashoffset:0;font-family:Dialog"
         x1="1768.1144"
         x2="1832.4243"
         y1="330.38846"
         id="line21622" />
      <line
         y2="355.89911"
         style="font-size:12px;font-style:normal;font-weight:normal;fill:none;stroke:#d95319;stroke-width:2.15352273;stroke-linecap:square;stroke-linejoin:miter;stroke-miterlimit:10;stroke-opacity:1;stroke-dasharray:none;stroke-dashoffset:0;font-family:Dialog"
         x1="1768.1144"
         x2="1832.4243"
         y1="355.89911"
         id="line21630" />
      <line
         y2="381.40979"
         style="font-size:12px;font-style:normal;font-weight:normal;fill:none;stroke:#edb120;stroke-width:2.15352273;stroke-linecap:square;stroke-linejoin:miter;stroke-miterlimit:10;stroke-opacity:1;stroke-dasharray:none;stroke-dashoffset:0;font-family:Dialog"
         x1="1768.1144"
         x2="1832.4243"
         y1="381.40979"
         id="line21638" />
      <path
         inkscape:connector-curvature="0"
         d="m 1755.2523,397.89387 0,-83.98949 171.2093,0 0,83.98949 -171.2093,0"
         style="font-size:12px;font-style:normal;font-weight:normal;fill:none;stroke:#262626;stroke-width:1.61518252;stroke-linecap:square;stroke-linejoin:miter;stroke-miterlimit:10;stroke-opacity:1;stroke-dasharray:none;stroke-dashoffset:0;font-family:Dialog"
         id="path21640" />
      <g
         id="g78258"
         transform="matrix(1.6151825,0,0,1.6151825,868.1704,315.63969)">
        <path
           transform="matrix(1.0625,0,0,1.0625,-18.301099,-7.4363244)"
           d="m 293.82811,91.707108 c 0,4.463134 -3.61809,8.08122 -8.08122,8.08122 -4.46314,0 -8.08122,-3.618086 -8.08122,-8.08122 0,-4.463135 3.61808,-8.081221 8.08122,-8.081221 4.46313,0 8.08122,3.618086 8.08122,8.081221 z"
           sodipodi:ry="8.0812206"
           sodipodi:rx="8.0812206"
           sodipodi:cy="91.707108"
           sodipodi:cx="285.74689"
           id="path77468-5"
           style="fill:#000000;fill-opacity:1;stroke:none"
           sodipodi:type="arc" />
        <path
           transform="matrix(0.79301638,0,0,0.79301638,58.703007,17.277239)"
           d="m 293.82811,91.707108 c 0,4.463134 -3.61809,8.08122 -8.08122,8.08122 -4.46314,0 -8.08122,-3.618086 -8.08122,-8.08122 0,-4.463135 3.61808,-8.081221 8.08122,-8.081221 4.46313,0 8.08122,3.618086 8.08122,8.081221 z"
           sodipodi:ry="8.0812206"
           sodipodi:rx="8.0812206"
           sodipodi:cy="91.707108"
           sodipodi:cx="285.74689"
           id="path77468"
           style="fill:#ffffff;fill-opacity:1;stroke:none"
           sodipodi:type="arc" />
        <path
           transform="matrix(0.83582089,0,0,0.96551728,58.998989,12.807952)"
           d="m 273.75001,79.951469 c 0,1.430023 -1.33915,2.589286 -2.99107,2.589286 -1.65192,0 -2.99107,-1.159263 -2.99107,-2.589286 0,-1.430023 1.33915,-2.589285 2.99107,-2.589285 1.65192,0 2.99107,1.159262 2.99107,2.589285 z"
           sodipodi:ry="2.5892856"
           sodipodi:rx="2.9910715"
           sodipodi:cy="79.951469"
           sodipodi:cx="270.75894"
           id="path78256"
           style="fill:#000000;fill-opacity:1;stroke:none"
           sodipodi:type="arc" />
      </g>
      <path
         style="fill:none;stroke:#edb120;stroke-width:3.23036504;stroke-linecap:butt;stroke-linejoin:miter;stroke-miterlimit:4;stroke-opacity:1;stroke-dasharray:none"
         d="m 1325.5546,473.17079 c -2.1268,5.81555 -4.1665,11.66292 -6.1184,17.53949 -4.1365,12.45402 -7.878,25.03922 -11.2171,37.73031 l -3.875,27.53291 -2.6513,3.05922 c -3.062,-0.31455 -6.1214,-0.65448 -9.1777,-1.01974 -3.6757,-0.43927 -7.3469,-0.91518 -11.0131,-1.42763 l -7.3422,2.03948 -167.237,0.81579 4.4868,4.48685 23.658,3.67105 c 18.4868,1.54968 36.9781,3.04531 55.4737,4.48685 33.706,2.62704 67.4259,5.07446 101.158,7.34212 l 59.1448,8.97369 18.7632,5.30263 c 9.3964,0.77254 18.9006,0.22158 28.1448,-1.63157 10.1194,-2.0286 19.9242,-5.61909 28.9605,-10.60528 l 7.7501,-6.11844 0.4078,-13.46052"
         id="path78271"
         inkscape:path-effect="#path-effect78273-3"
         inkscape:original-d="m 1325.5546,473.17079 -6.1184,17.53949 -11.2171,37.73031 -3.875,27.53291 -2.6513,3.05922 -9.1777,-1.01974 -11.0131,-1.42763 -7.3422,2.03948 -167.237,0.81579 4.4868,4.48685 23.658,3.67105 55.4737,4.48685 101.158,7.34212 59.1448,8.97369 18.7632,5.30263 c 0,0 26.5132,-0.81579 28.1448,-1.63157 1.6316,-0.8158 28.9605,-10.60528 28.9605,-10.60528 l 7.7501,-6.11844 0.4078,-13.46052"
         inkscape:connector-curvature="0" />
      <path
         sodipodi:type="arc"
         style="fill:none;stroke:#000000;stroke-opacity:1"
         id="path78263"
         sodipodi:cx="358.73044"
         sodipodi:cy="166.61624"
         sodipodi:rx="12.121831"
         sodipodi:ry="12.216533"
         d="m 370.85227,166.61624 c 0,6.74701 -5.42713,12.21653 -12.12183,12.21653 -6.6947,0 -12.12183,-5.46952 -12.12183,-12.21653 0,-6.747 5.42713,-12.21653 12.12183,-12.21653 6.6947,0 12.12183,5.46953 12.12183,12.21653 z"
         transform="matrix(1.6151825,0,0,1.6151825,855.22344,291.98361)" />
      <path
         style="fill:none;stroke:#d95319;stroke-width:3.23036504;stroke-linecap:butt;stroke-linejoin:miter;stroke-miterlimit:4;stroke-opacity:1;stroke-dasharray:none"
         d="m 1327.692,473.97794 0.6057,2.82657 -2.8266,2.42277 -5.2493,2.22088 -0.4038,1.81708 142.3379,-0.60569 c 50.5188,2.10961 100.9653,5.94866 151.2215,11.50817 27.1158,2.99964 54.1763,6.5 81.1629,10.49869 10.6832,-0.21114 21.4084,2.93492 30.2847,8.8835 4.327,2.89979 8.3156,6.57704 10.4987,11.30628 1.5609,3.3813 2.1286,7.21388 1.6151,10.90248 l -6.0569,4.84555 c -18.3672,3.89481 -36.6754,8.068 -54.9162,12.51766 -49.5731,12.09288 -98.6308,26.22321 -148.193,38.36059 -13.8267,3.38605 -27.6915,6.61669 -41.5909,9.69109 l -11.3063,1.61519 -2.019,0 -5.6531,-11.71008 -2.8266,-7.26832 c -3.3335,-3.81644 -6.5654,-7.72164 -9.6911,-11.71007 -2.4909,-3.17848 -4.9144,-6.40982 -7.2683,-9.6911 l -12.1139,-1.21138"
         id="path78275"
         inkscape:path-effect="#path-effect78277-2"
         inkscape:original-d="m 1327.692,473.97794 0.6057,2.82657 -2.8266,2.42277 -5.2493,2.22088 -0.4038,1.81708 142.3379,-0.60569 151.2215,11.50817 81.1629,10.49869 c 0,0 28.2657,7.67212 30.2847,8.8835 2.019,1.21139 10.0949,9.6911 10.4987,11.30628 0.4038,1.61518 1.6151,10.90248 1.6151,10.90248 l -6.0569,4.84555 -54.9162,12.51766 -148.193,38.36059 -41.5909,9.69109 -11.3063,1.61519 -2.019,0 -5.6531,-11.71008 -2.8266,-7.26832 -9.6911,-11.71007 -7.2683,-9.6911 -12.1139,-1.21138"
         inkscape:connector-curvature="0" />
      <path
         style="fill:#000000;fill-opacity:0;stroke:#0072bd;stroke-width:3.23036504;stroke-linecap:butt;stroke-linejoin:miter;stroke-miterlimit:4;stroke-opacity:1;stroke-dasharray:none"
         d="m 1316.5147,463.97229 -12.9215,8.47971 c -5.7517,3.22842 -11.5399,6.39175 -17.3632,9.48919 -5.1557,2.74233 -10.3388,5.433 -15.5461,8.07592 -7.4883,3.80061 -15.0267,7.5025 -22.6126,11.10438 l -46.6384,9.89299 -29.679,1.00949 c -12.6306,-1.31313 -25.2858,-2.39017 -37.9567,-3.23037 -7.2637,-0.48165 -14.5326,-0.88548 -21.805,-1.21138 l -12.9215,1.61518 -8.0759,2.42277 6.0569,0 6.8646,11.30628 0,-14.94044 54.9162,23.82394 13.729,-5.24934 14.5367,-1.61518 18.1708,2.82657 19.3822,6.05693 13.729,5.65314 33.5151,3.23037 38.3605,1.21138 c 6.0405,1.54679 12.0979,3.02749 18.1708,4.44175 2.9576,0.68876 5.9188,1.36177 8.8836,2.01898 6.2976,-0.82288 12.6322,-1.362 18.9783,-1.61518 3.7671,-0.15029 7.5415,-0.19981 11.3063,0 8.4806,0.45009 16.8543,2.16304 25.0354,4.44175 6.0738,1.69176 12.0598,3.69712 18.1708,5.24935 5.3489,1.35867 10.7805,2.3668 16.1518,3.63416 4.6497,1.0971 9.2577,2.38917 13.9588,3.23942 3.395,0.61402 6.8319,0.99591 10.2789,1.14211 3.727,3.32044 8.714,5.19054 13.7053,5.13948 3.9791,-0.0407 7.8518,-1.24714 11.5768,-2.64702 3.725,-1.39988 7.3912,-3.01076 11.2653,-3.92008 5.0292,-1.18046 10.2526,-1.14357 15.4185,-1.14212 2.8553,8e-4 5.7106,-0.0111 8.5658,0 16.8672,0.0656 33.7249,0.93485 50.5382,2.28421 8.0999,0.65006 16.1908,1.41156 24.2697,2.28423 l 1.9987,2.56973 -47.3974,-4.56843 -17.7027,-6.28159 -11.7065,-7.13817 c 0.3751,4.2763 0.6607,8.56046 0.8565,12.84872 0.1433,3.13909 0.2385,6.28037 0.2856,9.42237 l -8.2803,-8.56579 -3.4263,3.42631 3.4263,9.7079 -5.425,3.42632 c -3.4574,-2.16362 -6.1292,-5.55465 -7.4237,-9.42238 -0.9796,-2.92678 -1.1786,-6.11087 -0.5711,-9.13685 2.4694,-0.80561 5.3107,-0.36848 7.4237,1.14212 1.6063,1.14832 2.7809,2.88622 3.2476,4.8048 0.4667,1.91858 0.2216,4.00185 -0.6778,5.75967 l -9.1369,5.42501 -7.1381,0.28553 c -0.6336,0.3267 -1.3896,0.4086 -2.0785,0.22518 -0.6889,-0.18343 -1.3041,-0.63043 -1.6914,-1.22895 -0.3873,-0.59852 -0.543,-1.34286 -0.428,-2.04642 0.115,-0.70357 0.4995,-1.35964 1.0571,-1.80377 0.4116,-0.32778 0.9065,-0.53853 1.4151,-0.67333 0.5086,-0.13481 1.0333,-0.1968 1.5565,-0.25221 1.0465,-0.11082 2.143,-0.21277 3.0244,-0.78762 0.778,-0.50741 1.3133,-1.37082 1.4218,-2.29328 0.1086,-0.92247 -0.2117,-1.88655 -0.8507,-2.56067 l -8.2803,-5.71052 -12.8487,1.71316 -11.7066,2.56974 -9.7079,-6.28159 c 1.7347,1.0246 3.8144,1.45269 5.8127,1.19649 1.9983,-0.2562 3.9027,-1.19508 5.3228,-2.62414 1.9785,-1.99102 2.958,-4.92928 2.5698,-7.70922 l 2.8553,11.42107 -13.7053,-7.70922 -10.85,-12.56316 -7.7093,-3.1408 8.5658,9.13686 0.5711,7.42368 -2.8553,2.56974"
         id="path78283"
         inkscape:path-effect="#path-effect78285-2"
         inkscape:original-d="m 1316.5147,463.97229 -12.9215,8.47971 -17.3632,9.48919 -15.5461,8.07592 -22.6126,11.10438 -46.6384,9.89299 -29.679,1.00949 -37.9567,-3.23037 -21.805,-1.21138 -12.9215,1.61518 -8.0759,2.42277 6.0569,0 6.8646,11.30628 0,-14.94044 54.9162,23.82394 13.729,-5.24934 14.5367,-1.61518 18.1708,2.82657 19.3822,6.05693 13.729,5.65314 33.5151,3.23037 38.3605,1.21138 18.1708,4.44175 8.8836,2.01898 c 0,0 16.5556,-1.61518 18.9783,-1.61518 2.4228,0 8.8835,-0.80759 11.3063,0 2.4228,0.80759 22.6126,4.44175 25.0354,4.44175 2.4227,0 16.5556,5.24935 18.1708,5.24935 1.6151,0 16.1518,3.63416 16.1518,3.63416 0,0 12.5311,3.23942 13.9588,3.23942 1.4276,0 10.2789,1.14211 10.2789,1.14211 0,0 7.4237,4.85395 13.7053,5.13948 6.2816,0.28553 20.8434,-5.71052 22.8421,-6.5671 1.9987,-0.85658 14.2764,-0.85658 15.4185,-1.14212 1.1421,-0.28553 8.5658,0 8.5658,0 0,0 48.254,2.28421 50.5382,2.28421 2.2842,0 24.2697,2.28423 24.2697,2.28423 l 1.9987,2.56973 -47.3974,-4.56843 -17.7027,-6.28159 -11.7065,-7.13817 0.8565,12.84872 0.2856,9.42237 -8.2803,-8.56579 -3.4263,3.42631 3.4263,9.7079 -5.425,3.42632 c 0,0 -7.1382,-7.99474 -7.4237,-9.42238 -0.2855,-1.42763 -0.5711,-9.13685 -0.5711,-9.13685 0,0 6.8527,-0.28553 7.4237,1.14212 0.5711,1.42762 2.5698,10.56447 2.5698,10.56447 l -9.1369,5.42501 -7.1381,0.28553 c 0,0 -3.4264,-3.71185 -3.1408,-4.85396 0.2855,-1.1421 5.1394,-2.85526 5.996,-1.71316 0.8566,1.14211 0.5711,-4.85395 0.5711,-4.85395 l -8.2803,-5.71052 -12.8487,1.71316 -11.7066,2.56974 -9.7079,-6.28159 c 0,0 9.7079,-1.42765 11.1355,-1.42765 1.4277,0 2.5698,-7.70922 2.5698,-7.70922 l 2.8553,11.42107 -13.7053,-7.70922 -10.85,-12.56316 -7.7093,-3.1408 8.5658,9.13686 0.5711,7.42368 -2.8553,2.56974"
         inkscape:connector-curvature="0" />
      <path
         sodipodi:type="arc"
         style="fill:none;stroke:#000000;stroke-width:7.86410904;stroke-miterlimit:4;stroke-opacity:1;stroke-dasharray:none"
         id="path78263-9"
         sodipodi:cx="358.73044"
         sodipodi:cy="166.61624"
         sodipodi:rx="12.121831"
         sodipodi:ry="12.216533"
         d="m 370.85227,166.61624 c 0,6.74701 -5.42713,12.21653 -12.12183,12.21653 -6.6947,0 -12.12183,-5.46952 -12.12183,-12.21653 0,-6.747 5.42713,-12.21653 12.12183,-12.21653 6.6947,0 12.12183,5.46953 12.12183,12.21653 z"
         transform="matrix(0.16430927,0,0,0.16430927,1367.1502,533.47214)" />
      <path
         sodipodi:type="arc"
         style="fill:none;stroke:#000000;stroke-width:7.86410904;stroke-miterlimit:4;stroke-opacity:1;stroke-dasharray:none"
         id="path78263-9-7"
         sodipodi:cx="358.73044"
         sodipodi:cy="166.61624"
         sodipodi:rx="12.121831"
         sodipodi:ry="12.216533"
         d="m 370.85227,166.61624 c 0,6.74701 -5.42713,12.21653 -12.12183,12.21653 -6.6947,0 -12.12183,-5.46952 -12.12183,-12.21653 0,-6.747 5.42713,-12.21653 12.12183,-12.21653 6.6947,0 12.12183,5.46953 12.12183,12.21653 z"
         transform="matrix(0.16430927,0,0,0.16430927,1383.4534,533.67048)" />
      <path
         sodipodi:type="arc"
         style="fill:none;stroke:#000000;stroke-width:7.86410904;stroke-miterlimit:4;stroke-opacity:1;stroke-dasharray:none"
         id="path78263-9-3"
         sodipodi:cx="358.73044"
         sodipodi:cy="166.61624"
         sodipodi:rx="12.121831"
         sodipodi:ry="12.216533"
         d="m 370.85227,166.61624 c 0,6.74701 -5.42713,12.21653 -12.12183,12.21653 -6.6947,0 -12.12183,-5.46952 -12.12183,-12.21653 0,-6.747 5.42713,-12.21653 12.12183,-12.21653 6.6947,0 12.12183,5.46953 12.12183,12.21653 z"
         transform="matrix(0.16430927,0,0,0.16430927,1375.4785,526.40216)" />
      <g
         transform="matrix(0.94328877,0,0,0.94328877,1708.7269,106.31858)"
         id="g78446">
        <g
           style="font-style:normal;font-variant:normal;font-weight:normal;font-stretch:normal;letter-spacing:normal;word-spacing:normal;text-anchor:start;fill:none;stroke:#000000;stroke-linecap:butt;stroke-linejoin:miter;stroke-miterlimit:10.43299961;stroke-opacity:1;stroke-dasharray:none;stroke-dashoffset:0"
           id="content-5"
           transform="matrix(0.50889269,0,0,-0.50889269,-89.05622,505.07662)"
           xml:space="preserve"
           stroke-miterlimit="10.433"
           font-style="normal"
           font-variant="normal"
           font-weight="normal"
           font-stretch="normal"
           font-size-adjust="none"
           letter-spacing="normal"
           word-spacing="normal"><path
             style="fill:#000000;stroke-width:0"
             inkscape:connector-curvature="0"
             d="m 481.33,406.54 0.55,0.26 0.53,0.28 0.53,0.3 0.51,0.32 0.51,0.34 0.49,0.37 0.47,0.38 0.47,0.39 0.45,0.42 0.44,0.43 0.42,0.46 0.41,0.46 0.4,0.49 0.37,0.5 0.36,0.51 0.35,0.53 0.33,0.55 0.31,0.56 0.29,0.57 0.27,0.58 0.26,0.6 0.23,0.61 0.21,0.62 0.2,0.63 0.17,0.64 0.15,0.65 0.13,0.66 0.11,0.68 0.08,0.67 0.06,0.69 0.04,0.7 0.01,0.7 c 0,10.16 -7.53,18.23 -16.59,18.23 v -1.25 c 4.83,0 11.61,-4.28 11.61,-16.98 0,-3.89 -0.6,-10.91 -5.88,-14.8 -1.09,2.78 -2.69,5.28 -5.62,5.28 v -1.09 c 2.68,0 3.78,-2.09 4.33,-4.98 h 0 c -1.69,-0.96 -3.29,-1.14 -4.4,-1.14 -2.53,0 -2.93,2.28 -2.93,3.03 0,1.45 1.04,3.09 3,3.09 v 1.09 c -2.55,0 -4.1,-2.14 -4.1,-4.18 0,-1.35 0.66,-2.3 0.71,-2.39 h 0 c -2.69,1 -8.28,4.64 -8.28,16.09 0,12.95 6.98,16.98 11.56,16.98 v 1.25 c -8.92,0 -16.53,-7.96 -16.53,-18.23 0,-10.06 7.51,-17.98 16.57,-17.98 1.55,0 3.3,0.29 4.74,0.75 0.75,-4.74 1.45,-9.33 6.08,-9.33 5.09,0 6.03,6.62 6.03,9.17 0,0.5 0,1.05 -0.55,1.05 -0.45,0 -0.5,-0.39 -0.55,-0.89 -0.29,-2.71 -2.39,-4.19 -4.53,-4.19 -2.34,0 -3.59,1.69 -4.78,4.87 z"
             id="path78449" /><polygon
             style="fill:#000000;stroke-width:0"
             points="494.82,415.51 508.03,415.51 508.03,418.4 494.82,418.4 "
             id="polygon78451" /><path
             style="fill:#000000;stroke-width:0"
             inkscape:connector-curvature="0"
             d="m 517.62,410.09 0,-0.16 -0.01,-0.16 0,-0.15 -0.01,-0.15 0,-0.13 -0.02,-0.13 -0.02,-0.13 -0.02,-0.11 -0.03,-0.12 -0.04,-0.1 -0.04,-0.1 -0.05,-0.09 -0.06,-0.09 -0.07,-0.08 -0.08,-0.08 -0.09,-0.07 -0.1,-0.06 -0.11,-0.06 -0.06,-0.03 -0.06,-0.03 -0.07,-0.02 -0.07,-0.03 -0.08,-0.02 -0.07,-0.02 -0.09,-0.02 -0.08,-0.02 -0.09,-0.02 -0.09,-0.02 -0.1,-0.02 -0.1,-0.01 -0.1,-0.01 -0.11,-0.02 -0.12,-0.01 -0.12,-0.01 -0.12,-0.01 -0.12,-0.01 -0.14,-0.01 -0.13,-0.01 -0.14,0 -0.15,-0.01 -0.15,0 -0.15,-0.01 -0.17,0 -0.16,0 -0.17,0 -0.18,0 h -1.2 v -1.55 h 28.75 l 2.09,12.86 h -1.25 c -1.23,-7.67 -2.39,-11.31 -10.95,-11.31 h -6.63 c -2.34,0 -2.45,0.34 -2.45,1.98 v 13.31 h 4.48 c 4.85,0 5.39,-1.59 5.39,-5.83 h 1.24 v 13.21 h -1.24 c 0,-4.3 -0.54,-5.83 -5.39,-5.83 h -4.48 v 11.95 c 0,1.64 0.11,1.99 2.45,1.99 h 6.42 c 7.63,0 8.97,-2.74 9.77,-9.66 h 1.25 l -1.41,11.2 h -28.04 v -1.54 h 1.2 c 3.83,0 3.94,-0.55 3.94,-2.33 z"
             id="path78453" /><path
             style="fill:#000000;stroke-width:0"
             inkscape:connector-curvature="0"
             d="m 556.79,439.14 -0.02,0.05 -0.02,0.05 -0.02,0.04 -0.02,0.05 -0.03,0.09 -0.04,0.08 -0.04,0.07 -0.03,0.07 -0.04,0.07 -0.03,0.06 -0.04,0.05 -0.03,0.05 -0.04,0.05 -0.04,0.04 -0.04,0.04 -0.04,0.04 -0.04,0.03 -0.04,0.02 -0.05,0.03 -0.04,0.02 -0.05,0.02 -0.06,0.01 -0.05,0.02 -0.06,0.01 -0.06,0.01 -0.07,0 -0.07,0.01 -0.08,0 -0.07,0.01 -0.09,0 -0.09,0 -0.09,0 -0.1,0 -0.1,0 h -8.42 v -1.55 h 1.2 c 3.83,0 3.92,-0.54 3.92,-2.34 v -24.91 c 0,-1.34 0,-3.68 -5.12,-3.68 v -1.55 c 1.75,0.05 4.18,0.16 5.83,0.16 1.63,0 4.09,-0.11 5.82,-0.16 v 1.55 c -5.12,0 -5.12,2.34 -5.12,3.68 v 26.85 h 0.05 l 12,-30.99 c 0.25,-0.64 0.5,-1.09 1,-1.09 0.54,0 0.7,0.41 0.88,0.95 l 12.27,31.53 h 0.05 v -28.59 c 0,-1.8 -0.1,-2.34 -3.94,-2.34 h -1.19 v -1.55 c 1.85,0.16 5.22,0.16 7.18,0.16 1.93,0 5.28,0 7.12,-0.16 v 1.55 h -1.2 c -3.83,0 -3.94,0.54 -3.94,2.34 v 26.25 c 0,1.8 0.11,2.34 3.94,2.34 h 1.2 v 1.55 h -8.42 c -1.3,0 -1.3,-0.05 -1.64,-0.95 L 567.6,411.23 z"
             id="path78455" /></g>      </g>
      <g
         transform="matrix(0.96439205,0,0,0.96439205,1706.2553,74.805644)"
         id="g78691">
        <g
           style="font-style:normal;font-variant:normal;font-weight:normal;font-stretch:normal;letter-spacing:normal;word-spacing:normal;text-anchor:start;fill:none;stroke:#000000;stroke-linecap:butt;stroke-linejoin:miter;stroke-miterlimit:10.43299961;stroke-opacity:1;stroke-dasharray:none;stroke-dashoffset:0"
           word-spacing="normal"
           letter-spacing="normal"
           font-size-adjust="none"
           font-stretch="normal"
           font-weight="normal"
           font-variant="normal"
           font-style="normal"
           stroke-miterlimit="10.433"
           xml:space="preserve"
           transform="matrix(0.50889269,0,0,-0.50889269,-89.05622,505.07662)"
           id="g78693"><path
             style="fill:#000000;stroke-width:0"
             inkscape:connector-curvature="0"
             id="path78695"
             d="m 485.07,409.34 0.06,-0.11 0.07,-0.11 0.08,-0.11 0.08,-0.12 0.1,-0.12 0.09,-0.12 0.1,-0.13 0.11,-0.12 0.11,-0.13 0.11,-0.13 0.23,-0.26 0.24,-0.25 0.25,-0.25 0.12,-0.11 0.12,-0.12 0.12,-0.11 0.11,-0.1 0.12,-0.1 0.11,-0.1 0.11,-0.08 0.11,-0.08 0.1,-0.08 0.09,-0.06 0.09,-0.06 0.09,-0.05 0.07,-0.03 0.08,-0.03 0.03,-0.01 0.03,-0.01 0.03,0 0.02,0 c 0.46,0 0.46,0.4 0.46,1.15 v 8.66 c 0,1.95 0.18,2.2 3.43,2.2 v 1.53 c -1.84,-0.04 -4.59,-0.14 -6.07,-0.14 -2,0 -6.24,0 -8.03,0.14 v -1.53 h 1.59 c 4.48,0 4.64,-0.55 4.64,-2.39 v -3.19 c 0,-5.59 -6.33,-6.03 -7.72,-6.03 -3.25,0 -13.11,1.74 -13.11,16.58 0,14.91 9.81,16.55 12.8,16.55 5.34,0 9.87,-4.49 10.87,-11.82 0.1,-0.68 0.1,-0.84 0.8,-0.84 0.8,0 0.8,0.16 0.8,1.2 v 11.8 c 0,0.86 0,1.2 -0.55,1.2 -0.2,0 -0.41,0 -0.81,-0.59 l -2.49,-3.69 c -1.59,1.6 -4.28,4.28 -9.22,4.28 -9.26,0 -17.32,-7.87 -17.32,-18.09 0,-10.2 7.97,-18.12 17.43,-18.12 3.63,0 7.61,1.29 9.32,4.23 z" /><path
             style="fill:#000000;stroke-width:0"
             inkscape:connector-curvature="0"
             id="path78697"
             d="m 506.64,439.14 -0.02,0.05 -0.02,0.05 -0.02,0.04 -0.02,0.05 -0.04,0.09 -0.04,0.08 -0.03,0.07 -0.04,0.07 -0.03,0.07 -0.04,0.06 -0.03,0.05 -0.04,0.05 -0.04,0.05 -0.03,0.04 -0.04,0.04 -0.04,0.04 -0.04,0.03 -0.05,0.02 -0.04,0.03 -0.05,0.02 -0.05,0.02 -0.05,0.01 -0.06,0.02 -0.06,0.01 -0.06,0.01 -0.07,0 -0.07,0.01 -0.07,0 -0.08,0.01 -0.08,0 -0.09,0 -0.1,0 -0.09,0 -0.11,0 h -8.42 v -1.55 h 1.2 c 3.83,0 3.93,-0.54 3.93,-2.34 v -24.91 c 0,-1.34 0,-3.68 -5.13,-3.68 v -1.55 c 1.75,0.05 4.19,0.16 5.83,0.16 1.64,0 4.09,-0.11 5.83,-0.16 v 1.55 c -5.13,0 -5.13,2.34 -5.13,3.68 v 26.85 h 0.05 l 12,-30.99 c 0.25,-0.64 0.5,-1.09 1,-1.09 0.54,0 0.7,0.41 0.89,0.95 l 12.27,31.53 h 0.04 v -28.59 c 0,-1.8 -0.09,-2.34 -3.94,-2.34 h -1.18 v -1.55 c 1.84,0.16 5.21,0.16 7.17,0.16 1.94,0 5.28,0 7.12,-0.16 v 1.55 h -1.2 c -3.83,0 -3.94,0.54 -3.94,2.34 v 26.25 c 0,1.8 0.11,2.34 3.94,2.34 h 1.2 v 1.55 h -8.42 c -1.29,0 -1.29,-0.05 -1.64,-0.95 l -10.92,-28.05 z" /><path
             style="fill:#000000;stroke-width:0"
             inkscape:connector-curvature="0"
             id="path78699"
             d="m 552.35,439.14 -0.02,0.05 -0.02,0.05 -0.01,0.04 -0.02,0.05 -0.04,0.09 -0.04,0.08 -0.03,0.07 -0.04,0.07 -0.03,0.07 -0.04,0.06 -0.04,0.05 -0.03,0.05 -0.04,0.05 -0.03,0.04 -0.04,0.04 -0.04,0.04 -0.04,0.03 -0.05,0.02 -0.04,0.03 -0.05,0.02 -0.05,0.02 -0.05,0.01 -0.06,0.02 -0.06,0.01 -0.06,0.01 -0.07,0 -0.07,0.01 -0.07,0 -0.08,0.01 -0.08,0 -0.09,0 -0.1,0 -0.09,0 -0.11,0 h -8.42 v -1.55 h 1.2 c 3.83,0 3.92,-0.54 3.92,-2.34 v -24.91 c 0,-1.34 0,-3.68 -5.12,-3.68 v -1.55 c 1.75,0.05 4.19,0.16 5.83,0.16 1.64,0 4.09,-0.11 5.82,-0.16 v 1.55 c -5.12,0 -5.12,2.34 -5.12,3.68 v 26.85 h 0.05 l 12,-30.99 c 0.25,-0.64 0.5,-1.09 1,-1.09 0.54,0 0.7,0.41 0.89,0.95 l 12.26,31.53 h 0.05 v -28.59 c 0,-1.8 -0.09,-2.34 -3.94,-2.34 h -1.19 v -1.55 c 1.85,0.16 5.22,0.16 7.18,0.16 1.94,0 5.28,0 7.12,-0.16 v 1.55 h -1.2 c -3.83,0 -3.94,0.54 -3.94,2.34 v 26.25 c 0,1.8 0.11,2.34 3.94,2.34 h 1.2 v 1.55 h -8.42 c -1.3,0 -1.3,-0.05 -1.64,-0.95 l -10.92,-28.05 z" /></g>      </g>
      <g
         transform="matrix(0.96616651,0,0,0.96616651,1706.1874,47.828446)"
         id="g78945">
        <g
           style="font-style:normal;font-variant:normal;font-weight:normal;font-stretch:normal;letter-spacing:normal;word-spacing:normal;text-anchor:start;fill:none;stroke:#000000;stroke-linecap:butt;stroke-linejoin:miter;stroke-miterlimit:10.43299961;stroke-opacity:1;stroke-dasharray:none;stroke-dashoffset:0"
           id="g78947"
           transform="matrix(0.50889269,0,0,-0.50889269,-89.05622,505.07662)"
           xml:space="preserve"
           stroke-miterlimit="10.433"
           font-style="normal"
           font-variant="normal"
           font-weight="normal"
           font-stretch="normal"
           font-size-adjust="none"
           letter-spacing="normal"
           word-spacing="normal"><path
             style="fill:#000000;stroke-width:0"
             inkscape:connector-curvature="0"
             d="m 486.07,436.34 0,0.16 0,0.16 0,0.15 0.01,0.15 0.01,0.13 0.01,0.13 0.02,0.13 0.02,0.11 0.03,0.12 0.03,0.1 0.05,0.1 0.05,0.09 0.06,0.09 0.06,0.08 0.08,0.08 0.09,0.07 0.1,0.06 0.11,0.06 0.06,0.03 0.07,0.03 0.06,0.02 0.07,0.03 0.08,0.02 0.08,0.02 0.08,0.02 0.08,0.02 0.09,0.02 0.09,0.02 0.1,0.02 0.1,0.01 0.1,0.01 0.11,0.02 0.12,0.01 0.11,0.01 0.13,0.01 0.12,0.01 0.13,0.01 0.14,0.01 0.14,0 0.15,0.01 0.15,0 0.15,0.01 0.16,0 0.17,0 0.17,0 0.18,0 h 1.2 v 1.55 c -1.75,-0.16 -5.44,-0.16 -7.33,-0.16 -1.89,0 -5.62,0 -7.37,0.16 v -1.55 h 1.2 c 3.83,0 3.94,-0.54 3.94,-2.34 v -11.66 h -14.91 v 11.66 c 0,1.8 0.11,2.34 3.94,2.34 h 1.2 v 1.55 c -1.75,-0.16 -5.43,-0.16 -7.32,-0.16 -1.9,0 -5.63,0 -7.38,0.16 v -1.55 h 1.2 c 3.83,0 3.94,-0.54 3.94,-2.34 v -26.25 c 0,-1.8 -0.11,-2.34 -3.94,-2.34 h -1.2 v -1.55 c 1.75,0.16 5.44,0.16 7.33,0.16 1.89,0 5.62,0 7.37,-0.16 v 1.55 h -1.2 c -3.83,0 -3.94,0.54 -3.94,2.34 v 13.05 h 14.91 v -13.05 c 0,-1.8 -0.11,-2.34 -3.94,-2.34 h -1.2 v -1.55 c 1.75,0.16 5.44,0.16 7.33,0.16 1.89,0 5.62,0 7.37,-0.16 v 1.55 h -1.2 c -3.83,0 -3.92,0.54 -3.92,2.34 z"
             id="path78949" /><path
             style="fill:#000000;stroke-width:0"
             inkscape:connector-curvature="0"
             d="m 512.32,410.14 v -4.49 l 7.17,0.55 v 1.55 c -3.48,0 -3.89,0.34 -3.89,2.78 v 17.68 l -7.33,-0.54 v -1.55 c 3.5,0 3.89,-0.34 3.89,-2.78 v -8.88 c 0,-4.32 -2.39,-7.71 -6.03,-7.71 -4.17,0 -4.37,2.34 -4.37,4.93 v 16.53 l -7.33,-0.54 v -1.55 c 3.89,0 3.89,-0.14 3.89,-4.58 v -7.47 c 0,-3.89 0,-8.42 7.56,-8.42 2.8,0 4.99,1.39 6.44,4.49 z"
             id="path78951" /><path
             style="fill:#000000;stroke-width:0"
             inkscape:connector-curvature="0"
             d="m 526.04,423.34 v -13.36 c 0,-2.23 -0.55,-2.23 -3.89,-2.23 v -1.55 c 1.75,0.05 4.28,0.16 5.62,0.16 1.3,0 3.89,-0.11 5.58,-0.16 v 1.55 c -3.33,0 -3.87,0 -3.87,2.23 v 9.17 c 0,5.19 3.53,7.97 6.72,7.97 3.14,0 3.68,-2.69 3.68,-5.53 v -11.61 c 0,-2.23 -0.54,-2.23 -3.89,-2.23 v -1.55 c 1.75,0.05 4.3,0.16 5.64,0.16 1.3,0 3.88,-0.11 5.58,-0.16 v 1.55 c -3.34,0 -3.89,0 -3.89,2.23 v 9.17 c 0,5.19 3.55,7.97 6.73,7.97 3.15,0 3.69,-2.69 3.69,-5.53 v -11.61 c 0,-2.23 -0.54,-2.23 -3.89,-2.23 v -1.55 c 1.74,0.05 4.28,0.16 5.63,0.16 1.29,0 3.89,-0.11 5.57,-0.16 v 1.55 c -2.57,0 -3.82,0 -3.87,1.5 v 9.51 c 0,4.28 0,5.83 -1.55,7.61 -0.7,0.86 -2.34,1.84 -5.23,1.84 -4.19,0 -6.38,-2.98 -7.22,-4.87 -0.7,4.33 -4.39,4.87 -6.63,4.87 -3.64,0 -5.98,-2.14 -7.37,-5.21 v 5.21 l -7.03,-0.54 v -1.55 c 3.48,0 3.89,-0.34 3.89,-2.78 z"
             id="path78953" /><path
             style="fill:#000000;stroke-width:0"
             inkscape:connector-curvature="0"
             d="m 578.67,409.98 0.02,-0.19 0.03,-0.18 0.04,-0.19 0.04,-0.18 0.05,-0.19 0.05,-0.18 0.06,-0.18 0.07,-0.18 0.08,-0.18 0.08,-0.17 0.09,-0.18 0.09,-0.16 0.1,-0.16 0.11,-0.16 0.11,-0.16 0.12,-0.14 0.13,-0.14 0.13,-0.14 0.14,-0.13 0.14,-0.12 0.15,-0.12 0.16,-0.1 0.16,-0.1 0.17,-0.09 0.18,-0.08 0.18,-0.07 0.18,-0.06 0.2,-0.05 0.2,-0.04 0.2,-0.03 0.21,-0.02 0.22,-0.01 c 1.03,0 4.08,0.71 4.08,4.74 v 2.78 h -1.25 v -2.78 c 0,-2.89 -1.24,-3.19 -1.8,-3.19 -1.64,0 -1.84,2.23 -1.84,2.48 v 9.97 c 0,2.1 0,4.03 -1.78,5.88 -1.96,1.93 -4.44,2.73 -6.83,2.73 -4.1,0 -7.54,-2.33 -7.54,-5.62 0,-1.49 1,-2.35 2.3,-2.35 1.39,0 2.3,1 2.3,2.3 0,0.59 -0.25,2.23 -2.55,2.3 1.35,1.73 3.78,2.28 5.38,2.28 2.45,0 5.28,-1.94 5.28,-6.38 v -1.84 -1.05 -4.98 c 0,-4.74 -3.58,-6.42 -5.83,-6.42 -2.44,0 -4.48,1.75 -4.48,4.23 0,2.73 2.09,6.88 10.31,7.17 h 0 v 1.05 c -2.53,-0.14 -6.02,-0.3 -9.16,-1.8 -3.73,-1.69 -4.98,-4.28 -4.98,-6.47 0,-4.03 4.83,-5.28 7.97,-5.28 3.29,0 5.58,1.99 6.53,4.33 z"
             id="path78955" /><path
             style="fill:#000000;stroke-width:0"
             inkscape:connector-curvature="0"
             d="m 592.52,423.34 v -13.36 c 0,-2.23 -0.55,-2.23 -3.9,-2.23 v -1.55 c 1.76,0.05 4.29,0.16 5.63,0.16 1.3,0 3.89,-0.11 5.58,-0.16 v 1.55 c -3.33,0 -3.88,0 -3.88,2.23 v 9.17 c 0,5.19 3.53,7.97 6.72,7.97 3.14,0 3.69,-2.69 3.69,-5.53 v -11.61 c 0,-2.23 -0.55,-2.23 -3.89,-2.23 v -1.55 c 1.75,0.05 4.3,0.16 5.64,0.16 1.3,0 3.87,-0.11 5.58,-0.16 v 1.55 c -2.6,0 -3.85,0 -3.89,1.5 v 9.51 c 0,4.28 0,5.83 -1.55,7.61 -0.69,0.86 -2.34,1.84 -5.22,1.84 -3.64,0 -5.98,-2.14 -7.37,-5.21 v 5.21 l -7.04,-0.54 v -1.55 c 3.49,0 3.9,-0.34 3.9,-2.78 z"
             id="path78957" /></g>      </g>
    </g>
  </g>
</svg>
