<?xml version="1.0" encoding="UTF-8" standalone="no"?>
<!-- Created with Inkscape (http://www.inkscape.org/) -->

<svg
   xmlns:dc="http://purl.org/dc/elements/1.1/"
   xmlns:cc="http://creativecommons.org/ns#"
   xmlns:rdf="http://www.w3.org/1999/02/22-rdf-syntax-ns#"
   xmlns:svg="http://www.w3.org/2000/svg"
   xmlns="http://www.w3.org/2000/svg"
   xmlns:sodipodi="http://sodipodi.sourceforge.net/DTD/sodipodi-0.dtd"
   xmlns:inkscape="http://www.inkscape.org/namespaces/inkscape"
   inkscape:version="0.48.4 r9939"
   version="1.1"
   id="svg2"
   height="65.432983"
   width="112.97602"
   sodipodi:docname="gmm_problem.svg">
  <sodipodi:namedview
     id="base"
     pagecolor="#ffffff"
     bordercolor="#666666"
     borderopacity="1.0"
     inkscape:pageopacity="0.0"
     inkscape:pageshadow="2"
     inkscape:zoom="8"
     inkscape:cx="46.653474"
     inkscape:cy="44.191765"
     inkscape:document-units="px"
     inkscape:current-layer="svg2"
     showgrid="true"
     objecttolerance="1"
     guidetolerance="1"
     gridtolerance="1"
     inkscape:window-width="1680"
     inkscape:window-height="974"
     inkscape:window-x="1680"
     inkscape:window-y="24"
     inkscape:window-maximized="1"
     fit-margin-top="0"
     fit-margin-left="0"
     fit-margin-right="0"
     fit-margin-bottom="0">
    <inkscape:grid
       type="xygrid"
       id="grid2985"
       empspacing="5"
       visible="true"
       enabled="true"
       snapvisiblegridlinesonly="true"
       originx="-78.782828px"
       originy="-898.41307px" />
  </sodipodi:namedview>
  <defs
     id="defs4">
    <marker
       inkscape:stockid="Arrow2Mstart"
       orient="auto"
       refY="0.0"
       refX="0.0"
       id="Arrow2Mstart"
       style="overflow:visible">
      <path
         id="path4579"
         style="fill-rule:evenodd;stroke-width:0.62500000;stroke-linejoin:round"
         d="M 8.7185878,4.0337352 L -2.2072895,0.016013256 L 8.7185884,-4.0017078 C 6.9730900,-1.6296469 6.9831476,1.6157441 8.7185878,4.0337352 z "
         transform="scale(0.6) translate(0,0)" />
    </marker>
    <marker
       inkscape:stockid="Arrow2Mend"
       orient="auto"
       refY="0"
       refX="0"
       id="Arrow2Mend"
       style="overflow:visible">
      <path
         id="path4173"
         style="fill-rule:evenodd;stroke-width:0.625;stroke-linejoin:round"
         d="M 8.7185878,4.0337352 -2.2072895,0.01601326 8.7185884,-4.0017078 c -1.7454984,2.3720609 -1.7354408,5.6174519 -6e-7,8.035443 z"
         transform="scale(-0.6,-0.6)"
         inkscape:connector-curvature="0" />
    </marker>
    <inkscape:path-effect
       effect="spiro"
       id="path-effect5309"
       is_visible="true" />
    <inkscape:path-effect
       effect="spiro"
       id="path-effect5195"
       is_visible="true" />
    <inkscape:path-effect
       effect="spiro"
       id="path-effect4127"
       is_visible="true" />
    <inkscape:path-effect
       effect="spiro"
       id="path-effect3763"
       is_visible="true" />
    <inkscape:path-effect
       effect="spiro"
       id="path-effect5195-7"
       is_visible="true" />
    <inkscape:path-effect
       effect="spiro"
       id="path-effect5195-72"
       is_visible="true" />
    <inkscape:path-effect
       effect="spiro"
       id="path-effect5195-7-6"
       is_visible="true" />
    <inkscape:path-effect
       effect="spiro"
       id="path-effect5195-1"
       is_visible="true" />
    <inkscape:path-effect
       effect="spiro"
       id="path-effect5195-7-0"
       is_visible="true" />
    <inkscape:path-effect
       effect="spiro"
       id="path-effect5195-7-6-6"
       is_visible="true" />
    <inkscape:path-effect
       effect="spiro"
       id="path-effect5309-1"
       is_visible="true" />
    <inkscape:path-effect
       effect="spiro"
       id="path-effect3763-3"
       is_visible="true" />
    <inkscape:path-effect
       effect="spiro"
       id="path-effect5309-1-8"
       is_visible="true" />
    <inkscape:path-effect
       effect="spiro"
       id="path-effect3763-3-5"
       is_visible="true" />
    <inkscape:path-effect
       effect="spiro"
       id="path-effect3763-4"
       is_visible="true" />
    <inkscape:path-effect
       effect="spiro"
       id="path-effect3763-48"
       is_visible="true" />
  </defs>
  <metadata
     id="metadata7">
    <rdf:RDF>
      <cc:Work
         rdf:about="">
        <dc:format>image/svg+xml</dc:format>
        <dc:type
           rdf:resource="http://purl.org/dc/dcmitype/StillImage" />
        <dc:title />
      </cc:Work>
    </rdf:RDF>
  </metadata>
  <g
     inkscape:label="Layer 1"
     inkscape:groupmode="layer"
     id="layer1"
     transform="translate(-78.782828,-88.51613)" />
  <rect
     style="fill:none;stroke:#000000;stroke-width:0.36585941999999999;stroke-linejoin:miter;stroke-miterlimit:4;stroke-opacity:1;stroke-dasharray:none;stroke-dashoffset:0"
     id="rect2987"
     width="9.5962963"
     height="99.266861"
     x="-29.144339"
     y="12.9152"
     transform="matrix(0,-1,1,0,0,0)" />
  <path
     style="fill:none;stroke:#0000ff;stroke-width:0.5;stroke-linecap:butt;stroke-linejoin:miter;stroke-miterlimit:4;stroke-opacity:1;stroke-dasharray:none;stroke-dashoffset:0;marker-start:none;marker-mid:none;marker-end:none"
     d="m 111.98227,0.25 c -0.16938,1.3673168 -0.50601,2.7138341 -1,4 -1.29966,3.3838544 -3.76415,6.366329 -7,8 -2.42118,1.222371 -5.160148,1.671828 -7.86607,1.856945 C 93.410277,14.292063 90.694519,14.25 87.982272,14.25 c -23.619374,0 -47.238749,0 -70.858123,0 -1.662543,0 -3.325085,0 -4.987628,0 -0.568269,0 -1.143181,0.01356 -1.691302,0.163534 C 9.8970981,14.56351 9.3820701,14.846154 8.982273,15.25 8.5601705,15.676377 8.2749065,16.228233 8.1285911,16.810092 7.9822757,17.391951 7.9770542,17.998679 7.982273,18.59863 c 0.012631,1.452057 0.012631,2.904223 0,4.35628 -0.01748,2.009481 -0.059151,4.018752 -0.125,6.02723"
     id="path3761"
     inkscape:path-effect="#path-effect3763"
     inkscape:original-d="m 111.98227,0.25 c 0,0 0.74749,-0.26587 -1,4 -1.74749,4.26587 -5,6 -7,8 -2,2 -15.999998,2 -15.999998,2 l -70.858123,0 -4.987628,0 c 0,0 -2.152175,-0.002 -3.154248,1 -1.002074,1.00207 -1,3.34863 -1,3.34863 l 0,4.35628 -0.125,6.02723"
     inkscape:connector-curvature="0"
     sodipodi:nodetypes="czzccczccc" />
  <path
     style="fill:none;stroke:#0000ff;stroke-width:0.5;stroke-linecap:butt;stroke-linejoin:miter;stroke-miterlimit:4;stroke-opacity:0.42465754;stroke-dasharray:none"
     d="m 112.72602,5.11671 c 0,0 -1.61113,0.37635 -6.08082,2.70472 -4.46969,2.32836 -7.966378,6.66112 -13.001998,7.68361 -5.03562,1.02249 -16.70088,-1.08609 -22.26976,-2.58295 -5.56887,-1.49686 -17.37055,4.03343 -26.98051,3.50832 -8.33248,-0.68857 -15.58468,-7.42539 -23.196376,-3.96613 -8.051583,3.181725 -11.337931,4.28737 -12.776157,6.71919 -1.142924,1.9325 -1.583688,8.34164 -0.884557,11.13796"
     id="path4125"
     inkscape:connector-curvature="0"
     sodipodi:nodetypes="czzzccsc" />
  <path
     sodipodi:type="arc"
     style="fill:#00ff00;fill-opacity:0.44748858;stroke:#000000;stroke-width:0.5;stroke-linejoin:miter;stroke-miterlimit:4;stroke-opacity:1;stroke-dasharray:none;stroke-dashoffset:0"
     id="path4130"
     sodipodi:cx="224.375"
     sodipodi:cy="136.02289"
     sodipodi:rx="9.1964283"
     sodipodi:ry="23.839285"
     d="m 233.57143,136.02289 a 9.1964283,23.839285 0 1 1 -18.39286,0 9.1964283,23.839285 0 1 1 18.39286,0 z"
     transform="matrix(0,-0.32462551,1.0034721,0,-76.667608,87.08244)" />
  <path
     sodipodi:type="arc"
     style="fill:#000000;fill-opacity:1;stroke:#000000;stroke-width:0.5;stroke-linejoin:miter;stroke-miterlimit:4;stroke-opacity:1;stroke-dasharray:none;stroke-dashoffset:0"
     id="path4132"
     sodipodi:cx="188.21428"
     sodipodi:cy="119.32647"
     sodipodi:rx="0.625"
     sodipodi:ry="0.625"
     d="m 188.83928,119.32647 a 0.625,0.625 0 1 1 -1.25,0 0.625,0.625 0 1 1 1.25,0 z"
     transform="matrix(0,-0.85714286,0.85714286,0,-42.395519,175.48945)" />
  <path
     sodipodi:type="star"
     style="fill:#0000ff;fill-opacity:0.42353151;stroke:none"
     id="path4813"
     sodipodi:sides="3"
     sodipodi:cx="120.87107"
     sodipodi:cy="65.032768"
     sodipodi:r1="0.99824464"
     sodipodi:r2="0.49912232"
     sodipodi:arg1="0.60554466"
     sodipodi:arg2="1.6527422"
     inkscape:flatsided="false"
     inkscape:rounded="0"
     inkscape:randomized="0"
     d="m 121.69182,65.600979 -0.8616,-0.07076 -0.86161,-0.07076 0.49209,-0.710789 0.49208,-0.71079 0.36952,0.781553 z"
     inkscape:transform-center-x="0.13563855"
     inkscape:transform-center-y="-0.12271515"
     transform="matrix(0.75388209,0.65700974,-0.65700974,0.75388209,-40.6519,-97.657009)" />
  <path
     sodipodi:type="star"
     style="fill:#0000ff;fill-opacity:1;stroke:none"
     id="path4813-7"
     sodipodi:sides="3"
     sodipodi:cx="120.87107"
     sodipodi:cy="65.032768"
     sodipodi:r1="0.99824464"
     sodipodi:r2="0.49912232"
     sodipodi:arg1="0.60554466"
     sodipodi:arg2="1.6527422"
     inkscape:flatsided="false"
     inkscape:rounded="0"
     inkscape:randomized="0"
     d="m 121.69182,65.600979 -0.8616,-0.07076 -0.86161,-0.07076 0.49209,-0.710789 0.49208,-0.71079 0.36952,0.781553 z"
     inkscape:transform-center-x="-5.461694"
     inkscape:transform-center-y="3.8784316"
     transform="matrix(0.56899705,0.82233956,-0.82233956,0.56899705,-7.343814,-107.81781)" />
  <g
     id="g5748"
     transform="translate(-78.782828,-88.51613)">
    <path
       sodipodi:nodetypes="cczzzzzzc"
       inkscape:connector-curvature="0"
       inkscape:original-d="m 189.44232,123.87058 c -21.06321,60.71408 0.6407,4.4407 -16.92241,7.65082 -4.3985,0.57908 -4.3898,0 -14.0056,0 -9.6157,0 -35.0958,-0.80682 -43.6891,0 -8.5933,0.80682 -4.7486,-0.2187 -8.2211,0.71175 -3.4725,0.93046 -10.284201,3.49096 -12.525501,4.20807 -2.241299,0.71711 -2.951799,1.47476 -4.602199,3.73158 -1.6504,2.25682 -1.042,5.23954 -1.6071,9.81771 -0.5651,4.57817 -0.457073,1.60362 -0.457073,1.60362"
       inkscape:path-effect="#path-effect5309-1-8"
       id="path5307-6"
       d="m 189.44232,123.87058 c -4.74747,4.10679 -10.70314,6.79942 -16.92241,7.65082 -4.63331,0.63429 -9.33669,0.26668 -14.0056,0 -14.54581,-0.83082 -29.13498,-0.66975 -43.6891,0 -2.74929,0.12652 -5.50428,0.27184 -8.2211,0.71175 -4.36616,0.70697 -8.597778,2.17431 -12.525501,4.20807 -1.776688,0.91996 -3.562542,2.02217 -4.602199,3.73158 -0.869741,1.43003 -1.128382,3.14583 -1.224163,4.81683 -0.09578,1.67101 -0.04854,3.36088 -0.382937,5.00088 -0.111156,0.54516 -0.264108,1.08178 -0.457073,1.60362"
       style="fill:none;stroke:#ff0000;stroke-width:0.5;stroke-linecap:butt;stroke-linejoin:miter;stroke-miterlimit:4;stroke-opacity:1;stroke-dasharray:none" />
    <path
       transform="matrix(0.75388209,0.65700974,-0.65700974,0.75388209,37.668924,24.540998)"
       inkscape:transform-center-y="-0.12271515"
       inkscape:transform-center-x="0.13563855"
       d="m 121.69182,65.600979 -0.8616,-0.07076 -0.86161,-0.07076 0.49209,-0.710789 0.49208,-0.71079 0.36952,0.781553 z"
       inkscape:randomized="0"
       inkscape:rounded="0"
       inkscape:flatsided="false"
       sodipodi:arg2="1.6527422"
       sodipodi:arg1="0.60554466"
       sodipodi:r2="0.49912232"
       sodipodi:r1="0.99824464"
       sodipodi:cy="65.032768"
       sodipodi:cx="120.87107"
       sodipodi:sides="3"
       id="path4813-0"
       style="fill:#0000ff;fill-opacity:0.42353151;stroke:none"
       sodipodi:type="star" />
    <path
       transform="matrix(0.56899705,0.82233956,-0.82233956,0.56899705,70.986991,14.315177)"
       inkscape:transform-center-y="3.8784316"
       inkscape:transform-center-x="-5.461694"
       d="m 121.69182,65.600979 -0.8616,-0.07076 -0.86161,-0.07076 0.49209,-0.710789 0.49208,-0.71079 0.36952,0.781553 z"
       inkscape:randomized="0"
       inkscape:rounded="0"
       inkscape:flatsided="false"
       sodipodi:arg2="1.6527422"
       sodipodi:arg1="0.60554466"
       sodipodi:r2="0.49912232"
       sodipodi:r1="0.99824464"
       sodipodi:cy="65.032768"
       sodipodi:cx="120.87107"
       sodipodi:sides="3"
       id="path4813-7-4"
       style="fill:#0000ff;fill-opacity:1;stroke:none"
       sodipodi:type="star" />
    <path
       transform="matrix(0.19114795,0.98156123,-0.98156123,0.19114795,128.2229,20.404442)"
       inkscape:transform-center-y="6.0446896"
       inkscape:transform-center-x="-3.6196483"
       d="m 121.69182,65.600979 -0.8616,-0.07076 -0.86161,-0.07076 0.49209,-0.710789 0.49208,-0.71079 0.36952,0.781553 z"
       inkscape:randomized="0"
       inkscape:rounded="0"
       inkscape:flatsided="false"
       sodipodi:arg2="1.6527422"
       sodipodi:arg1="0.60554466"
       sodipodi:r2="0.49912232"
       sodipodi:r1="0.99824464"
       sodipodi:cy="65.032768"
       sodipodi:cx="120.87107"
       sodipodi:sides="3"
       id="path4813-7-9-2"
       style="fill:#ff0000;fill-opacity:1;stroke:none"
       sodipodi:type="star" />
    <rect
       transform="matrix(0,-1,1,0,0,0)"
       y="90.904045"
       x="-151.00301"
       height="99.266861"
       width="9.5962963"
       id="rect2987-4"
       style="fill:none;stroke:#000000;stroke-width:0.36585942;stroke-linejoin:miter;stroke-miterlimit:4;stroke-opacity:1;stroke-dasharray:none;stroke-dashoffset:0" />
    <path
       sodipodi:nodetypes="czzccczccc"
       inkscape:connector-curvature="0"
       inkscape:original-d="m 190.36905,122.50708 c 0,0 0.74749,-0.26587 -1,4 -1.74749,4.26587 -5,6 -7,8 -2,2 -16,2 -16,2 l -70.858115,0 -4.987628,0 c 0,0 -2.152175,-0.002 -3.154248,1 -1.002074,1.00207 -1,3.34863 -1,3.34863 l 0,4.35628 -0.125,6.02723"
       inkscape:path-effect="#path-effect3763-48"
       id="path3761-6"
       d="m 190.36905,122.50708 c -0.16938,1.36732 -0.50601,2.71383 -1,4 -1.29966,3.38385 -3.76415,6.36633 -7,8 -2.42118,1.22237 -5.16015,1.67183 -7.86607,1.85695 -2.70592,0.18511 -5.42168,0.14305 -8.13393,0.14305 -23.61937,0 -47.23874,0 -70.858115,0 -1.662543,0 -3.325085,0 -4.987628,0 -0.568269,0 -1.143181,0.0136 -1.691302,0.16353 -0.548121,0.14998 -1.063149,0.43262 -1.462946,0.83647 -0.422103,0.42638 -0.707367,0.97823 -0.853682,1.56009 -0.146315,0.58186 -0.151537,1.18859 -0.146318,1.78854 0.01263,1.45206 0.01263,2.90422 0,4.35628 -0.01748,2.00948 -0.05915,4.01875 -0.125,6.02723"
       style="fill:none;stroke:#0000ff;stroke-width:0.5;stroke-linecap:butt;stroke-linejoin:miter;stroke-miterlimit:4;stroke-opacity:1;stroke-dasharray:none;stroke-dashoffset:0;marker-start:none;marker-mid:none;marker-end:none" />
    <path
       sodipodi:nodetypes="czzzccsc"
       inkscape:connector-curvature="0"
       id="path4125-4"
       d="m 191.1128,127.37379 c 0,0 -1.61113,0.37635 -6.08082,2.70472 -4.46969,2.32836 -7.96638,6.66112 -13.002,7.68361 -5.03562,1.02249 -16.70088,-1.08609 -22.26976,-2.58295 -5.56887,-1.49686 -17.37055,4.03343 -26.98051,3.50832 -8.33248,-0.68857 -15.58468,-7.42539 -23.196361,-3.96613 -8.05159,3.18172 -11.337938,4.28737 -12.776164,6.71919 -1.142924,1.9325 -1.583688,8.34164 -0.884557,11.13796"
       style="fill:none;stroke:#0000ff;stroke-width:0.5;stroke-linecap:butt;stroke-linejoin:miter;stroke-miterlimit:4;stroke-opacity:0.42465754;stroke-dasharray:none" />
    <g
       transform="translate(-0.62500002,-2.125)"
       id="g5744">
      <path
         sodipodi:type="arc"
         style="fill:#00ff00;fill-opacity:0.44748858;stroke:#000000;stroke-width:0.5;stroke-linejoin:miter;stroke-miterlimit:4;stroke-opacity:1;stroke-dasharray:none;stroke-dashoffset:0"
         id="path4130-6"
         sodipodi:cx="224.375"
         sodipodi:cy="136.02289"
         sodipodi:rx="9.1964283"
         sodipodi:ry="23.839285"
         d="m 233.57143,136.02289 c 0,13.16607 -4.11738,23.83928 -9.19643,23.83928 -5.07905,0 -9.19643,-10.67321 -9.19643,-23.83928 0,-13.16608 4.11738,-23.83929 9.19643,-23.83929 5.07905,0 9.19643,10.67321 9.19643,23.83929 z"
         transform="matrix(0,-0.32462551,1.0034721,0,2.2194101,209.50922)" />
      <path
         sodipodi:type="arc"
         style="fill:#000000;fill-opacity:1;stroke:#000000;stroke-width:0.5;stroke-linejoin:miter;stroke-miterlimit:4;stroke-opacity:1;stroke-dasharray:none;stroke-dashoffset:0"
         id="path4132-2"
         sodipodi:cx="188.21428"
         sodipodi:cy="119.32647"
         sodipodi:rx="0.625"
         sodipodi:ry="0.625"
         d="m 188.83928,119.32647 c 0,0.34518 -0.27982,0.625 -0.625,0.625 -0.34518,0 -0.625,-0.27982 -0.625,-0.625 0,-0.34518 0.27982,-0.625 0.625,-0.625 0.34518,0 0.625,0.27982 0.625,0.625 z"
         transform="matrix(0,-0.85714286,0.85714286,0,36.491509,297.91623)" />
    </g>
  </g>
  <path
     style="fill:none;stroke:#000000;stroke-width:0.2;stroke-linecap:butt;stroke-linejoin:miter;stroke-miterlimit:4;stroke-opacity:1;stroke-dasharray:none;marker-end:url(#Arrow2Mend)"
     d="m 11.44731,3.4727516 7.159456,7.1594564"
     id="path5773"
     inkscape:connector-curvature="0" />
  <text
     xml:space="preserve"
     style="font-size:3.0863378px;font-style:normal;font-variant:normal;font-weight:normal;font-stretch:normal;text-align:center;line-height:125%;letter-spacing:0px;word-spacing:0px;text-anchor:middle;fill:#000000;fill-opacity:1;stroke:none;font-family:Serif;-inkscape-font-specification:Serif"
     x="12.037923"
     y="3.0437474"
     id="text3021"
     sodipodi:linespacing="125%"><tspan
       sodipodi:role="line"
       id="tspan3023"
       x="12.037923"
       y="3.0437474">demonstrations</tspan></text>
  <g
     id="g3893"
     transform="translate(0.92807765,11.799844)">
    <path
       sodipodi:nodetypes="cccccccccccc"
       inkscape:connector-curvature="0"
       id="rect3839"
       d="m 91.240066,-4.0136138 -1.0625,1.875 -1.09375,1.87499977 0,5.09375003 c 0.397917,0.553165 0.763819,1.234903 1.125,1.84375 l 1.09375,1.875 1.0625,-1.875 c 0.313797,-0.615533 0.747655,-1.315864 1.09375,-1.84375 l 0,-5.09375003 0.0039,-0.05859 -1.1289,-1.81640577 z"
       style="fill:#000000;fill-opacity:1;stroke:#000000;stroke-width:0.09619956;stroke-linejoin:miter;stroke-miterlimit:4;stroke-opacity:1;stroke-dasharray:none;stroke-dashoffset:0" />
    <path
       transform="translate(12.34375,0.125)"
       d="m 78.5625,2.0423584 c 0,0.250254 -0.202871,0.453125 -0.453125,0.453125 -0.250254,0 -0.453125,-0.202871 -0.453125,-0.453125 0,-0.250254 0.202871,-0.453125 0.453125,-0.453125 0.250254,0 0.453125,0.202871 0.453125,0.453125 z"
       sodipodi:ry="0.453125"
       sodipodi:rx="0.453125"
       sodipodi:cy="2.0423584"
       sodipodi:cx="78.109375"
       id="path3862"
       style="fill:#bcbcbc;fill-opacity:1;stroke:none"
       sodipodi:type="arc" />
    <g
       transform="translate(0,-0.1249999)"
       id="g3889">
      <path
         sodipodi:type="arc"
         style="fill:#bcbcbc;fill-opacity:1;stroke:none"
         id="path3862-7"
         sodipodi:cx="78.109375"
         sodipodi:cy="2.0423584"
         sodipodi:rx="0.453125"
         sodipodi:ry="0.453125"
         d="m 78.5625,2.0423584 c 0,0.250254 -0.202871,0.453125 -0.453125,0.453125 -0.250254,0 -0.453125,-0.202871 -0.453125,-0.453125 0,-0.250254 0.202871,-0.453125 0.453125,-0.453125 0.250254,0 0.453125,0.202871 0.453125,0.453125 z"
         transform="translate(13.421875,2.5468749)" />
      <path
         sodipodi:type="arc"
         style="fill:#bcbcbc;fill-opacity:1;stroke:none"
         id="path3862-5"
         sodipodi:cx="78.109375"
         sodipodi:cy="2.0423584"
         sodipodi:rx="0.453125"
         sodipodi:ry="0.453125"
         d="m 78.5625,2.0423584 c 0,0.250254 -0.202871,0.453125 -0.453125,0.453125 -0.250254,0 -0.453125,-0.202871 -0.453125,-0.453125 0,-0.250254 0.202871,-0.453125 0.453125,-0.453125 0.250254,0 0.453125,0.202871 0.453125,0.453125 z"
         transform="translate(13.421875,-2.0468751)" />
    </g>
  </g>
  <path
     style="fill:none;stroke:#000000;stroke-width:0.2;stroke-linecap:butt;stroke-linejoin:miter;stroke-opacity:1;marker-end:url(#Arrow2Mend);stroke-miterlimit:4;stroke-dasharray:none"
     d="M 98.376231,4.0914701 94.001008,8.4666933"
     id="path3902"
     inkscape:connector-curvature="0" />
  <text
     xml:space="preserve"
     style="font-size:3.0863378px;font-style:normal;font-variant:normal;font-weight:normal;font-stretch:normal;text-align:center;line-height:125%;letter-spacing:0px;word-spacing:0px;text-anchor:middle;fill:#000000;fill-opacity:1;stroke:none;font-family:Serif;-inkscape-font-specification:Serif"
     x="100.50056"
     y="2.8460534"
     id="text3021-2"
     sodipodi:linespacing="125%"><tspan
       sodipodi:role="line"
       id="tspan3023-0"
       x="100.50056"
       y="2.8460534">plug</tspan></text>
  <path
     style="fill:none;stroke:#000000;stroke-width:0.2;stroke-linecap:butt;stroke-linejoin:miter;stroke-opacity:1;marker-end:url(#Arrow2Mend);stroke-miterlimit:4;stroke-dasharray:none"
     d="m 59.625,5.6829833 0,4.3125"
     id="path4109"
     inkscape:connector-curvature="0" />
  <text
     xml:space="preserve"
     style="font-size:3.0863378px;font-style:normal;font-variant:normal;font-weight:normal;font-stretch:normal;text-align:center;line-height:125%;letter-spacing:0px;word-spacing:0px;text-anchor:middle;fill:#000000;fill-opacity:1;stroke:none;font-family:Serif;-inkscape-font-specification:Serif"
     x="59.876511"
     y="4.0125875"
     id="text3021-2-7"
     sodipodi:linespacing="125%"><tspan
       sodipodi:role="line"
       id="tspan3023-0-5"
       x="59.876511"
       y="4.0125875">Gaussian</tspan></text>
  <text
     xml:space="preserve"
     style="font-size:3.0863378px;font-style:normal;font-variant:normal;font-weight:normal;font-stretch:normal;text-align:center;line-height:125%;letter-spacing:0px;word-spacing:0px;text-anchor:middle;fill:#000000;fill-opacity:1;stroke:none;font-family:Serif;-inkscape-font-specification:Serif"
     x="21.217173"
     y="24.532404"
     id="text3021-2-7-3"
     sodipodi:linespacing="125%"><tspan
       sodipodi:role="line"
       id="tspan3023-0-5-8"
       x="21.217173"
       y="24.532404">wall</tspan></text>
  <path
     style="fill:none;stroke:#000000;stroke-width:0.2;stroke-linecap:butt;stroke-linejoin:miter;stroke-opacity:1;marker-end:url(#Arrow2Mend);stroke-miterlimit:4;stroke-dasharray:none"
     d="m 24.84375,23.464233 3.453125,-3.453125"
     id="path4342"
     inkscape:connector-curvature="0" />
  <path
     sodipodi:type="arc"
     style="fill:#ff0000;fill-opacity:0.09132421000000000;stroke:#ff7100;stroke-width:0.20000000000000001;stroke-linejoin:miter;stroke-miterlimit:4;stroke-opacity:1;stroke-dasharray:none;stroke-dashoffset:0"
     id="path4526"
     sodipodi:cx="91.748421"
     sodipodi:cy="20.776733"
     sodipodi:rx="1.53125"
     sodipodi:ry="1.53125"
     d="m 93.279671,20.776733 a 1.53125,1.53125 0 1 1 -3.0625,0 1.53125,1.53125 0 1 1 3.0625,0 z"
     transform="translate(0.44286165,-0.79105339)" />
  <text
     xml:space="preserve"
     style="font-size:3.0863378px;font-style:normal;font-variant:normal;font-weight:normal;font-stretch:normal;text-align:center;line-height:125%;letter-spacing:0px;word-spacing:0px;text-anchor:middle;fill:#000000;fill-opacity:1;stroke:none;font-family:Serif;-inkscape-font-specification:Serif"
     x="85.217171"
     y="25.049704"
     id="text3021-2-76"
     sodipodi:linespacing="125%"><tspan
       sodipodi:role="line"
       id="tspan3023-0-8"
       x="85.217171"
       y="25.049704">contact</tspan></text>
  <path
     style="fill:none;stroke:#000000;stroke-width:0.2;stroke-linecap:butt;stroke-linejoin:miter;stroke-miterlimit:4;stroke-opacity:1;stroke-dasharray:none;marker-start:url(#Arrow2Mstart)"
     d="m 90.30333,21.31987 -1.421875,1.421875"
     id="path4549"
     inkscape:connector-curvature="0" />
</svg>
